<?xml version="1.0" standalone="no"?>
<!DOCTYPE svg PUBLIC "-//W3C//DTD SVG 1.1//EN" "http://www.w3.org/Graphics/SVG/1.1/DTD/svg11.dtd" >
<svg xmlns="http://www.w3.org/2000/svg">
<metadata></metadata>
<defs>
<font id="neutrafacecondensedpsblack" horiz-adv-x="1093" >
<font-face units-per-em="2048" ascent="1638" descent="-410" />
<missing-glyph horiz-adv-x="352" />
<glyph horiz-adv-x="0" />
<glyph unicode="&#xd;" horiz-adv-x="1024" />
<glyph unicode=" "  horiz-adv-x="352" />
<glyph unicode="&#x09;" horiz-adv-x="352" />
<glyph unicode="&#xa0;" horiz-adv-x="352" />
<glyph unicode="!" horiz-adv-x="516" d="M78 158q0 -39 14 -71t39 -55.5t57.5 -36.5t69.5 -13q70 0 125 49t55 127q0 39 -15 72.5t-40 56t-57.5 36t-67.5 13.5q-72 0 -126 -49t-54 -129zM86 1393l37 -963h270l37 963h-344z" />
<glyph unicode="&#x22;" horiz-adv-x="757" d="M45 1393l27 -486h245l27 486h-299zM414 1393l26 -486h246l27 486h-299z" />
<glyph unicode="#" horiz-adv-x="1087" d="M86 526h115l-35 -213h225l35 213h127l-35 -213h225l35 213h158v254h-117l25 146h157v254h-114l35 213h-226l-34 -213h-127l34 213h-225l-35 -213h-157v-254h114l-24 -146h-156v-254zM467 780l25 146h126l-24 -146h-127z" />
<glyph unicode="$" horiz-adv-x="897" d="M4 113q47 -41 121 -78t188 -47v-226h269v242q70 20 121 57t83.5 85.5t48 105.5t15.5 117v16q0 115 -53.5 206t-151.5 173l-176 147q-53 43 -72.5 70t-19.5 61v5q0 29 24.5 56t83.5 27q53 0 98.5 -21.5t86.5 -49.5l143 248q-41 29 -99.5 53t-131.5 37v186h-269v-197 q-127 -35 -191.5 -123.5t-64.5 -224.5v-10q0 -113 48.5 -200t140.5 -164l166 -140q55 -47 82.5 -77.5t27.5 -79.5v-9q0 -37 -33.5 -66.5t-105.5 -29.5q-61 0 -112.5 26.5t-104.5 63.5z" />
<glyph unicode="%" horiz-adv-x="1581" d="M37 1051q0 -82 29.5 -145.5t78 -106.5t110.5 -65.5t128 -22.5q68 0 130 22.5t110.5 65.5t78 106.5t29.5 145.5v16q0 82 -29.5 146.5t-78 107.5t-110.5 65.5t-130 22.5q-66 0 -128 -22.5t-110.5 -65.5t-78 -107.5t-29.5 -146.5v-16zM289 1053v12q0 66 24.5 103.5 t69.5 37.5t70.5 -38t25.5 -103v-12q0 -66 -25.5 -104t-70.5 -38t-69.5 38t-24.5 104zM313 0h224l731 1393h-224zM850 322q0 -84 29.5 -147.5t78 -106.5t110.5 -65.5t128 -22.5t128 22.5t111.5 65.5t79 106.5t29.5 147.5v16q0 82 -29.5 145.5t-79 106.5t-111.5 65.5 t-128 22.5t-128 -22.5t-110.5 -65.5t-78 -106.5t-29.5 -145.5v-16zM1100 324v12q0 66 25.5 103.5t70.5 37.5t70.5 -38t25.5 -103v-12q0 -66 -25.5 -104t-70.5 -38t-70.5 38t-25.5 104z" />
<glyph unicode="&#x26;" horiz-adv-x="1169" d="M27 375q0 -180 121.5 -285.5t340.5 -105.5q162 0 289 61l31 -45h356l-161 242q59 92 84.5 210.5t25.5 254.5v20h-262v-12q0 -113 -29 -205l-157 238q127 63 186 141t59 194v11q0 147 -95 231t-261 84q-78 0 -144.5 -21.5t-115.5 -63.5t-77 -104.5t-28 -146.5v-16 q0 -59 23 -133t72 -146q-129 -72 -193.5 -164t-64.5 -223v-16zM358 418v12q0 78 54 154l221 -326q-49 -22 -94 -22q-88 0 -134.5 49t-46.5 133zM487 1077v8q0 41 18.5 66t55.5 25q72 0 72 -91v-8q0 -47 -17.5 -88t-60.5 -76q-31 43 -49.5 83t-18.5 81z" />
<glyph unicode="'" horiz-adv-x="389" d="M45 1393l27 -486h245l27 486h-299z" />
<glyph unicode="(" horiz-adv-x="600" d="M49 698q0 -158 32 -282.5t80 -223t107.5 -174.5t114.5 -133l197 117q-45 76 -83 151.5t-64.5 159.5t-42 178.5t-15.5 206.5q0 113 13 208t40 178t64.5 158t85.5 149l-195 120q-55 -59 -114.5 -133.5t-108.5 -174t-80 -224.5t-31 -281z" />
<glyph unicode=")" horiz-adv-x="600" d="M20 1395q45 -76 83 -152t65 -160t42 -178t15 -207t-14 -208t-40 -178t-63.5 -157.5t-84.5 -148.5l194 -121q55 57 114.5 133t108.5 175.5t80 223.5t31 281q0 158 -32 283t-80 223.5t-107.5 173t-114.5 133.5z" />
<glyph unicode="*" horiz-adv-x="702" d="M31 1026l108 -205l142 133l-54 -196h244l-51 196l143 -133l109 205l-176 47l176 51l-109 205l-143 -137l51 201h-244l54 -199l-142 135l-108 -205l176 -51z" />
<glyph unicode="+" horiz-adv-x="825" d="M55 545h221v-244h273v244h221v256h-221v243h-273v-243h-221v-256z" />
<glyph unicode="," horiz-adv-x="475" d="M57 164q0 -55 28 -98t79 -60l-64 -229h142l110 192q29 53 47.5 98.5t18.5 96.5q0 37 -15.5 68.5t-40 55t-57.5 36t-69 12.5q-72 0 -125.5 -47t-53.5 -125z" />
<glyph unicode="-" horiz-adv-x="569" d="M63 440h445v281h-445v-281z" />
<glyph unicode="." horiz-adv-x="475" d="M57 158q0 -39 14.5 -71t39 -55.5t57.5 -36.5t70 -13q70 0 125 49t55 127q0 39 -15.5 72.5t-40 56t-57.5 36t-67 13.5q-72 0 -126.5 -49t-54.5 -129z" />
<glyph unicode="/" horiz-adv-x="755" d="M20 0h291l424 1393h-291z" />
<glyph unicode="0" horiz-adv-x="1196" d="M43 666q0 -176 46 -305.5t123 -213.5t177 -124.5t209 -40.5t209 40.5t177 124.5t123 213t46 306v61q0 176 -46 304t-123 212t-177 125t-209 41t-209 -41t-177 -125t-123 -212t-46 -304v-61zM383 670v53q0 211 61.5 305t153.5 94t153.5 -94t61.5 -305v-53 q0 -211 -61.5 -306.5t-153.5 -95.5t-153.5 95.5t-61.5 306.5z" />
<glyph unicode="1" horiz-adv-x="641" d="M37 1110h158v-1110h329v1393h-487v-283z" />
<glyph unicode="2" horiz-adv-x="997" d="M12 0h920v274h-375l160 218q111 150 167 266t56 239v15q0 88 -30.5 161.5t-88 126t-140.5 81t-185 28.5q-158 0 -266.5 -65.5t-174.5 -186.5l258 -168q33 59 70 93t92 34q53 0 91 -31.5t38 -97.5v-12q0 -76 -36 -141.5t-97 -153.5l-459 -651v-29z" />
<glyph unicode="3" horiz-adv-x="980" d="M12 139q59 -66 158.5 -112.5t259.5 -46.5q117 0 211 32.5t160.5 96t101.5 153.5t35 205v12q0 98 -22.5 170t-61.5 123t-92 82t-115 43l291 469v27h-827v-283h374l-252 -420l25 -28q33 16 66.5 26t81.5 10q96 0 146 -55t50 -154v-8q0 -92 -47 -152.5t-145 -60.5 q-66 0 -114 25.5t-89 71.5z" />
<glyph unicode="4" horiz-adv-x="1114" d="M55 242h568v-242h307v242h135v264h-135v887h-334l-541 -899v-252zM365 506l186 323q10 18 23.5 45t25.5 50.5t20.5 41t8.5 19.5q0 -2 -1 -19.5t-2 -45t-2 -59.5t-1 -60v-295h-258z" />
<glyph unicode="5" horiz-adv-x="954" d="M-8 133q59 -66 158.5 -109.5t259.5 -43.5q111 0 201.5 32.5t157.5 94t103.5 152.5t36.5 208v14q0 113 -34.5 196t-92 138t-131 82t-151.5 27q-39 0 -71 -7.5t-48 -15.5v209h455v283h-734v-826l31 -16q41 41 99.5 72.5t136.5 31.5q86 0 143 -47t57 -139v-8 q0 -96 -59 -144.5t-139 -48.5q-66 0 -112 25.5t-81 60.5z" />
<glyph unicode="6" horiz-adv-x="1042" d="M43 461q0 -109 36 -198t98.5 -151.5t150.5 -97t192 -34.5q106 0 194.5 34.5t152 99t99 154.5t35.5 203v14q0 96 -28.5 177t-78.5 139.5t-119.5 91.5t-151.5 33q-31 0 -62 -6.5t-65 -24.5q37 47 79.5 104.5t71.5 100.5l191 293h-342l-308 -488q-78 -121 -111.5 -222 t-33.5 -208v-14zM365 457v12q0 94 40.5 156.5t114.5 62.5q78 0 117 -63.5t39 -155.5v-12q0 -88 -40 -152.5t-116 -64.5q-74 0 -114.5 64.5t-40.5 152.5z" />
<glyph unicode="7" horiz-adv-x="952" d="M45 1102h477l-389 -1102h334l471 1358v35h-893v-291z" />
<glyph unicode="8" horiz-adv-x="1069" d="M41 416q0 -86 31.5 -165t93 -139.5t154 -96t215.5 -35.5t215 34.5t154.5 95t93 139.5t30.5 167v24q0 129 -59.5 216t-155.5 139q59 39 98 99t39 150v19q0 76 -31.5 139.5t-88 109.5t-132 71.5t-163.5 25.5q-86 0 -162 -25.5t-132.5 -71.5t-89 -109.5t-32.5 -139.5v-19 q0 -90 38 -150t97 -99q-96 -51 -154.5 -138.5t-58.5 -216.5v-24zM369 451v16q0 106 50 154.5t116 48.5t115.5 -48.5t49.5 -154.5v-16q0 -98 -49.5 -150.5t-115.5 -52.5t-116 49t-50 154zM418 1024v10q0 57 32.5 93t84.5 36q51 0 83.5 -35.5t32.5 -93.5v-10q0 -57 -32.5 -94 t-83.5 -37t-84 37t-33 94z" />
<glyph unicode="9" horiz-adv-x="1042" d="M41 920q0 -100 27.5 -183.5t78 -144t119 -93t150.5 -32.5q29 0 64.5 5t76.5 28q-35 -45 -75.5 -101.5t-69.5 -105.5l-176 -293h346l284 475q133 221 133 443v14q0 109 -35.5 198t-98 151t-150.5 97t-193 35q-106 0 -194 -31.5t-151.5 -93t-99.5 -150.5t-36 -204v-14z M367 924v12q0 92 39.5 154.5t115.5 62.5q74 0 115 -62.5t41 -154.5v-12q0 -94 -41 -156.5t-115 -62.5q-78 0 -116.5 62t-38.5 157z" />
<glyph unicode=":" horiz-adv-x="491" d="M66 158q0 -39 14 -71t38.5 -55.5t57.5 -36.5t70 -13q70 0 125 49t55 127q0 39 -15.5 72.5t-40 56t-57 36t-67.5 13.5q-72 0 -126 -49t-54 -129zM66 662q0 -39 14 -71t38.5 -55.5t57.5 -37t70 -13.5q70 0 125 49.5t55 127.5q0 39 -15.5 72.5t-40 56t-57 36t-67.5 13.5 q-72 0 -126 -49.5t-54 -128.5z" />
<glyph unicode=";" horiz-adv-x="491" d="M66 164q0 -55 27.5 -98t78.5 -60l-63 -229h141l110 192q29 53 47.5 98.5t18.5 96.5q0 37 -15.5 68.5t-40 55t-57 36t-69.5 12.5q-72 0 -125 -47t-53 -125zM66 662q0 -39 14 -71t38.5 -55.5t57.5 -37t70 -13.5q70 0 125 49.5t55 127.5q0 39 -15.5 72.5t-40 56t-57 36 t-67.5 13.5q-72 0 -126 -49.5t-54 -128.5z" />
<glyph unicode="&#x3c;" horiz-adv-x="716" d="M43 629l619 -400v301l-195 113l195 113v301l-619 -400v-28z" />
<glyph unicode="=" horiz-adv-x="784" d="M55 340h674v256h-674v-256zM55 709h674v256h-674v-256z" />
<glyph unicode="&#x3e;" horiz-adv-x="716" d="M55 229l619 400v28l-619 400v-301l195 -113l-195 -113v-301z" />
<glyph unicode="?" horiz-adv-x="841" d="M12 1284l183 -227q23 27 55.5 45t77.5 18q55 0 95 -38t40 -121v-13q0 -86 -48 -127t-126 -41h-74v-350h297v148q133 35 210 129t77 272v20q0 195 -118 302.5t-335 107.5q-113 0 -198 -36t-136 -89zM176 158q0 -39 14.5 -71t39 -55.5t57 -36.5t69.5 -13q70 0 125.5 49 t55.5 127q0 39 -15.5 72.5t-40 56t-57.5 36t-68 13.5q-72 0 -126 -49t-54 -129z" />
<glyph unicode="@" horiz-adv-x="1261" d="M37 694q0 -137 48 -245.5t133 -183.5t199 -114.5t245 -39.5q82 0 155.5 14t134.5 49l-65 119q-51 -27 -110.5 -38t-119.5 -11q-111 0 -197.5 32.5t-147 92t-92.5 142.5t-32 183q0 98 32 181t90.5 143.5t140 93.5t184.5 33q215 0 329.5 -105.5t114.5 -304.5 q0 -98 -25.5 -134t-52.5 -36q-23 0 -36 20.5t-13 67.5v314h-243v-43q-23 29 -58 43t-96 14q-55 0 -104.5 -21.5t-86 -61.5t-59 -94t-22.5 -118q0 -63 22.5 -116.5t59 -92.5t86 -61.5t104.5 -22.5q66 0 113 19.5t84 68.5q55 -88 204 -88q55 0 104.5 21.5t85.5 64.5 t57.5 107.5t21.5 150.5q0 119 -43 218.5t-121 170t-185.5 110.5t-236.5 40q-121 0 -230.5 -43t-192.5 -120t-131 -183.5t-48 -235.5zM530 686q0 43 27 68.5t66 25.5q37 0 62.5 -25.5t25.5 -68.5t-25.5 -66.5t-62.5 -23.5q-39 0 -66 23.5t-27 66.5z" />
<glyph unicode="A" d="M8 0h311l37 117h363l37 -117h329l-514 1409h-45zM434 362l66 201q14 47 24.5 90t12.5 47q2 -4 12 -47t26 -90l64 -201h-205z" />
<glyph unicode="B" horiz-adv-x="1034" d="M86 0h401q246 0 379 104.5t133 309.5v20q0 74 -20.5 130.5t-55 96t-80.5 66.5t-95 43q72 29 125 90.5t53 159.5v16q0 82 -33 148.5t-89 112.5t-132 71t-160 25h-426v-1393zM399 272v349h86q92 0 140.5 -43t48.5 -123v-17q0 -80 -49.5 -123t-139.5 -43h-86zM399 866v254 h82q55 0 93 -30.5t38 -90.5v-12q0 -59 -37.5 -90t-97.5 -31h-78z" />
<glyph unicode="C" horiz-adv-x="972" d="M43 676q0 -178 44 -309t122 -217.5t183.5 -127t228.5 -40.5q115 0 199.5 31.5t137.5 70.5l-145 250q-31 -20 -74 -40t-104 -20q-53 0 -99.5 24t-80 74t-53 128t-19.5 186v23q0 106 20.5 183t55.5 126t81 72.5t99 23.5q59 0 97 -18.5t65 -36.5l141 260q-47 35 -126 62.5 t-183 27.5q-133 0 -242.5 -46t-186.5 -134t-119 -217t-42 -295v-41z" />
<glyph unicode="D" horiz-adv-x="1124" d="M86 0h410q135 0 242.5 44t184 128t117.5 209t41 285v61q0 166 -42 290t-118.5 208t-185 126t-239.5 42h-410v-1393zM418 289v815h57q125 0 195.5 -88t70.5 -297v-43q0 -207 -70.5 -297t-195.5 -90h-57z" />
<glyph unicode="E" horiz-adv-x="890" d="M86 0h756v279h-428v182h331v268h-331v385h413v279h-741v-1393z" />
<glyph unicode="F" horiz-adv-x="847" d="M86 0h332v455h330v274h-330v385h385v279h-717v-1393z" />
<glyph unicode="G" d="M43 676q0 -174 44 -304t122 -217t187.5 -130t240.5 -43q72 0 132 12t109.5 32.5t88.5 44t67 48.5v606h-446v-262h155v-182q-20 -8 -46.5 -13.5t-61.5 -5.5q-121 0 -186.5 109.5t-65.5 314.5v23q0 205 70.5 305t193.5 100q61 0 100 -19.5t72 -45.5l180 241 q-72 53 -156.5 86t-207.5 33q-137 0 -246.5 -45t-186.5 -133t-118 -217t-41 -297v-41z" />
<glyph unicode="H" horiz-adv-x="1134" d="M86 0h332v440h299v-440h332v1393h-332v-662h-299v662h-332v-1393z" />
<glyph unicode="I" horiz-adv-x="516" d="M92 0h332v1393h-332v-1393z" />
<glyph unicode="J" horiz-adv-x="804" d="M4 127q63 -76 143 -110.5t209 -34.5q186 0 278.5 104t92.5 274v1033h-332v-998q0 -57 -24.5 -82.5t-65.5 -25.5q-37 0 -62.5 16t-47.5 41z" />
<glyph unicode="K" d="M86 0h332v315l59 107l225 -422h375l-364 688l346 705h-346l-219 -453q-37 -74 -76 -168v621h-332v-1393z" />
<glyph unicode="L" horiz-adv-x="888" d="M86 0h760v291h-428v1102h-332v-1393z" />
<glyph unicode="M" horiz-adv-x="1228" d="M61 0h328l19 571l194 -297h25l194 295l19 -569h327l-55 1407h-43l-457 -696l-452 696h-43z" />
<glyph unicode="N" horiz-adv-x="1064" d="M86 0h299v424q0 43 -2 95t-3 84t-1 36l551 -655h49v1409h-299v-447q0 -33 1 -70.5t2 -69.5t2 -54l1 -21l-551 678h-49v-1409z" />
<glyph unicode="O" horiz-adv-x="1196" d="M43 676q0 -180 45 -311.5t122 -216.5t177 -125.5t211 -40.5t211 40.5t177 125.5t122 216.5t45 311.5v41q0 178 -45 308t-122 216t-177 127t-211 41t-211 -41t-177 -127t-122 -216t-45 -308v-41zM383 680v33q0 215 61.5 312t153.5 97t153.5 -97t61.5 -312v-33 q0 -109 -16.5 -186.5t-45 -128t-68.5 -74t-85 -23.5q-47 0 -86 23.5t-67.5 74t-45 128t-16.5 186.5z" />
<glyph unicode="P" horiz-adv-x="1040" d="M86 0h332v317h80q113 0 206 33t158.5 98.5t102 163t36.5 226.5v36q0 129 -36.5 225.5t-103 162t-159 98.5t-204.5 33h-412v-1393zM418 602v502h65q86 0 137.5 -62.5t51.5 -171.5v-30q0 -111 -50.5 -174.5t-138.5 -63.5h-65z" />
<glyph unicode="Q" horiz-adv-x="1196" d="M43 676q0 -145 29.5 -259t82 -197t123 -136t154.5 -78v-260h332v260q82 25 153.5 78t124 136t82 196.5t29.5 259.5v41q0 178 -45 308t-122 216t-177 127t-211 41t-211 -41t-177 -127t-122 -216t-45 -308v-41zM383 680v33q0 215 61.5 312t153.5 97t153.5 -97t61.5 -312 v-33q0 -219 -61.5 -319.5t-153.5 -100.5t-153.5 100.5t-61.5 319.5z" />
<glyph unicode="R" horiz-adv-x="1040" d="M86 0h332v332h59h41l152 -332h344l-199 430q86 63 136 164.5t50 243.5v36q0 125 -35.5 222.5t-101 163t-159 99.5t-207.5 34h-412v-1393zM418 606v498h65q88 0 138.5 -58.5t50.5 -175.5v-30q0 -111 -50.5 -172.5t-138.5 -61.5h-65z" />
<glyph unicode="S" horiz-adv-x="897" d="M4 106q29 -25 65.5 -48t86 -41.5t112 -30t142.5 -11.5q117 0 199.5 33t137 88.5t79 126t24.5 146.5v16q0 115 -53.5 206t-151.5 173l-176 147q-53 43 -72.5 70t-19.5 61v5q0 29 24.5 56t83.5 27q53 0 98.5 -21.5t86.5 -49.5l143 254q-53 41 -140 70.5t-204 29.5 q-201 0 -306.5 -101.5t-105.5 -273.5v-10q0 -113 48.5 -200t140.5 -164l166 -140q55 -47 82.5 -77.5t27.5 -79.5v-9q0 -37 -33.5 -66.5t-105.5 -29.5q-61 0 -112.5 26.5t-104.5 63.5z" />
<glyph unicode="T" horiz-adv-x="935" d="M37 1102h264v-1102h332v1102h264v291h-860v-291z" />
<glyph unicode="U" horiz-adv-x="1105" d="M78 455q0 -119 33.5 -208t96 -148.5t151 -89t194.5 -29.5t193.5 29.5t149.5 89t97 148.5t35 208v938h-332v-938q0 -86 -31.5 -133.5t-111.5 -47.5t-111.5 47.5t-31.5 133.5v938h-332v-938z" />
<glyph unicode="V" d="M8 1393l514 -1409h45l518 1409h-319l-156 -480q-10 -29 -19 -64.5t-17.5 -67t-13.5 -56.5t-5 -29q-2 6 -7 31t-12.5 57.5t-16.5 66.5t-17 62l-156 480h-338z" />
<glyph unicode="W" horiz-adv-x="1433" d="M8 1393l410 -1409h45l180 489q14 39 27.5 81t25 77t18.5 58.5t7 25.5q2 -4 9 -27.5t17.5 -58.5t24.5 -76t29 -80l180 -489h45l399 1409h-313l-119 -453q-10 -39 -18 -87t-13.5 -75.5t-5.5 -32.5q-2 4 -9 33t-20.5 77t-25.5 87l-151 465h-45l-146 -465q-12 -39 -24.5 -87 t-19.5 -76.5t-9 -33.5q0 4 -6 32t-16.5 75t-20.5 88l-123 453h-332z" />
<glyph unicode="X" horiz-adv-x="1140" d="M16 0h334l127 270q20 43 42 95.5t34 85t14 36.5l9 -23q8 -22 21 -54.5t28.5 -70.5t29.5 -69l121 -270h354l-360 745l293 648h-332l-82 -199q-14 -33 -30.5 -80t-25.5 -76.5t-11 -33.5q-2 4 -11.5 33.5t-25 76.5t-27.5 80l-80 199h-352l297 -648z" />
<glyph unicode="Y" horiz-adv-x="1107" d="M8 1393l381 -951v-442h332v451l379 942h-328l-160 -441q-12 -37 -24.5 -81t-19.5 -70.5t-7 -30.5q0 4 -6 30.5t-18.5 70.5t-24.5 81l-158 441h-346z" />
<glyph unicode="Z" horiz-adv-x="978" d="M20 0h887v291h-430l471 1075v27h-846v-291h390l-472 -1073v-29z" />
<glyph unicode="[" horiz-adv-x="614" d="M90 0h461v274h-150v844h150v275h-461v-1393z" />
<glyph unicode="\" horiz-adv-x="755" d="M20 1393l424 -1393h291l-424 1393h-291z" />
<glyph unicode="]" horiz-adv-x="614" d="M63 0h461v1393h-461v-275h150v-844h-150v-274z" />
<glyph unicode="^" horiz-adv-x="749" d="M63 877h244l68 131l67 -131h246l-295 542h-35z" />
<glyph unicode="_" horiz-adv-x="634" d="M-4 -96v-281h643v281h-643z" />
<glyph unicode="`" horiz-adv-x="1024" d="M244 1755l145 -291h244l-62 291h-327z" />
<glyph unicode="a" d="M8 0h311l37 117h363l37 -117h329l-514 1409h-45zM434 362l66 201q14 47 24.5 90t12.5 47q2 -4 12 -47t26 -90l64 -201h-205z" />
<glyph unicode="b" horiz-adv-x="1034" d="M86 0h401q246 0 379 104.5t133 309.5v20q0 74 -20.5 130.5t-55 96t-80.5 66.5t-95 43q72 29 125 90.5t53 159.5v16q0 82 -33 148.5t-89 112.5t-132 71t-160 25h-426v-1393zM399 272v349h86q92 0 140.5 -43t48.5 -123v-17q0 -80 -49.5 -123t-139.5 -43h-86zM399 866v254 h82q55 0 93 -30.5t38 -90.5v-12q0 -59 -37.5 -90t-97.5 -31h-78z" />
<glyph unicode="c" horiz-adv-x="972" d="M43 676q0 -178 44 -309t122 -217.5t183.5 -127t228.5 -40.5q115 0 199.5 31.5t137.5 70.5l-145 250q-31 -20 -74 -40t-104 -20q-53 0 -99.5 24t-80 74t-53 128t-19.5 186v23q0 106 20.5 183t55.5 126t81 72.5t99 23.5q59 0 97 -18.5t65 -36.5l141 260q-47 35 -126 62.5 t-183 27.5q-133 0 -242.5 -46t-186.5 -134t-119 -217t-42 -295v-41z" />
<glyph unicode="d" horiz-adv-x="1124" d="M86 0h410q135 0 242.5 44t184 128t117.5 209t41 285v61q0 166 -42 290t-118.5 208t-185 126t-239.5 42h-410v-1393zM418 289v815h57q125 0 195.5 -88t70.5 -297v-43q0 -207 -70.5 -297t-195.5 -90h-57z" />
<glyph unicode="e" horiz-adv-x="890" d="M86 0h756v279h-428v182h331v268h-331v385h413v279h-741v-1393z" />
<glyph unicode="f" horiz-adv-x="847" d="M86 0h332v455h330v274h-330v385h385v279h-717v-1393z" />
<glyph unicode="g" horiz-adv-x="1118" d="M43 676q0 -170 40 -300t113.5 -218t177 -132t228.5 -44t215 42t149.5 117.5t88 182t28.5 237.5v168h-497v-270h178q-18 -188 -164 -189q-104 0 -160.5 107.5t-56.5 298.5v41q0 188 57.5 292.5t167.5 104.5q82 0 126 -30.5t75 -63.5l197 237q-29 29 -67 55.5t-86 48 t-108.5 35t-136.5 13.5q-131 0 -235.5 -45t-178 -133t-112.5 -217t-39 -297v-41z" />
<glyph unicode="h" horiz-adv-x="1134" d="M86 0h332v440h299v-440h332v1393h-332v-662h-299v662h-332v-1393z" />
<glyph unicode="i" horiz-adv-x="516" d="M92 0h332v1393h-332v-1393z" />
<glyph unicode="j" horiz-adv-x="800" d="M0 127q63 -76 143 -110.5t209 -34.5q186 0 278.5 104t92.5 274v1033h-332v-998q0 -57 -24.5 -82.5t-65.5 -25.5q-37 0 -62.5 16t-48.5 41z" />
<glyph unicode="k" horiz-adv-x="1069" d="M86 0h332v518l264 -518h371l-322 625l316 768h-351l-278 -717v717h-332v-1393z" />
<glyph unicode="l" horiz-adv-x="888" d="M86 0h760v291h-428v1102h-332v-1393z" />
<glyph unicode="m" horiz-adv-x="1232" d="M86 0h317v635l197 -273h27l202 273v-635h318v1405h-41l-485 -623l-494 623h-41v-1405z" />
<glyph unicode="n" horiz-adv-x="1064" d="M86 0h299v424q0 43 -2 95t-3 84t-1 36l551 -655h49v1409h-299v-447q0 -33 1 -70.5t2 -69.5t2 -54l1 -21l-551 678h-49v-1409z" />
<glyph unicode="o" horiz-adv-x="1196" d="M43 676q0 -180 45 -311.5t122 -216.5t177 -125.5t211 -40.5t211 40.5t177 125.5t122 216.5t45 311.5v41q0 178 -45 308t-122 216t-177 127t-211 41t-211 -41t-177 -127t-122 -216t-45 -308v-41zM383 680v33q0 215 61.5 312t153.5 97t153.5 -97t61.5 -312v-33 q0 -109 -16.5 -186.5t-45 -128t-68.5 -74t-85 -23.5q-47 0 -86 23.5t-67.5 74t-45 128t-16.5 186.5z" />
<glyph unicode="p" horiz-adv-x="1040" d="M86 0h332v317h80q113 0 206 33t158.5 98.5t102 163t36.5 226.5v36q0 129 -36.5 225.5t-103 162t-159 98.5t-204.5 33h-412v-1393zM418 602v502h65q86 0 137.5 -62.5t51.5 -171.5v-30q0 -111 -50.5 -174.5t-138.5 -63.5h-65z" />
<glyph unicode="q" horiz-adv-x="1196" d="M43 676q0 -180 45 -311.5t122 -216.5t177 -125.5t211 -40.5q113 0 215 43l123 -162l244 211l-148 133q55 86 88 200.5t33 268.5v41q0 178 -45 308t-122 216t-177 127t-211 41t-211 -41t-177 -127t-122 -216t-45 -308v-41zM383 680v33q0 215 61.5 312t153.5 97t153.5 -97 t61.5 -312v-33q0 -78 -7 -138.5t-22 -107.5l-106 96l-148 -131l107 -141q-10 -2 -19.5 -3t-19.5 -1q-47 0 -86 24.5t-67.5 77t-45 132t-16.5 192.5z" />
<glyph unicode="r" horiz-adv-x="1040" d="M86 0h332v332h59h41l152 -332h344l-199 430q86 63 136 164.5t50 243.5v36q0 125 -35.5 222.5t-101 163t-159 99.5t-207.5 34h-412v-1393zM418 606v498h65q88 0 138.5 -58.5t50.5 -175.5v-30q0 -111 -50.5 -172.5t-138.5 -61.5h-65z" />
<glyph unicode="s" horiz-adv-x="897" d="M4 106q29 -25 65.5 -48t86 -41.5t112 -30t142.5 -11.5q117 0 199.5 33t137 88.5t79 126t24.5 146.5v16q0 115 -53.5 206t-151.5 173l-176 147q-53 43 -72.5 70t-19.5 61v5q0 29 24.5 56t83.5 27q53 0 98.5 -21.5t86.5 -49.5l143 254q-53 41 -140 70.5t-204 29.5 q-201 0 -306.5 -101.5t-105.5 -273.5v-10q0 -113 48.5 -200t140.5 -164l166 -140q55 -47 82.5 -77.5t27.5 -79.5v-9q0 -37 -33.5 -66.5t-105.5 -29.5q-61 0 -112.5 26.5t-104.5 63.5z" />
<glyph unicode="t" horiz-adv-x="935" d="M37 1102h264v-1102h332v1102h264v291h-860v-291z" />
<glyph unicode="u" horiz-adv-x="1105" d="M78 455q0 -119 33.5 -208t96 -148.5t151 -89t194.5 -29.5t193.5 29.5t149.5 89t97 148.5t35 208v938h-332v-938q0 -86 -31.5 -133.5t-111.5 -47.5t-111.5 47.5t-31.5 133.5v938h-332v-938z" />
<glyph unicode="v" d="M8 1393l514 -1409h45l518 1409h-319l-156 -480q-10 -29 -19 -64.5t-17.5 -67t-13.5 -56.5t-5 -29q-2 6 -7 31t-12.5 57.5t-16.5 66.5t-17 62l-156 480h-338z" />
<glyph unicode="w" horiz-adv-x="1433" d="M8 1393l410 -1409h45l180 489q14 39 27.5 81t25 77t18.5 58.5t7 25.5q2 -4 9 -27.5t17.5 -58.5t24.5 -76t29 -80l180 -489h45l399 1409h-313l-119 -453q-10 -39 -18 -87t-13.5 -75.5t-5.5 -32.5q-2 4 -9 33t-20.5 77t-25.5 87l-151 465h-45l-146 -465q-12 -39 -24.5 -87 t-19.5 -76.5t-9 -33.5q0 4 -6 32t-16.5 75t-20.5 88l-123 453h-332z" />
<glyph unicode="x" horiz-adv-x="1140" d="M16 0h334l127 270q20 43 42 95.5t34 85t14 36.5l9 -23q8 -22 21 -54.5t28.5 -70.5t29.5 -69l121 -270h354l-360 745l293 648h-332l-82 -199q-14 -33 -30.5 -80t-25.5 -76.5t-11 -33.5q-2 4 -11.5 33.5t-25 76.5t-27.5 80l-80 199h-352l297 -648z" />
<glyph unicode="y" horiz-adv-x="1107" d="M8 1393l381 -951v-442h332v451l379 942h-328l-160 -441q-12 -37 -24.5 -81t-19.5 -70.5t-7 -30.5q0 4 -6 30.5t-18.5 70.5t-24.5 81l-158 441h-346z" />
<glyph unicode="z" horiz-adv-x="978" d="M20 0h887v291h-430l471 1075v27h-846v-291h390l-472 -1073v-29z" />
<glyph unicode="{" horiz-adv-x="686" d="M33 506h45q84 0 84 -92v-181q0 -66 21.5 -109.5t57 -71t80 -40t91.5 -12.5h211v274h-99q-25 0 -38 11.5t-13 46.5v155q0 150 -149 168q150 18 149 168v238q0 35 13.5 46t37.5 11h99v275h-211q-47 0 -91.5 -12.5t-80 -40t-57 -72.5t-21.5 -109v-287q0 -92 -84 -92h-45 v-274z" />
<glyph unicode="|" horiz-adv-x="401" d="M74 -143h254v1679h-254v-1679z" />
<glyph unicode="}" horiz-adv-x="686" d="M63 0h211q45 0 90.5 12.5t81 40t57 71.5t21.5 109v181q0 92 84 92h45v274h-45q-84 0 -84 92v287q0 63 -21.5 108.5t-57 73t-81 40t-90.5 12.5h-211v-275h99q25 0 38 -11t13 -46v-238q0 -150 149 -168q-150 -18 -149 -168v-155q0 -35 -13.5 -46.5t-37.5 -11.5h-99v-274z " />
<glyph unicode="~" horiz-adv-x="841" d="M43 446l219 -32q4 25 16.5 41t38.5 16q18 0 44 -9t57 -20.5t65.5 -20.5t73.5 -9q90 0 156.5 77.5t87.5 221.5l-221 32q-4 -25 -16.5 -41t-39.5 -16q-18 0 -41.5 9.5t-53.5 20.5t-65.5 20t-76.5 9q-90 0 -158 -77.5t-86 -221.5z" />
<glyph unicode="&#xa1;" horiz-adv-x="516" d="M78 1235q0 -41 15.5 -74t40 -55.5t57 -35.5t67.5 -13q72 0 126 49t54 129q0 39 -14 70.5t-39 55t-57.5 37t-69.5 13.5q-70 0 -125 -49t-55 -127zM86 0h344l-37 963h-270z" />
<glyph unicode="&#xa2;" horiz-adv-x="798" d="M55 676q0 -207 86 -329t219 -165v-182h258v170q53 12 96.5 32.5t71.5 45.5l-139 252q-18 -16 -46 -29.5t-64 -13.5q-76 0 -122 55t-46 176v19q0 117 50 173t116 56q35 0 59 -11.5t41 -23.5l143 252q-35 23 -72.5 40t-87.5 28v172h-258v-185q-139 -45 -222 -170t-83 -321 v-41z" />
<glyph unicode="&#xa3;" horiz-adv-x="1110" d="M20 211q0 -113 75 -171t192 -58q78 0 139 25.5t109 72.5q49 -41 115.5 -70.5t164.5 -29.5q92 0 153.5 25.5t108.5 60.5l-116 247q-25 -18 -64 -38.5t-104 -20.5q-43 0 -79 10t-71 27q10 51 10 100q0 66 -16 141h213v220h-272q-14 53 -23.5 105t-9.5 106v12q0 68 41 106.5 t98 38.5t96 -20.5t86 -55.5l168 240q-66 51 -156 88t-214 37q-109 0 -194 -29.5t-144.5 -83t-90 -128t-30.5 -164.5v-15q0 -57 15.5 -117.5t37.5 -119.5h-121v-220h209q23 -59 37 -106q-25 6 -50.5 10t-53.5 4q-113 0 -186 -62.5t-73 -166.5zM231 205q0 18 13.5 31.5 t46.5 13.5q25 0 46 -8.5t44 -22.5q-16 -35 -41.5 -47t-50.5 -12q-29 0 -43.5 13t-14.5 32z" />
<glyph unicode="&#xa5;" horiz-adv-x="1107" d="M8 1393l299 -697h-180v-213h268v-90h-268v-213h268v-180h320v180h248v213h-248v90h248v213h-162l299 697h-332l-160 -439q-10 -27 -18 -56.5t-14.5 -55t-10.5 -44t-4 -20.5q0 4 -4 22.5t-9 43t-13.5 53.5t-18.5 57l-158 439h-350z" />
<glyph unicode="&#xa6;" horiz-adv-x="489" d="M66 625q0 -39 14 -71t38.5 -55.5t57.5 -36.5t70 -13q70 0 125 49t55 127q0 39 -15.5 72.5t-40 56t-57 36t-67.5 13.5q-72 0 -126 -49t-54 -129z" />
<glyph unicode="&#xa7;" horiz-adv-x="1005" d="M29 -184q57 -47 155.5 -85t251.5 -38q111 0 192 27.5t134 76.5t79.5 114.5t26.5 141.5v17q0 74 -28.5 133t-79.5 106q98 41 142 110.5t44 151.5v17q0 106 -65.5 179t-171.5 124l-177 84q-41 20 -61 39.5t-20 48.5v6q0 29 25.5 49.5t78.5 20.5t98 -21.5t86 -50.5l146 240 q-53 41 -142.5 73.5t-205.5 32.5q-186 0 -298 -93t-112 -259v-10q0 -82 28.5 -146.5t92.5 -118.5q-98 -33 -147.5 -97t-49.5 -154v-11q0 -88 47 -160.5t164 -127.5l131 -62q70 -33 109 -55.5t39 -61.5v-10q0 -39 -34 -57.5t-93 -18.5q-68 0 -122 20.5t-102 61.5zM352 580v8 q0 31 25.5 54.5t85.5 25.5l80 -37q59 -29 80.5 -51.5t21.5 -53.5v-8q0 -31 -28.5 -54.5t-75.5 -31.5l-86 41q-59 29 -81 53.5t-22 53.5z" />
<glyph unicode="&#xa8;" horiz-adv-x="1024" d="M170 1606q0 -33 13.5 -61.5t35 -49t49 -33t58.5 -12.5q61 0 107 45t46 111t-46 110.5t-107 44.5q-31 0 -58.5 -12t-49 -32.5t-35 -49.5t-13.5 -61zM545 1606q0 -33 13 -61.5t34.5 -49t49 -33t56.5 -12.5q61 0 108.5 45t47.5 111t-47 110.5t-109 44.5q-29 0 -56.5 -12 t-49 -32.5t-34.5 -49.5t-13 -61z" />
<glyph unicode="&#xa9;" horiz-adv-x="1320" d="M53 696q0 -131 48.5 -242.5t131 -192.5t193 -126t233.5 -45t234 45t193.5 126t132 192.5t49.5 242.5t-49.5 243t-132 192.5t-193.5 126t-234 45.5t-233.5 -45.5t-193 -126t-131 -192.5t-48.5 -243zM178 696q0 104 38 193.5t103.5 154t152.5 101.5t187 37t188.5 -37 t154 -101.5t103.5 -153.5t38 -194q0 -104 -38 -193t-103.5 -153.5t-154 -101.5t-188.5 -37t-187 37t-152.5 101.5t-103.5 153.5t-38 193zM287 696q0 -80 29.5 -148.5t82 -117.5t120 -76.5t145.5 -27.5q104 0 180 40t123 111l-197 148q-16 -20 -38.5 -36t-61.5 -16 q-53 0 -86 34t-33 89q0 57 31.5 92t85.5 35q35 0 55 -13t37 -38l192 156q-47 70 -118.5 106.5t-169.5 36.5q-78 0 -145.5 -28.5t-120 -79t-82 -119t-29.5 -148.5z" />
<glyph unicode="&#xaa;" horiz-adv-x="819" d="M35 539h254l18 65h189l20 -65h268l-350 864h-47zM354 766l13 41q14 47 23 92l11 55q2 -10 11.5 -56t23.5 -91l13 -41h-95z" />
<glyph unicode="&#xab;" horiz-adv-x="868" d="M39 502l127 -361h283l-130 369l130 364h-283l-127 -356v-16zM428 502l127 -361h283l-129 369l129 364h-283l-127 -356v-16z" />
<glyph unicode="&#xac;" horiz-adv-x="489" d="M66 625q0 -39 14 -71t38.5 -55.5t57.5 -36.5t70 -13q70 0 125 49t55 127q0 39 -15.5 72.5t-40 56t-57 36t-67.5 13.5q-72 0 -126 -49t-54 -129z" />
<glyph unicode="&#xad;" horiz-adv-x="569" d="M63 440h445v281h-445v-281z" />
<glyph unicode="&#xae;" horiz-adv-x="800" d="M53 1069q0 -74 28 -136.5t75 -107.5t109 -70.5t134 -25.5t135.5 25.5t110.5 70.5t75 107.5t28 136.5q0 76 -28 138.5t-75 107.5t-110.5 70.5t-135.5 25.5t-134 -25.5t-109 -70.5t-75 -107.5t-28 -138.5zM135 1069q0 121 74 194.5t190 73.5q57 0 106.5 -19.5t85.5 -55 t56.5 -85t20.5 -108.5q0 -57 -20.5 -105.5t-56.5 -84t-85.5 -55t-106.5 -19.5q-117 0 -190.5 73.5t-73.5 190.5zM256 891h117v88h18l49 -88h125l-63 113q31 18 49 47.5t18 68.5q0 49 -43 92t-120 43h-150v-364zM373 1073v80h30q16 0 32 -8t16 -31q0 -29 -15.5 -35t-32.5 -6 h-30z" />
<glyph unicode="&#xaf;" horiz-adv-x="1024" d="M272 1464h480v234h-480v-234z" />
<glyph unicode="&#xb0;" horiz-adv-x="600" d="M31 1145q0 -55 21.5 -103.5t58 -84t86 -56t104.5 -20.5t104.5 20.5t86 56t57 84t20.5 103.5t-20.5 104t-57 84t-86 55.5t-104.5 20.5t-104.5 -20.5t-86 -55.5t-58 -84t-21.5 -104zM215 1145q0 43 23.5 69.5t62.5 26.5q37 0 60.5 -26.5t23.5 -69.5q0 -47 -23.5 -72.5 t-60.5 -25.5q-39 0 -62.5 25.5t-23.5 72.5z" />
<glyph unicode="&#xb1;" horiz-adv-x="489" d="M66 625q0 -39 14 -71t38.5 -55.5t57.5 -36.5t70 -13q70 0 125 49t55 127q0 39 -15.5 72.5t-40 56t-57 36t-67.5 13.5q-72 0 -126 -49t-54 -129z" />
<glyph unicode="&#xb2;" horiz-adv-x="489" d="M66 625q0 -39 14 -71t38.5 -55.5t57.5 -36.5t70 -13q70 0 125 49t55 127q0 39 -15.5 72.5t-40 56t-57 36t-67.5 13.5q-72 0 -126 -49t-54 -129z" />
<glyph unicode="&#xb3;" horiz-adv-x="489" d="M66 625q0 -39 14 -71t38.5 -55.5t57.5 -36.5t70 -13q70 0 125 49t55 127q0 39 -15.5 72.5t-40 56t-57 36t-67.5 13.5q-72 0 -126 -49t-54 -129z" />
<glyph unicode="&#xb4;" horiz-adv-x="1024" d="M391 1464h244l145 291h-327z" />
<glyph unicode="&#xb6;" horiz-adv-x="1054" d="M39 999q0 -70 26.5 -136t73.5 -117.5t113.5 -84t146.5 -34.5v-627h219v1182h132v-1182h219v1393h-557q-82 0 -150.5 -31t-118 -83t-77 -119.5t-27.5 -139.5v-21z" />
<glyph unicode="&#xb7;" horiz-adv-x="475" d="M57 625q0 -39 14.5 -71t39 -55.5t57.5 -36.5t70 -13q70 0 125 49t55 127q0 39 -15.5 72.5t-40 56t-57.5 36t-67 13.5q-72 0 -126.5 -49t-54.5 -129z" />
<glyph unicode="&#xb8;" horiz-adv-x="1024" d="M338 -379q31 -23 72 -36t96 -13q90 0 148.5 50t58.5 138q0 80 -40 122t-98 52v66h-139v-174h51q18 0 34 -13.5t16 -39.5q0 -29 -19.5 -42.5t-40.5 -13.5q-23 0 -38 7.5t-33 19.5z" />
<glyph unicode="&#xb9;" horiz-adv-x="489" d="M66 625q0 -39 14 -71t38.5 -55.5t57.5 -36.5t70 -13q70 0 125 49t55 127q0 39 -15.5 72.5t-40 56t-57 36t-67.5 13.5q-72 0 -126 -49t-54 -129z" />
<glyph unicode="&#xba;" horiz-adv-x="833" d="M45 956q0 -113 30.5 -194.5t83 -135t119 -79t138.5 -25.5t139.5 25.5t119.5 79t82.5 135.5t30.5 194v17q0 113 -30.5 194.5t-82.5 135t-120 79t-139 25.5q-72 0 -138.5 -25.5t-119 -79t-83 -135.5t-30.5 -194v-17zM309 958v13q0 106 25.5 162.5t81.5 56.5 q55 0 80.5 -56.5t25.5 -162.5v-13q0 -106 -25.5 -162.5t-80.5 -56.5t-81 56.5t-26 162.5z" />
<glyph unicode="&#xbb;" horiz-adv-x="868" d="M31 141h282l127 357v16l-127 360h-282l129 -368zM420 141h282l127 357v16l-127 360h-282l129 -368z" />
<glyph unicode="&#xbc;" horiz-adv-x="489" d="M66 625q0 -39 14 -71t38.5 -55.5t57.5 -36.5t70 -13q70 0 125 49t55 127q0 39 -15.5 72.5t-40 56t-57 36t-67.5 13.5q-72 0 -126 -49t-54 -129z" />
<glyph unicode="&#xbd;" horiz-adv-x="489" d="M66 625q0 -39 14 -71t38.5 -55.5t57.5 -36.5t70 -13q70 0 125 49t55 127q0 39 -15.5 72.5t-40 56t-57 36t-67.5 13.5q-72 0 -126 -49t-54 -129z" />
<glyph unicode="&#xbe;" horiz-adv-x="489" d="M66 625q0 -39 14 -71t38.5 -55.5t57.5 -36.5t70 -13q70 0 125 49t55 127q0 39 -15.5 72.5t-40 56t-57 36t-67.5 13.5q-72 0 -126 -49t-54 -129z" />
<glyph unicode="&#xbf;" horiz-adv-x="841" d="M43 391q0 -195 118 -302t335 -107q113 0 197.5 35.5t135.5 88.5l-182 228q-23 -27 -55.5 -45.5t-77.5 -18.5q-55 0 -95 38t-40 122v12q0 86 48 127t126 41h74v351h-297v-148q-133 -35 -210 -129t-77 -272v-21zM305 1233q0 -41 15.5 -74t40 -55.5t57.5 -35.5t67 -13 q72 0 126.5 49t54.5 129q0 39 -14.5 70.5t-39 55t-57.5 37t-70 13.5q-70 0 -125 -49t-55 -127z" />
<glyph unicode="&#xc0;" d="M8 0h311l37 117h363l37 -117h329l-514 1409h-45zM279 1755l145 -291h244l-62 291h-327zM434 362l66 201q14 47 24.5 90t12.5 47q2 -4 12 -47t26 -90l64 -201h-205z" />
<glyph unicode="&#xc1;" d="M8 0h311l37 117h363l37 -117h329l-514 1409h-45zM426 1464h244l145 291h-327zM434 362l66 201q14 47 24.5 90t12.5 47q2 -4 12 -47t26 -90l64 -201h-205z" />
<glyph unicode="&#xc2;" d="M8 0h311l37 117h363l37 -117h329l-514 1409h-45zM262 1464h217l68 76l66 -76h217l-269 348h-30zM434 362l66 201q14 47 24.5 90t12.5 47q2 -4 12 -47t26 -90l64 -201h-205z" />
<glyph unicode="&#xc3;" d="M8 0h311l37 117h363l37 -117h329l-514 1409h-45zM234 1505l190 -22q6 23 16.5 38t32.5 15q12 0 31.5 -9t44.5 -19.5t53.5 -19.5t59.5 -9q33 0 65.5 14t59 45t46 81t27.5 124l-190 22q-6 -23 -16.5 -38t-32.5 -15q-12 0 -31.5 9.5t-44.5 19.5t-53.5 19t-59.5 9 q-35 0 -66.5 -13t-58 -45t-46 -82t-27.5 -124zM434 362l66 201q14 47 24.5 90t12.5 47q2 -4 12 -47t26 -90l64 -201h-205z" />
<glyph unicode="&#xc4;" d="M8 0h311l37 117h363l37 -117h329l-514 1409h-45zM72 1253q0 -33 13 -61.5t34.5 -49t49 -32.5t58.5 -12q61 0 107.5 45t46.5 110q0 66 -46 111t-108 45q-31 0 -58.5 -12.5t-49 -33t-34.5 -49t-13 -61.5zM434 362l66 201q14 47 24.5 90t12.5 47q2 -4 12 -47t26 -90l64 -201 h-205zM713 1253q0 -33 13 -61.5t34.5 -49t49 -32.5t56.5 -12q61 0 108.5 45t47.5 110q0 66 -47 111t-109 45q-29 0 -56.5 -12.5t-49 -33t-34.5 -49t-13 -61.5z" />
<glyph unicode="&#xc5;" d="M8 0h311l37 117h363l37 -117h329l-471 1288q76 23 120 80t44 129q0 90 -63.5 154.5t-167.5 64.5t-168 -64.5t-64 -154.5q0 -74 45.5 -132t120.5 -77zM434 362l66 201q14 47 24.5 90t12.5 47q2 -4 12 -47t26 -90l64 -201h-205zM473 1497q0 35 20.5 58.5t53.5 23.5 t53.5 -23.5t20.5 -58.5t-20.5 -58.5t-53.5 -23.5t-53.5 23.5t-20.5 58.5z" />
<glyph unicode="&#xc6;" horiz-adv-x="1544" d="M6 0h344l51 117h338v-117h756v279h-428v182h332v268h-332v385h414v279h-797zM512 362l137 302q16 37 32.5 79.5t31 79.5t23.5 63.5t12 28.5q0 -2 -1.5 -28.5t-3.5 -66.5t-3 -87t-1 -88v-283h-227z" />
<glyph unicode="&#xc7;" horiz-adv-x="972" d="M43 676q0 -145 28.5 -258t81 -196t126 -137t161.5 -79v-180h52q18 0 33.5 -13.5t15.5 -39.5q0 -29 -19.5 -42.5t-40.5 -13.5q-23 0 -38 7.5t-33 19.5l-68 -123q31 -23 72 -36t96 -13q90 0 148.5 50t58.5 138q0 80 -40 122t-97 52v50q10 -2 20 -2h21q115 0 199.5 31.5 t137.5 70.5l-145 250q-31 -20 -74 -40t-104 -20q-53 0 -99.5 24t-80 74t-53 128t-19.5 186v23q0 106 20.5 183t55.5 126t81 72.5t99 23.5q59 0 97 -18.5t65 -36.5l141 260q-47 35 -126 62.5t-183 27.5q-133 0 -242.5 -46t-186.5 -134t-119 -217t-42 -295v-41z" />
<glyph unicode="&#xc8;" horiz-adv-x="890" d="M86 0h756v279h-428v182h331v268h-331v385h413v279h-741v-1393zM207 1755l145 -291h244l-62 291h-327z" />
<glyph unicode="&#xc9;" horiz-adv-x="890" d="M86 0h756v279h-428v182h331v268h-331v385h413v279h-741v-1393zM354 1464h244l145 291h-327z" />
<glyph unicode="&#xca;" horiz-adv-x="890" d="M86 0h756v279h-428v182h331v268h-331v385h413v279h-741v-1393zM190 1464h217l68 76l66 -76h217l-269 348h-30z" />
<glyph unicode="&#xcb;" horiz-adv-x="890" d="M86 0h756v279h-428v182h331v268h-331v385h413v279h-741v-1393zM133 1606q0 -33 13.5 -61.5t35 -49t49 -33t58.5 -12.5q61 0 107 45t46 111t-46 110.5t-107 44.5q-31 0 -58.5 -12t-49 -32.5t-35 -49.5t-13.5 -61zM508 1606q0 -33 13 -61.5t34.5 -49t49 -33t56.5 -12.5 q61 0 108.5 45t47.5 111t-47 110.5t-109 44.5q-29 0 -56.5 -12t-49 -32.5t-34.5 -49.5t-13 -61z" />
<glyph unicode="&#xcc;" horiz-adv-x="516" d="M92 0h332v1393h-332v-1393zM94 1755l145 -291h244l-62 291h-327z" />
<glyph unicode="&#xcd;" horiz-adv-x="516" d="M92 0h332v1393h-332v-1393zM139 1464h244l145 291h-327z" />
<glyph unicode="&#xce;" horiz-adv-x="516" d="M92 0h332v1393h-332v-1393zM94 1464h217l68 76l66 -76h217l-269 348h-30z" />
<glyph unicode="&#xcf;" horiz-adv-x="516" d="M92 0h332v1393h-332v-1393zM94 1606q0 -33 13.5 -61.5t35 -49t49 -33t58.5 -12.5q61 0 107 45t46 111t-46 110.5t-107 44.5q-31 0 -58.5 -12t-49 -32.5t-35 -49.5t-13.5 -61zM469 1606q0 -33 13 -61.5t34.5 -49t49 -33t56.5 -12.5q61 0 108.5 45t47.5 111t-47 110.5 t-109 44.5q-29 0 -56.5 -12t-49 -32.5t-34.5 -49.5t-13 -61z" />
<glyph unicode="&#xd0;" horiz-adv-x="1120" d="M2 461h84v-461h410q135 0 242.5 44t184 128t117.5 209t41 285v61q0 166 -42 290t-118.5 208t-185 126t-239.5 42h-410v-664h-84v-268zM418 289v172h196v268h-196v375h57q125 0 195.5 -88t70.5 -297v-43q0 -207 -70.5 -297t-195.5 -90h-57z" />
<glyph unicode="&#xd1;" horiz-adv-x="1064" d="M86 0h299v424q0 43 -2 95t-3 84t-1 36l551 -655h49v1409h-299v-447q0 -33 1 -70.5t2 -69.5t2 -54l1 -21l-551 678h-49v-1409zM170 1505l190 -22q6 23 16.5 38t32.5 15q12 0 31.5 -9t44.5 -19.5t53.5 -19.5t59.5 -9q33 0 65.5 14t59 45t46 81t27.5 124l-190 22 q-6 -23 -16.5 -38t-32.5 -15q-12 0 -31.5 9.5t-44.5 19.5t-53.5 19t-59.5 9q-35 0 -66.5 -13t-58 -45t-46 -82t-27.5 -124z" />
<glyph unicode="&#xd2;" horiz-adv-x="1196" d="M43 676q0 -180 45 -311.5t122 -216.5t177 -125.5t211 -40.5t211 40.5t177 125.5t122 216.5t45 311.5v41q0 178 -45 308t-122 216t-177 127t-211 41t-211 -41t-177 -127t-122 -216t-45 -308v-41zM330 1755l145 -291h244l-62 291h-327zM383 680v33q0 215 61.5 312t153.5 97 t153.5 -97t61.5 -312v-33q0 -109 -16.5 -186.5t-45 -128t-68.5 -74t-85 -23.5q-47 0 -86 23.5t-67.5 74t-45 128t-16.5 186.5z" />
<glyph unicode="&#xd3;" horiz-adv-x="1196" d="M43 676q0 -180 45 -311.5t122 -216.5t177 -125.5t211 -40.5t211 40.5t177 125.5t122 216.5t45 311.5v41q0 178 -45 308t-122 216t-177 127t-211 41t-211 -41t-177 -127t-122 -216t-45 -308v-41zM383 680v33q0 215 61.5 312t153.5 97t153.5 -97t61.5 -312v-33 q0 -109 -16.5 -186.5t-45 -128t-68.5 -74t-85 -23.5q-47 0 -86 23.5t-67.5 74t-45 128t-16.5 186.5zM477 1464h244l145 291h-327z" />
<glyph unicode="&#xd4;" horiz-adv-x="1196" d="M43 676q0 -180 45 -311.5t122 -216.5t177 -125.5t211 -40.5t211 40.5t177 125.5t122 216.5t45 311.5v41q0 178 -45 308t-122 216t-177 127t-211 41t-211 -41t-177 -127t-122 -216t-45 -308v-41zM313 1464h217l68 76l66 -76h217l-269 348h-30zM383 680v33q0 215 61.5 312 t153.5 97t153.5 -97t61.5 -312v-33q0 -109 -16.5 -186.5t-45 -128t-68.5 -74t-85 -23.5q-47 0 -86 23.5t-67.5 74t-45 128t-16.5 186.5z" />
<glyph unicode="&#xd5;" horiz-adv-x="1196" d="M43 676q0 -180 45 -311.5t122 -216.5t177 -125.5t211 -40.5t211 40.5t177 125.5t122 216.5t45 311.5v41q0 178 -45 308t-122 216t-177 127t-211 41t-211 -41t-177 -127t-122 -216t-45 -308v-41zM285 1505l190 -22q6 23 16.5 38t32.5 15q12 0 31.5 -9t44.5 -19.5 t53.5 -19.5t59.5 -9q33 0 65.5 14t59 45t46 81t27.5 124l-190 22q-6 -23 -16.5 -38t-32.5 -15q-12 0 -31.5 9.5t-44.5 19.5t-53.5 19t-59.5 9q-35 0 -66.5 -13t-58 -45t-46 -82t-27.5 -124zM383 680v33q0 215 61.5 312t153.5 97t153.5 -97t61.5 -312v-33 q0 -109 -16.5 -186.5t-45 -128t-68.5 -74t-85 -23.5q-47 0 -86 23.5t-67.5 74t-45 128t-16.5 186.5z" />
<glyph unicode="&#xd6;" horiz-adv-x="1196" d="M43 676q0 -180 45 -311.5t122 -216.5t177 -125.5t211 -40.5t211 40.5t177 125.5t122 216.5t45 311.5v41q0 178 -45 308t-122 216t-177 127t-211 41t-211 -41t-177 -127t-122 -216t-45 -308v-41zM256 1606q0 -33 13.5 -61.5t35 -49t49 -33t58.5 -12.5q61 0 107 45t46 111 t-46 110.5t-107 44.5q-31 0 -58.5 -12t-49 -32.5t-35 -49.5t-13.5 -61zM383 680v33q0 215 61.5 312t153.5 97t153.5 -97t61.5 -312v-33q0 -109 -16.5 -186.5t-45 -128t-68.5 -74t-85 -23.5q-47 0 -86 23.5t-67.5 74t-45 128t-16.5 186.5zM631 1606q0 -33 13 -61.5t34.5 -49 t49 -33t56.5 -12.5q61 0 108.5 45t47.5 111t-47 110.5t-109 44.5q-29 0 -56.5 -12t-49 -32.5t-34.5 -49.5t-13 -61z" />
<glyph unicode="&#xd7;" horiz-adv-x="489" d="M66 625q0 -39 14 -71t38.5 -55.5t57.5 -36.5t70 -13q70 0 125 49t55 127q0 39 -15.5 72.5t-40 56t-57 36t-67.5 13.5q-72 0 -126 -49t-54 -129z" />
<glyph unicode="&#xd8;" horiz-adv-x="1196" d="M35 27l168 -113l102 154q66 -45 140.5 -65.5t152.5 -20.5q109 0 209 40.5t177 124.5t123 213t46 306v61q0 141 -29.5 250.5t-83.5 191.5l113 168l-166 113l-88 -133q-68 47 -144.5 69.5t-156.5 22.5q-109 0 -209 -41t-177 -125t-123 -212t-46 -304v-61q0 -145 31.5 -257 t85.5 -196zM381 600v55v68q0 211 62.5 307t154.5 96q86 0 137 -53l-350 -524q-4 25 -4 51zM467 311l344 516q2 -23 3 -44t1 -46v-67q0 -211 -62.5 -308.5t-154.5 -97.5q-82 0 -131 47z" />
<glyph unicode="&#xd9;" horiz-adv-x="1105" d="M78 455q0 -119 33.5 -208t96 -148.5t151 -89t194.5 -29.5t193.5 29.5t149.5 89t97 148.5t35 208v938h-332v-938q0 -86 -31.5 -133.5t-111.5 -47.5t-111.5 47.5t-31.5 133.5v938h-332v-938zM285 1755l145 -291h244l-62 291h-327z" />
<glyph unicode="&#xda;" horiz-adv-x="1105" d="M78 455q0 -119 33.5 -208t96 -148.5t151 -89t194.5 -29.5t193.5 29.5t149.5 89t97 148.5t35 208v938h-332v-938q0 -86 -31.5 -133.5t-111.5 -47.5t-111.5 47.5t-31.5 133.5v938h-332v-938zM432 1464h244l145 291h-327z" />
<glyph unicode="&#xdb;" horiz-adv-x="1105" d="M78 455q0 -119 33.5 -208t96 -148.5t151 -89t194.5 -29.5t193.5 29.5t149.5 89t97 148.5t35 208v938h-332v-938q0 -86 -31.5 -133.5t-111.5 -47.5t-111.5 47.5t-31.5 133.5v938h-332v-938zM268 1464h217l68 76l66 -76h217l-269 348h-30z" />
<glyph unicode="&#xdc;" horiz-adv-x="1105" d="M78 455q0 -119 33.5 -208t96 -148.5t151 -89t194.5 -29.5t193.5 29.5t149.5 89t97 148.5t35 208v938h-332v-938q0 -86 -31.5 -133.5t-111.5 -47.5t-111.5 47.5t-31.5 133.5v938h-332v-938zM211 1606q0 -33 13.5 -61.5t35 -49t49 -33t58.5 -12.5q61 0 107 45t46 111 t-46 110.5t-107 44.5q-31 0 -58.5 -12t-49 -32.5t-35 -49.5t-13.5 -61zM586 1606q0 -33 13 -61.5t34.5 -49t49 -33t56.5 -12.5q61 0 108.5 45t47.5 111t-47 110.5t-109 44.5q-29 0 -56.5 -12t-49 -32.5t-34.5 -49.5t-13 -61z" />
<glyph unicode="&#xdd;" horiz-adv-x="1107" d="M8 1393l381 -951v-442h332v451l379 942h-328l-160 -441q-12 -37 -24.5 -81t-19.5 -70.5t-7 -30.5q0 4 -6 30.5t-18.5 70.5t-24.5 81l-158 441h-346zM432 1464h244l145 291h-327z" />
<glyph unicode="&#xde;" horiz-adv-x="1040" d="M86 0h332v176h80q113 0 206 33t158.5 98.5t102 162.5t36.5 226v17q0 129 -36.5 225t-103 161.5t-159 98.5t-204.5 33h-80v162h-332v-1393zM418 461v481h65q86 0 137.5 -62.5t51.5 -170.5v-11q0 -111 -50.5 -174t-138.5 -63h-65z" />
<glyph unicode="&#xdf;" horiz-adv-x="1785" d="M4 106q29 -25 65.5 -48t86 -41.5t112 -30t142.5 -11.5q117 0 199.5 33t137 88.5t79 126t24.5 146.5v16q0 115 -53.5 206t-151.5 173l-176 147q-53 43 -72.5 70t-19.5 61v5q0 29 24.5 56t83.5 27q53 0 98.5 -21.5t86.5 -49.5l143 254q-53 41 -140 70.5t-204 29.5 q-201 0 -306.5 -101.5t-105.5 -273.5v-10q0 -113 48.5 -200t140.5 -164l166 -140q55 -47 82.5 -77.5t27.5 -79.5v-9q0 -37 -33.5 -66.5t-105.5 -29.5q-61 0 -112.5 26.5t-104.5 63.5zM887 106q29 -25 65.5 -48t85.5 -41.5t111.5 -30t142.5 -11.5q117 0 200 33t137 88.5 t79 126t25 146.5v16q0 115 -53.5 206t-151.5 173l-176 147q-53 43 -72.5 70t-19.5 61v5q0 29 24.5 56t83.5 27q53 0 98 -21.5t86 -49.5l144 254q-53 41 -140.5 70.5t-203.5 29.5q-201 0 -306.5 -101.5t-105.5 -273.5v-10q0 -113 48 -200t140 -164l166 -140q55 -47 83 -77.5 t28 -79.5v-9q0 -37 -34 -66.5t-105 -29.5q-61 0 -112.5 26.5t-104.5 63.5z" />
<glyph unicode="&#xe0;" d="M8 0h311l37 117h363l37 -117h329l-514 1409h-45zM279 1755l145 -291h244l-62 291h-327zM434 362l66 201q14 47 24.5 90t12.5 47q2 -4 12 -47t26 -90l64 -201h-205z" />
<glyph unicode="&#xe1;" d="M8 0h311l37 117h363l37 -117h329l-514 1409h-45zM426 1464h244l145 291h-327zM434 362l66 201q14 47 24.5 90t12.5 47q2 -4 12 -47t26 -90l64 -201h-205z" />
<glyph unicode="&#xe2;" d="M8 0h311l37 117h363l37 -117h329l-514 1409h-45zM262 1464h217l68 76l66 -76h217l-269 348h-30zM434 362l66 201q14 47 24.5 90t12.5 47q2 -4 12 -47t26 -90l64 -201h-205z" />
<glyph unicode="&#xe3;" d="M8 0h311l37 117h363l37 -117h329l-514 1409h-45zM234 1505l190 -22q6 23 16.5 38t32.5 15q12 0 31.5 -9t44.5 -19.5t53.5 -19.5t59.5 -9q33 0 65.5 14t59 45t46 81t27.5 124l-190 22q-6 -23 -16.5 -38t-32.5 -15q-12 0 -31.5 9.5t-44.5 19.5t-53.5 19t-59.5 9 q-35 0 -66.5 -13t-58 -45t-46 -82t-27.5 -124zM434 362l66 201q14 47 24.5 90t12.5 47q2 -4 12 -47t26 -90l64 -201h-205z" />
<glyph unicode="&#xe4;" d="M8 0h311l37 117h363l37 -117h329l-514 1409h-45zM72 1253q0 -33 13 -61.5t34.5 -49t49 -32.5t58.5 -12q61 0 107.5 45t46.5 110q0 66 -46 111t-108 45q-31 0 -58.5 -12.5t-49 -33t-34.5 -49t-13 -61.5zM434 362l66 201q14 47 24.5 90t12.5 47q2 -4 12 -47t26 -90l64 -201 h-205zM713 1253q0 -33 13 -61.5t34.5 -49t49 -32.5t56.5 -12q61 0 108.5 45t47.5 110q0 66 -47 111t-109 45q-29 0 -56.5 -12.5t-49 -33t-34.5 -49t-13 -61.5z" />
<glyph unicode="&#xe5;" d="M8 0h311l37 117h363l37 -117h329l-471 1288q76 23 120 80t44 129q0 90 -63.5 154.5t-167.5 64.5t-168 -64.5t-64 -154.5q0 -74 45.5 -132t120.5 -77zM434 362l66 201q14 47 24.5 90t12.5 47q2 -4 12 -47t26 -90l64 -201h-205zM473 1497q0 35 20.5 58.5t53.5 23.5 t53.5 -23.5t20.5 -58.5t-20.5 -58.5t-53.5 -23.5t-53.5 23.5t-20.5 58.5z" />
<glyph unicode="&#xe6;" horiz-adv-x="1544" d="M6 0h344l51 117h338v-117h756v279h-428v182h332v268h-332v385h414v279h-797zM512 362l137 302q16 37 32.5 79.5t31 79.5t23.5 63.5t12 28.5q0 -2 -1.5 -28.5t-3.5 -66.5t-3 -87t-1 -88v-283h-227z" />
<glyph unicode="&#xe7;" horiz-adv-x="972" d="M43 676q0 -145 28.5 -258t81 -196t126 -137t161.5 -79v-180h52q18 0 33.5 -13.5t15.5 -39.5q0 -29 -19.5 -42.5t-40.5 -13.5q-23 0 -38 7.5t-33 19.5l-68 -123q31 -23 72 -36t96 -13q90 0 148.5 50t58.5 138q0 80 -40 122t-97 52v50q10 -2 20 -2h21q115 0 199.5 31.5 t137.5 70.5l-145 250q-31 -20 -74 -40t-104 -20q-53 0 -99.5 24t-80 74t-53 128t-19.5 186v23q0 106 20.5 183t55.5 126t81 72.5t99 23.5q59 0 97 -18.5t65 -36.5l141 260q-47 35 -126 62.5t-183 27.5q-133 0 -242.5 -46t-186.5 -134t-119 -217t-42 -295v-41z" />
<glyph unicode="&#xe8;" horiz-adv-x="890" d="M86 0h756v279h-428v182h331v268h-331v385h413v279h-741v-1393zM207 1755l145 -291h244l-62 291h-327z" />
<glyph unicode="&#xe9;" horiz-adv-x="890" d="M86 0h756v279h-428v182h331v268h-331v385h413v279h-741v-1393zM354 1464h244l145 291h-327z" />
<glyph unicode="&#xea;" horiz-adv-x="890" d="M86 0h756v279h-428v182h331v268h-331v385h413v279h-741v-1393zM190 1464h217l68 76l66 -76h217l-269 348h-30z" />
<glyph unicode="&#xeb;" horiz-adv-x="890" d="M86 0h756v279h-428v182h331v268h-331v385h413v279h-741v-1393zM133 1606q0 -33 13.5 -61.5t35 -49t49 -33t58.5 -12.5q61 0 107 45t46 111t-46 110.5t-107 44.5q-31 0 -58.5 -12t-49 -32.5t-35 -49.5t-13.5 -61zM508 1606q0 -33 13 -61.5t34.5 -49t49 -33t56.5 -12.5 q61 0 108.5 45t47.5 111t-47 110.5t-109 44.5q-29 0 -56.5 -12t-49 -32.5t-34.5 -49.5t-13 -61z" />
<glyph unicode="&#xec;" horiz-adv-x="516" d="M92 0h332v1393h-332v-1393zM94 1806l145 -291h244l-62 291h-327z" />
<glyph unicode="&#xed;" horiz-adv-x="516" d="M92 0h332v1393h-332v-1393zM139 1515h244l145 291h-327z" />
<glyph unicode="&#xee;" horiz-adv-x="516" d="M92 0h332v1393h-332v-1393zM94 1515h217l68 76l66 -76h217l-269 348h-30z" />
<glyph unicode="&#xef;" horiz-adv-x="516" d="M92 0h332v1393h-332v-1393zM94 1657q0 -33 13.5 -61.5t35 -49t49 -33t58.5 -12.5q61 0 107 45t46 111t-46 110.5t-107 44.5q-31 0 -58.5 -12t-49 -32.5t-35 -49.5t-13.5 -61zM469 1657q0 -33 13 -61.5t34.5 -49t49 -33t56.5 -12.5q61 0 108.5 45t47.5 111t-47 110.5 t-109 44.5q-29 0 -56.5 -12t-49 -32.5t-34.5 -49.5t-13 -61z" />
<glyph unicode="&#xf0;" horiz-adv-x="1120" d="M2 461h84v-461h410q135 0 242.5 44t184 128t117.5 209t41 285v61q0 166 -42 290t-118.5 208t-185 126t-239.5 42h-410v-664h-84v-268zM418 289v172h196v268h-196v375h57q125 0 195.5 -88t70.5 -297v-43q0 -207 -70.5 -297t-195.5 -90h-57z" />
<glyph unicode="&#xf1;" horiz-adv-x="1064" d="M86 0h299v424q0 43 -2 95t-3 84t-1 36l551 -655h49v1409h-299v-447q0 -33 1 -70.5t2 -69.5t2 -54l1 -21l-551 678h-49v-1409zM170 1505l190 -22q6 23 16.5 38t32.5 15q12 0 31.5 -9t44.5 -19.5t53.5 -19.5t59.5 -9q33 0 65.5 14t59 45t46 81t27.5 124l-190 22 q-6 -23 -16.5 -38t-32.5 -15q-12 0 -31.5 9.5t-44.5 19.5t-53.5 19t-59.5 9q-35 0 -66.5 -13t-58 -45t-46 -82t-27.5 -124z" />
<glyph unicode="&#xf2;" horiz-adv-x="1196" d="M43 676q0 -180 45 -311.5t122 -216.5t177 -125.5t211 -40.5t211 40.5t177 125.5t122 216.5t45 311.5v41q0 178 -45 308t-122 216t-177 127t-211 41t-211 -41t-177 -127t-122 -216t-45 -308v-41zM330 1755l145 -291h244l-62 291h-327zM383 680v33q0 215 61.5 312t153.5 97 t153.5 -97t61.5 -312v-33q0 -109 -16.5 -186.5t-45 -128t-68.5 -74t-85 -23.5q-47 0 -86 23.5t-67.5 74t-45 128t-16.5 186.5z" />
<glyph unicode="&#xf3;" horiz-adv-x="1196" d="M43 676q0 -180 45 -311.5t122 -216.5t177 -125.5t211 -40.5t211 40.5t177 125.5t122 216.5t45 311.5v41q0 178 -45 308t-122 216t-177 127t-211 41t-211 -41t-177 -127t-122 -216t-45 -308v-41zM383 680v33q0 215 61.5 312t153.5 97t153.5 -97t61.5 -312v-33 q0 -109 -16.5 -186.5t-45 -128t-68.5 -74t-85 -23.5q-47 0 -86 23.5t-67.5 74t-45 128t-16.5 186.5zM477 1464h244l145 291h-327z" />
<glyph unicode="&#xf4;" horiz-adv-x="1196" d="M43 676q0 -180 45 -311.5t122 -216.5t177 -125.5t211 -40.5t211 40.5t177 125.5t122 216.5t45 311.5v41q0 178 -45 308t-122 216t-177 127t-211 41t-211 -41t-177 -127t-122 -216t-45 -308v-41zM313 1464h217l68 76l66 -76h217l-269 348h-30zM383 680v33q0 215 61.5 312 t153.5 97t153.5 -97t61.5 -312v-33q0 -109 -16.5 -186.5t-45 -128t-68.5 -74t-85 -23.5q-47 0 -86 23.5t-67.5 74t-45 128t-16.5 186.5z" />
<glyph unicode="&#xf5;" horiz-adv-x="1196" d="M43 676q0 -180 45 -311.5t122 -216.5t177 -125.5t211 -40.5t211 40.5t177 125.5t122 216.5t45 311.5v41q0 178 -45 308t-122 216t-177 127t-211 41t-211 -41t-177 -127t-122 -216t-45 -308v-41zM285 1505l190 -22q6 23 16.5 38t32.5 15q12 0 31.5 -9t44.5 -19.5 t53.5 -19.5t59.5 -9q33 0 65.5 14t59 45t46 81t27.5 124l-190 22q-6 -23 -16.5 -38t-32.5 -15q-12 0 -31.5 9.5t-44.5 19.5t-53.5 19t-59.5 9q-35 0 -66.5 -13t-58 -45t-46 -82t-27.5 -124zM383 680v33q0 215 61.5 312t153.5 97t153.5 -97t61.5 -312v-33 q0 -109 -16.5 -186.5t-45 -128t-68.5 -74t-85 -23.5q-47 0 -86 23.5t-67.5 74t-45 128t-16.5 186.5z" />
<glyph unicode="&#xf6;" horiz-adv-x="1196" d="M43 676q0 -180 45 -311.5t122 -216.5t177 -125.5t211 -40.5t211 40.5t177 125.5t122 216.5t45 311.5v41q0 178 -45 308t-122 216t-177 127t-211 41t-211 -41t-177 -127t-122 -216t-45 -308v-41zM256 1606q0 -33 13.5 -61.5t35 -49t49 -33t58.5 -12.5q61 0 107 45t46 111 t-46 110.5t-107 44.5q-31 0 -58.5 -12t-49 -32.5t-35 -49.5t-13.5 -61zM383 680v33q0 215 61.5 312t153.5 97t153.5 -97t61.5 -312v-33q0 -109 -16.5 -186.5t-45 -128t-68.5 -74t-85 -23.5q-47 0 -86 23.5t-67.5 74t-45 128t-16.5 186.5zM631 1606q0 -33 13 -61.5t34.5 -49 t49 -33t56.5 -12.5q61 0 108.5 45t47.5 111t-47 110.5t-109 44.5q-29 0 -56.5 -12t-49 -32.5t-34.5 -49.5t-13 -61z" />
<glyph unicode="&#xf7;" horiz-adv-x="489" d="M66 625q0 -39 14 -71t38.5 -55.5t57.5 -36.5t70 -13q70 0 125 49t55 127q0 39 -15.5 72.5t-40 56t-57 36t-67.5 13.5q-72 0 -126 -49t-54 -129z" />
<glyph unicode="&#xf8;" horiz-adv-x="1196" d="M35 27l168 -113l102 154q66 -45 140.5 -65.5t152.5 -20.5q109 0 209 40.5t177 124.5t123 213t46 306v61q0 141 -29.5 250.5t-83.5 191.5l113 168l-166 113l-88 -133q-68 47 -144.5 69.5t-156.5 22.5q-109 0 -209 -41t-177 -125t-123 -212t-46 -304v-61q0 -145 31.5 -257 t85.5 -196zM381 600v55v68q0 211 62.5 307t154.5 96q86 0 137 -53l-350 -524q-4 25 -4 51zM467 311l344 516q2 -23 3 -44t1 -46v-67q0 -211 -62.5 -308.5t-154.5 -97.5q-82 0 -131 47z" />
<glyph unicode="&#xf9;" horiz-adv-x="1105" d="M78 455q0 -119 33.5 -208t96 -148.5t151 -89t194.5 -29.5t193.5 29.5t149.5 89t97 148.5t35 208v938h-332v-938q0 -86 -31.5 -133.5t-111.5 -47.5t-111.5 47.5t-31.5 133.5v938h-332v-938zM285 1755l145 -291h244l-62 291h-327z" />
<glyph unicode="&#xfa;" horiz-adv-x="1105" d="M78 455q0 -119 33.5 -208t96 -148.5t151 -89t194.5 -29.5t193.5 29.5t149.5 89t97 148.5t35 208v938h-332v-938q0 -86 -31.5 -133.5t-111.5 -47.5t-111.5 47.5t-31.5 133.5v938h-332v-938zM432 1464h244l145 291h-327z" />
<glyph unicode="&#xfb;" horiz-adv-x="1105" d="M78 455q0 -119 33.5 -208t96 -148.5t151 -89t194.5 -29.5t193.5 29.5t149.5 89t97 148.5t35 208v938h-332v-938q0 -86 -31.5 -133.5t-111.5 -47.5t-111.5 47.5t-31.5 133.5v938h-332v-938zM268 1464h217l68 76l66 -76h217l-269 348h-30z" />
<glyph unicode="&#xfc;" horiz-adv-x="1105" d="M78 455q0 -119 33.5 -208t96 -148.5t151 -89t194.5 -29.5t193.5 29.5t149.5 89t97 148.5t35 208v938h-332v-938q0 -86 -31.5 -133.5t-111.5 -47.5t-111.5 47.5t-31.5 133.5v938h-332v-938zM211 1606q0 -33 13.5 -61.5t35 -49t49 -33t58.5 -12.5q61 0 107 45t46 111 t-46 110.5t-107 44.5q-31 0 -58.5 -12t-49 -32.5t-35 -49.5t-13.5 -61zM586 1606q0 -33 13 -61.5t34.5 -49t49 -33t56.5 -12.5q61 0 108.5 45t47.5 111t-47 110.5t-109 44.5q-29 0 -56.5 -12t-49 -32.5t-34.5 -49.5t-13 -61z" />
<glyph unicode="&#xfd;" horiz-adv-x="1107" d="M8 1393l381 -951v-442h332v451l379 942h-328l-160 -441q-12 -37 -24.5 -81t-19.5 -70.5t-7 -30.5q0 4 -6 30.5t-18.5 70.5t-24.5 81l-158 441h-346zM432 1464h244l145 291h-327z" />
<glyph unicode="&#xfe;" horiz-adv-x="1040" d="M86 0h332v176h80q113 0 206 33t158.5 98.5t102 162.5t36.5 226v17q0 129 -36.5 225t-103 161.5t-159 98.5t-204.5 33h-80v162h-332v-1393zM418 461v481h65q86 0 137.5 -62.5t51.5 -170.5v-11q0 -111 -50.5 -174t-138.5 -63h-65z" />
<glyph unicode="&#xff;" horiz-adv-x="1107" d="M8 1393l381 -951v-442h332v451l379 942h-328l-160 -441q-12 -37 -24.5 -81t-19.5 -70.5t-7 -30.5q0 4 -6 30.5t-18.5 70.5t-24.5 81l-158 441h-346zM211 1606q0 -33 13.5 -61.5t35 -49t49 -33t58.5 -12.5q61 0 107 45t46 111t-46 110.5t-107 44.5q-31 0 -58.5 -12 t-49 -32.5t-35 -49.5t-13.5 -61zM586 1606q0 -33 13 -61.5t34.5 -49t49 -33t56.5 -12.5q61 0 108.5 45t47.5 111t-47 110.5t-109 44.5q-29 0 -56.5 -12t-49 -32.5t-34.5 -49.5t-13 -61z" />
<glyph unicode="&#x152;" horiz-adv-x="1511" d="M43 666q0 -166 42 -290t119 -208t185.5 -126t239.5 -42h833v279h-428v182h332v268h-332v385h414v279h-819q-135 0 -242.5 -44t-184.5 -128t-118 -209t-41 -285v-61zM383 674v43q0 207 70.5 297t195.5 90h58v-815h-58q-125 0 -195.5 88t-70.5 297z" />
<glyph unicode="&#x153;" horiz-adv-x="1511" d="M43 666q0 -166 42 -290t119 -208t185.5 -126t239.5 -42h833v279h-428v182h332v268h-332v385h414v279h-819q-135 0 -242.5 -44t-184.5 -128t-118 -209t-41 -285v-61zM383 674v43q0 207 70.5 297t195.5 90h58v-815h-58q-125 0 -195.5 88t-70.5 297z" />
<glyph unicode="&#x178;" horiz-adv-x="1107" d="M8 1393l381 -951v-442h332v451l379 942h-328l-160 -441q-12 -37 -24.5 -81t-19.5 -70.5t-7 -30.5q0 4 -6 30.5t-18.5 70.5t-24.5 81l-158 441h-346zM211 1606q0 -33 13.5 -61.5t35 -49t49 -33t58.5 -12.5q61 0 107 45t46 111t-46 110.5t-107 44.5q-31 0 -58.5 -12 t-49 -32.5t-35 -49.5t-13.5 -61zM586 1606q0 -33 13 -61.5t34.5 -49t49 -33t56.5 -12.5q61 0 108.5 45t47.5 111t-47 110.5t-109 44.5q-29 0 -56.5 -12t-49 -32.5t-34.5 -49.5t-13 -61z" />
<glyph unicode="&#x2c6;" horiz-adv-x="1024" d="M227 1464h217l68 76l66 -76h217l-269 348h-30z" />
<glyph unicode="&#x2dc;" horiz-adv-x="1024" d="M199 1505l190 -22q6 23 16.5 38t32.5 15q12 0 31.5 -9t44.5 -19.5t53.5 -19.5t59.5 -9q33 0 65.5 14t59 45t46 81t27.5 124l-190 22q-6 -23 -16.5 -38t-32.5 -15q-12 0 -31.5 9.5t-44.5 19.5t-53.5 19t-59.5 9q-35 0 -66.5 -13t-58 -45t-46 -82t-27.5 -124z" />
<glyph unicode="&#x2000;" horiz-adv-x="931" />
<glyph unicode="&#x2001;" horiz-adv-x="1863" />
<glyph unicode="&#x2002;" horiz-adv-x="931" />
<glyph unicode="&#x2003;" horiz-adv-x="1863" />
<glyph unicode="&#x2004;" horiz-adv-x="621" />
<glyph unicode="&#x2005;" horiz-adv-x="465" />
<glyph unicode="&#x2006;" horiz-adv-x="310" />
<glyph unicode="&#x2007;" horiz-adv-x="310" />
<glyph unicode="&#x2008;" horiz-adv-x="232" />
<glyph unicode="&#x2009;" horiz-adv-x="372" />
<glyph unicode="&#x200a;" horiz-adv-x="103" />
<glyph unicode="&#x2010;" horiz-adv-x="569" d="M63 440h445v281h-445v-281z" />
<glyph unicode="&#x2011;" horiz-adv-x="569" d="M63 440h445v281h-445v-281z" />
<glyph unicode="&#x2012;" horiz-adv-x="569" d="M63 440h445v281h-445v-281z" />
<glyph unicode="&#x2013;" horiz-adv-x="770" d="M74 463h622v248h-622v-248z" />
<glyph unicode="&#x2014;" horiz-adv-x="1200" d="M74 463h1052v248h-1052v-248z" />
<glyph unicode="&#x2018;" horiz-adv-x="419" d="M37 1042q0 -37 14.5 -66.5t39 -52t56 -34.5t66.5 -12q68 0 119 46t51 119q0 53 -26.5 94.5t-75.5 57.5l55 199h-135l-99 -164q-31 -53 -48 -96t-17 -91z" />
<glyph unicode="&#x2019;" horiz-adv-x="419" d="M37 1243q0 -53 26.5 -94t75.5 -57l-55 -199h135l98 164q31 53 48.5 96t17.5 90q0 37 -14.5 66.5t-39 52t-56 35t-66.5 12.5q-68 0 -119 -46t-51 -120z" />
<glyph unicode="&#x201a;" horiz-adv-x="419" d="M37 154q0 -53 26.5 -94.5t75.5 -57.5l-55 -199h135l98 164q31 53 48.5 96t17.5 91q0 37 -14.5 66.5t-39 52t-56 34.5t-66.5 12q-68 0 -119 -46t-51 -119z" />
<glyph unicode="&#x201c;" horiz-adv-x="835" d="M37 1042q0 -37 14.5 -66.5t39 -52t56 -34.5t66.5 -12q68 0 119 46t51 119q0 53 -26.5 94.5t-75.5 57.5l55 199h-135l-99 -164q-31 -53 -48 -96t-17 -91zM453 1042q0 -37 14 -66.5t38.5 -52t56.5 -34.5t67 -12q68 0 119 46t51 119q0 53 -27 94.5t-76 57.5l56 199h-136 l-98 -164q-31 -53 -48 -96t-17 -91z" />
<glyph unicode="&#x201d;" horiz-adv-x="835" d="M37 1243q0 -53 26.5 -94t75.5 -57l-55 -199h135l98 164q31 53 48.5 96t17.5 90q0 37 -14.5 66.5t-39 52t-56 35t-66.5 12.5q-68 0 -119 -46t-51 -120zM453 1243q0 -53 26.5 -94t75.5 -57l-55 -199h135l98 164q31 53 48.5 96t17.5 90q0 37 -14.5 66.5t-39 52t-56.5 35 t-66 12.5q-68 0 -119 -46t-51 -120z" />
<glyph unicode="&#x201e;" horiz-adv-x="835" d="M37 154q0 -53 26.5 -94.5t75.5 -57.5l-55 -199h135l98 164q31 53 48.5 96t17.5 91q0 37 -14.5 66.5t-39 52t-56 34.5t-66.5 12q-68 0 -119 -46t-51 -119zM453 154q0 -53 26.5 -94.5t75.5 -57.5l-55 -199h135l98 164q31 53 48.5 96t17.5 91q0 37 -14.5 66.5t-39 52 t-56.5 34.5t-66 12q-68 0 -119 -46t-51 -119z" />
<glyph unicode="&#x2022;" horiz-adv-x="581" d="M45 594q0 -53 20.5 -97t54.5 -78t78 -52.5t93 -18.5t93 18.5t78 52.5t54.5 78t20.5 97q0 51 -20.5 96t-54.5 79t-78 52.5t-93 18.5t-93 -18.5t-78 -52.5t-54.5 -79t-20.5 -96z" />
<glyph unicode="&#x2026;" horiz-adv-x="1372" d="M57 158q0 -39 14.5 -71t39 -55.5t57.5 -36.5t70 -13q70 0 125 49t55 127q0 39 -15.5 72.5t-40 56t-57.5 36t-67 13.5q-72 0 -126.5 -49t-54.5 -129zM506 158q0 -39 14.5 -71t39 -55.5t57 -36.5t69.5 -13q70 0 125 49t55 127q0 39 -15 72.5t-40 56t-57.5 36t-67.5 13.5 q-72 0 -126 -49t-54 -129zM954 158q0 -39 14.5 -71t39 -55.5t57.5 -36.5t70 -13q70 0 125 49t55 127q0 39 -15.5 72.5t-40 56t-57.5 36t-67 13.5q-72 0 -126.5 -49t-54.5 -129z" />
<glyph unicode="&#x202f;" horiz-adv-x="372" />
<glyph unicode="&#x2039;" horiz-adv-x="499" d="M39 502l147 -361h283l-150 369l150 364h-283l-147 -356v-16z" />
<glyph unicode="&#x203a;" horiz-adv-x="499" d="M31 141h282l148 357v16l-148 360h-282l149 -368z" />
<glyph unicode="&#x205f;" horiz-adv-x="465" />
<glyph unicode="&#x20ac;" horiz-adv-x="1071" d="M41 479h121q23 -129 73 -222t122.5 -154.5t164.5 -91t197 -29.5q115 0 200 31.5t138 70.5l-146 250q-31 -20 -73.5 -40t-104.5 -20q-78 0 -138 48.5t-89 156.5h252v160h-277v47v23v24h277v160h-256q29 115 92 168t143 53q59 0 97 -18.5t65 -36.5l141 260 q-47 35 -125.5 62.5t-183.5 27.5q-231 0 -381.5 -133t-191.5 -383h-117v-160h104v-16v-41v-37h-104v-160z" />
<glyph unicode="&#x2122;" horiz-adv-x="987" d="M35 1237h106v-311h160v311h102v156h-368v-156zM465 926h151v172l72 -76h14l70 76v-172h150v473h-21l-207 -209l-209 209h-20v-473z" />
<glyph unicode="&#x25fc;" horiz-adv-x="1392" d="M0 0v1393h1393v-1393h-1393z" />
<glyph unicode="&#xfb01;" horiz-adv-x="1363" d="M86 0h332v455h330v274h-330v385h385v279h-717v-1393zM940 0h332v1393h-332v-1393z" />
<glyph unicode="&#xfb02;" horiz-adv-x="1736" d="M86 0h332v455h330v274h-330v385h385v279h-717v-1393zM934 0h760v291h-428v1102h-332v-1393z" />
</font>
</defs>
</svg>
