<?xml version="1.0" standalone="no"?>
<!DOCTYPE svg PUBLIC "-//W3C//DTD SVG 1.1//EN" "http://www.w3.org/Graphics/SVG/1.1/DTD/svg11.dtd" >
<svg xmlns="http://www.w3.org/2000/svg">
<metadata></metadata>
<defs>
<font id="neutrafacecondensedpsmedium" horiz-adv-x="315" >
<font-face units-per-em="2048" ascent="1638" descent="-410" />
<missing-glyph horiz-adv-x="342" />
<glyph horiz-adv-x="0" />
<glyph unicode="&#xd;" horiz-adv-x="1024" />
<glyph unicode=" "  horiz-adv-x="342" />
<glyph unicode="&#x09;" horiz-adv-x="342" />
<glyph unicode="&#xa0;" horiz-adv-x="342" />
<glyph unicode="!" horiz-adv-x="389" d="M106 76q0 -37 27 -61.5t62 -24.5t61.5 24.5t26.5 61.5q0 39 -27 63.5t-61 24.5q-35 0 -62 -24.5t-27 -63.5zM127 1393l10 -1055h115l8 1055h-133z" />
<glyph unicode="&#x22;" horiz-adv-x="479" d="M61 1393l13 -359h104l15 359h-132zM287 1393l12 -359h104l15 359h-131z" />
<glyph unicode="#" horiz-adv-x="735" d="M43 537h107l-44 -220h107l43 220h143l-43 -220h107l43 220h137v100h-117l37 180h131v103h-110l45 225h-109l-45 -225h-141l45 225h-107l-45 -225h-133v-103h113l-37 -180h-127v-100zM276 637l37 180h142l-37 -180h-142z" />
<glyph unicode="$" horiz-adv-x="690" d="M27 104q47 -49 112.5 -81.5t159.5 -36.5v-224h96v230q115 16 178.5 93t63.5 194v16q0 94 -47 169t-139 142l-56 39v399q43 -6 73 -22t58 -39l64 94q-39 29 -85 50.5t-110 29.5v186h-96v-188q-98 -14 -161.5 -81.5t-63.5 -172.5v-12q0 -98 49 -164t127 -125l49 -35v-467 q-68 4 -114 32t-83 63zM195 893v10q0 55 29.5 91t74.5 48v-327q-51 41 -77.5 80t-26.5 98zM395 109v387q63 -53 90 -100.5t27 -104.5v-15q0 -63 -31.5 -107t-85.5 -60z" />
<glyph unicode="%" horiz-adv-x="1146" d="M43 889q0 -55 19.5 -102.5t52 -82t77 -54t93.5 -19.5q51 0 95 19.5t76.5 54t51 82t18.5 102.5v14q0 55 -18.5 102.5t-51 82t-76.5 54t-95 19.5q-49 0 -93.5 -19.5t-77 -54t-52 -82t-19.5 -102.5v-14zM156 891v10q0 72 35.5 116t93.5 44q59 0 95 -44t36 -116v-10 q0 -72 -36 -116t-95 -44q-57 0 -93 44t-36 116zM227 0h115l578 1145h-115zM618 242q0 -55 19.5 -102.5t52.5 -82t77 -54t95 -19.5q49 0 93 19.5t77 54t52.5 81.5t19.5 103v14q0 55 -19.5 101t-52.5 81t-77 54.5t-93 19.5q-51 0 -95 -19.5t-77 -53t-52.5 -81t-19.5 -102.5 v-14zM731 244v10q0 72 36 115t95 43q57 0 93 -43t36 -115v-10q0 -74 -36 -117t-93 -43q-59 0 -95 43t-36 117z" />
<glyph unicode="&#x26;" horiz-adv-x="972" d="M57 352q0 -88 28 -156.5t77 -115.5t115.5 -71.5t144.5 -24.5q92 0 169 33.5t136 101.5l74 -119h145l-145 236q35 74 52 168t17 210v97h-122v-95q0 -72 -7.5 -134t-19.5 -113l-252 409q98 68 154.5 151t56.5 199v17q0 113 -65.5 188.5t-174.5 75.5q-111 0 -180.5 -74.5 t-69.5 -199.5v-17q0 -68 30 -141.5t83 -161.5l10 -18q-55 -37 -102 -80t-81 -94.5t-53.5 -112.5t-19.5 -137v-21zM190 356v17q0 117 50.5 194.5t128.5 139.5l293 -480q-41 -66 -101.5 -97.5t-132.5 -31.5q-98 0 -168 67.5t-70 190.5zM315 1122v13q0 72 34 117.5t93 45.5 q53 0 85 -46t32 -113v-17q0 -82 -39 -144.5t-104 -113.5l-10 19q-41 66 -66 124t-25 115z" />
<glyph unicode="'" horiz-adv-x="253" d="M61 1393l13 -359h104l15 359h-132z" />
<glyph unicode="(" horiz-adv-x="442" d="M53 582q0 -154 22.5 -281t61.5 -231.5t89.5 -190t103.5 -155.5l84 59q-49 72 -91 154.5t-73 180t-49.5 213t-18.5 255.5v20q0 139 18.5 255t49.5 214.5t73 180t91 153.5l-84 59q-53 -72 -103.5 -156.5t-89.5 -190t-61.5 -231.5t-22.5 -280v-28z" />
<glyph unicode=")" horiz-adv-x="442" d="M29 -217l84 -59q53 70 103 155.5t88 191t61.5 231.5t23.5 280v28q0 154 -23.5 281t-61.5 231.5t-88 189.5t-103 156l-84 -59q49 -72 91 -155t72.5 -180t49 -213t18.5 -255v-20q0 -139 -18.5 -255t-49 -214.5t-72.5 -180t-91 -153.5z" />
<glyph unicode="*" horiz-adv-x="575" d="M74 1073l49 -84l131 103l-16 -187h100l-16 187l129 -103l51 84l-148 76l148 78l-51 82l-129 -103l16 187h-100l16 -187l-131 103l-49 -82l147 -78z" />
<glyph unicode="+" horiz-adv-x="581" d="M59 510h174v-203h117v203h172v111h-172v200h-117v-200h-174v-111z" />
<glyph unicode="," horiz-adv-x="303" d="M63 76q0 -29 15.5 -49.5t38.5 -28.5l-45 -166h65l76 168q25 43 25 76q0 39 -26 63.5t-60 24.5q-35 0 -62 -24.5t-27 -63.5z" />
<glyph unicode="-" horiz-adv-x="380" d="M55 360h271v111h-271v-111z" />
<glyph unicode="." horiz-adv-x="305" d="M66 76q0 -37 26.5 -61.5t61.5 -24.5t60.5 24.5t25.5 61.5q0 39 -26 63.5t-60 24.5q-35 0 -61.5 -24.5t-26.5 -63.5z" />
<glyph unicode="/" horiz-adv-x="622" d="M-10 -262h125l463 1716h-123z" />
<glyph unicode="0" horiz-adv-x="884" d="M49 549q0 -133 28.5 -237.5t81 -177.5t124 -111.5t159.5 -38.5q86 0 158 38.5t124 111.5t82 177.5t30 237.5v47q0 133 -30 237.5t-82 177t-124 111.5t-158 39q-88 0 -159.5 -39t-124 -111.5t-81 -177t-28.5 -237.5v-47zM180 553v41q0 213 69.5 331.5t192.5 118.5 t191.5 -118.5t68.5 -331.5v-41q0 -213 -68.5 -334t-191.5 -121t-192.5 121t-69.5 334z" />
<glyph unicode="1" horiz-adv-x="434" d="M41 1032h141v-1032h129v1145h-270v-113z" />
<glyph unicode="2" horiz-adv-x="690" d="M18 0h613v111h-406l185 266q88 129 146 240.5t58 226.5v24q0 72 -22.5 127.5t-61 92t-91 55t-109.5 18.5q-100 0 -170 -45t-111 -125l98 -65q33 55 73 88t106 33t112.5 -43t46.5 -142v-22q0 -96 -49 -190.5t-125 -207.5l-293 -430v-12z" />
<glyph unicode="3" horiz-adv-x="694" d="M27 90q47 -47 113.5 -76.5t164.5 -29.5q152 0 245 101t93 277v15q0 76 -18.5 139.5t-54 109.5t-86 72.5t-111.5 28.5l252 406v12h-547v-111h352l-256 -420l10 -10q49 27 117 27q92 0 151.5 -63.5t59.5 -190.5v-12q0 -127 -59.5 -198t-151.5 -71q-72 0 -118 23.5t-81 58.5 z" />
<glyph unicode="4" horiz-adv-x="755" d="M20 215h451v-215h123v215h119v104h-119v844h-14l-560 -870v-78zM170 319l231 369q25 41 48.5 82t25.5 45l-1 -17q-1 -16 -1 -40q0 -23 -1 -47.5t-1 -42.5v-349h-301z" />
<glyph unicode="5" horiz-adv-x="684" d="M25 84q47 -43 107.5 -71.5t156.5 -28.5q74 0 136 24.5t108.5 72.5t73 116.5t26.5 158.5v17q0 88 -23.5 156.5t-64.5 115.5t-96.5 71.5t-118.5 24.5q-45 0 -79 -10t-54 -24v327h378v111h-489v-594l10 -6q35 39 85 62.5t116 23.5q90 0 147.5 -67.5t57.5 -190.5v-15 q0 -129 -62.5 -195.5t-154.5 -66.5q-61 0 -104.5 19.5t-78.5 54.5z" />
<glyph unicode="6" horiz-adv-x="743" d="M49 344q0 -78 23.5 -143.5t65.5 -113.5t101.5 -75.5t131.5 -27.5t131 27.5t102 76.5t66.5 114.5t23.5 141.5v23q0 78 -21.5 143t-61.5 113.5t-95 75t-123 26.5q-59 0 -106 -29l21 27q20 27 44 68l205 354h-137l-264 -449q-47 -78 -77 -161.5t-30 -169.5v-21zM176 346v21 q0 113 53.5 183.5t145.5 70.5t141 -71t49 -183v-21q0 -111 -52 -181.5t-142 -70.5q-92 0 -143.5 71t-51.5 181z" />
<glyph unicode="7" horiz-adv-x="673" d="M49 1034h440l-372 -1034h131l403 1133v12h-602v-111z" />
<glyph unicode="8" horiz-adv-x="765" d="M41 324q0 -68 23.5 -129.5t66.5 -108.5t106.5 -74.5t143.5 -27.5q82 0 145.5 27.5t107.5 74.5t67.5 108.5t23.5 129.5v20q0 111 -50 187.5t-134 113.5q47 33 78.5 88t31.5 137v17q0 55 -19.5 104t-55 87t-86 60.5t-109.5 22.5t-108.5 -22.5t-84 -60.5t-55 -87t-20.5 -104 v-17q0 -82 30.5 -137t77.5 -88q-82 -37 -131 -112.5t-49 -188.5v-20zM172 334v16q0 100 55.5 170t153.5 70q102 0 157.5 -69.5t55.5 -170.5v-16q0 -49 -14.5 -93t-41 -77t-66.5 -52.5t-91 -19.5q-100 0 -154.5 70.5t-54.5 171.5zM233 864v15q0 72 41 125t107 53 q70 0 110.5 -53.5t40.5 -124.5v-15q0 -74 -39.5 -127t-111.5 -53q-68 0 -108 53.5t-40 126.5z" />
<glyph unicode="9" horiz-adv-x="743" d="M49 776q0 -78 21.5 -143.5t61.5 -112.5t96.5 -73.5t123.5 -26.5q41 0 74 12t51 27q-4 -6 -20.5 -35t-38.5 -70l-187 -354h138l229 438q49 92 72.5 174t23.5 168v21q0 76 -23.5 142.5t-65.5 114.5t-101.5 75.5t-130.5 27.5q-72 0 -131.5 -27.5t-102.5 -76.5t-66.5 -116 t-23.5 -142v-23zM178 776v23q0 111 51.5 181.5t143.5 70.5t143 -71t51 -181v-23q0 -111 -53 -181.5t-145 -70.5t-141.5 70t-49.5 182z" />
<glyph unicode=":" horiz-adv-x="317" d="M72 76q0 -37 26.5 -61.5t61.5 -24.5t60.5 24.5t25.5 61.5q0 39 -25.5 63.5t-60.5 24.5t-61.5 -24.5t-26.5 -63.5zM72 510q0 -37 26.5 -61.5t61.5 -24.5t60.5 24.5t25.5 61.5q0 39 -25.5 63.5t-60.5 24.5t-61.5 -24.5t-26.5 -63.5z" />
<glyph unicode=";" horiz-adv-x="317" d="M72 76q0 -29 15 -49.5t38 -28.5l-47 -166h67l76 168q25 43 25 76q0 39 -25.5 63.5t-60.5 24.5t-61.5 -24.5t-26.5 -63.5zM72 510q0 -37 26.5 -61.5t61.5 -24.5t60.5 24.5t25.5 61.5q0 39 -25.5 63.5t-60.5 24.5t-61.5 -24.5t-26.5 -63.5z" />
<glyph unicode="&#x3c;" horiz-adv-x="534" d="M53 532l412 -276v123l-240 158l240 157v125l-412 -272v-15z" />
<glyph unicode="=" horiz-adv-x="536" d="M59 375h418v110h-418v-110zM59 602h418v111h-418v-111z" />
<glyph unicode="&#x3e;" horiz-adv-x="534" d="M70 256l411 272v15l-411 276v-125l241 -157l-241 -158v-123z" />
<glyph unicode="?" horiz-adv-x="669" d="M23 1303l73 -89q35 37 78 58.5t105 21.5q96 0 147 -64.5t51 -174.5v-25q0 -131 -65.5 -195.5t-161.5 -64.5h-31v-432h117v332q121 23 196.5 110.5t75.5 249.5v27q0 166 -89 259t-232 93q-92 0 -156.5 -30.5t-107.5 -75.5zM188 76q0 -37 26.5 -61.5t61.5 -24.5t60.5 24.5 t25.5 61.5q0 39 -25.5 63.5t-60.5 24.5t-61.5 -24.5t-26.5 -63.5z" />
<glyph unicode="@" horiz-adv-x="1101" d="M55 305q0 -135 36 -244.5t101.5 -186.5t157.5 -118t207 -41q78 0 135.5 16.5t110.5 45.5l-43 84q-43 -23 -94.5 -38.5t-112.5 -15.5q-190 0 -292.5 133.5t-102.5 368.5v19q0 121 29.5 216t83 160.5t127 100.5t161.5 35q174 0 279.5 -120t105.5 -362v-16 q0 -135 -28.5 -199.5t-73.5 -64.5q-35 0 -50.5 27.5t-15.5 76.5v436h-121v-79q-23 45 -57.5 70.5t-87.5 25.5q-86 0 -145.5 -82t-59.5 -229v-27q0 -147 60.5 -229t150.5 -82q49 0 94 26.5t74 98.5q31 -125 158 -125q96 0 150.5 87t54.5 267v20q0 137 -37 245t-103.5 179.5 t-155.5 109.5t-194 38q-104 0 -196.5 -41t-160 -120t-106.5 -190.5t-39 -252.5v-23zM430 299v23q0 94 25.5 151t85.5 57q59 0 87.5 -57t28.5 -151v-23q0 -94 -28.5 -151.5t-87.5 -57.5t-85 57.5t-26 151.5z" />
<glyph unicode="A" horiz-adv-x="921" d="M29 0h129l63 221h471l66 -221h135l-426 1407h-14zM254 332l160 540q8 27 15 56.5t13.5 54.5t11.5 42t5 22q0 -6 5 -23.5t11 -42.5t13.5 -53.5t15.5 -55.5l158 -540h-408z" />
<glyph unicode="B" horiz-adv-x="897" d="M129 0h281q111 0 191.5 29.5t133.5 82t80 124t27 155.5v27q0 135 -68.5 226t-195.5 126q182 70 182 274v19q0 70 -24.5 130t-74 104t-120 70t-162.5 26h-250v-1393zM256 115v592h147q80 0 138.5 -22.5t96.5 -60.5t55.5 -90.5t17.5 -113.5v-23q0 -59 -17.5 -111.5 t-55.5 -90t-96.5 -59t-140.5 -21.5h-145zM256 815v463h117q131 0 194.5 -61.5t63.5 -163.5v-15q0 -98 -58.5 -160.5t-179.5 -62.5h-137z" />
<glyph unicode="C" horiz-adv-x="870" d="M63 670q0 -152 33 -279t95.5 -217t154.5 -140t211 -50q92 0 158.5 25.5t113.5 64.5l-59 100q-43 -31 -91 -51.5t-114 -20.5q-90 0 -159.5 43t-115.5 119t-69.5 180.5t-23.5 227.5v49q0 123 23.5 226.5t70.5 179t115.5 118.5t158.5 43q57 0 100.5 -16.5t79.5 -42.5l62 104 q-49 35 -108.5 55.5t-135.5 20.5q-119 0 -212 -51t-156.5 -141.5t-97.5 -217.5t-34 -276v-53z" />
<glyph unicode="D" horiz-adv-x="985" d="M129 0h211q137 0 245.5 50t183.5 139.5t114 214t39 274.5v37q0 152 -39 276.5t-113 213.5t-182.5 138.5t-247.5 49.5h-211v-1393zM258 117v1159h74q117 0 203 -41t142 -114.5t83.5 -178t27.5 -231.5v-29q0 -127 -29.5 -230.5t-88 -178t-143.5 -115.5t-195 -41h-74z" />
<glyph unicode="E" horiz-adv-x="825" d="M129 0h629v117h-500v352h414v117h-414v690h481v117h-610v-1393z" />
<glyph unicode="F" horiz-adv-x="784" d="M129 0h129v469h406v117h-406v690h469v117h-598v-1393z" />
<glyph unicode="G" horiz-adv-x="972" d="M63 666q0 -150 32 -275t95.5 -216t158.5 -141t222 -50q111 0 191 33.5t129 68.5v500h-373v-117h252v-311q-37 -23 -87 -40.5t-118 -17.5q-94 0 -163.5 42t-114.5 118t-67.5 180.5t-22.5 229.5v53q0 121 23.5 224.5t68.5 179t112.5 118.5t157.5 43q76 0 126 -21.5 t85 -47.5l64 106q-47 35 -111 59.5t-166 24.5q-121 0 -212 -52t-154.5 -143.5t-95.5 -216.5t-32 -270v-61z" />
<glyph unicode="H" horiz-adv-x="1003" d="M129 0h129v469h487v-469h129v1393h-129v-807h-487v807h-129v-1393z" />
<glyph unicode="I" horiz-adv-x="403" d="M137 0h129v1393h-129v-1393z" />
<glyph unicode="J" horiz-adv-x="692" d="M18 98q41 -51 103.5 -81.5t152.5 -30.5q133 0 214 80.5t81 244.5v1082h-131v-1076q0 -117 -48 -166t-124 -49q-59 0 -96 25t-66 57z" />
<glyph unicode="K" horiz-adv-x="888" d="M129 0h129v367l123 215l338 -582h147l-403 696l379 697h-146l-438 -807v807h-129v-1393z" />
<glyph unicode="L" horiz-adv-x="757" d="M129 0h578v117h-449v1276h-129v-1393z" />
<glyph unicode="M" horiz-adv-x="1122" d="M129 0h125v858q0 25 -1 53.5t-1 53.5q0 27 -1 44l-1 17q2 -4 10 -18.5t19.5 -36t24.5 -45t26 -41.5l223 -371h12l226 371q12 20 26 44.5t26.5 46t20.5 36t8 16.5l-1 -18q-1 -17 -1 -43q0 -25 -1 -53.5t-1 -53.5v-860h125v1407h-18l-414 -684l-414 684h-18v-1407z" />
<glyph unicode="N" horiz-adv-x="1013" d="M129 0h123v840q0 25 -1 56.5t-1 59.5q0 29 -1 48l-1 20q2 -4 10 -20.5t20.5 -39t26.5 -49t27 -47.5l530 -884h23v1409h-125v-844q0 -29 1 -60.5t2 -59.5t2 -47.5t1 -21.5q-2 4 -10 21.5t-20.5 40t-28 49.5t-27.5 49l-533 889h-18v-1409z" />
<glyph unicode="O" horiz-adv-x="1060" d="M63 670q0 -156 33 -282t94.5 -216t147.5 -139t192 -49t193.5 49t148 139t93 216t32.5 282v53q0 156 -32.5 281.5t-93 216t-147.5 139.5t-194 49q-106 0 -192 -49t-147.5 -139.5t-94.5 -216t-33 -281.5v-53zM197 672v49q0 131 23.5 236.5t66.5 179t104.5 113.5t138.5 40 q76 0 138.5 -40t105.5 -113.5t66.5 -179t23.5 -236.5v-49q0 -131 -23.5 -236.5t-66.5 -179.5t-105.5 -114t-138.5 -40q-78 0 -139 40t-104 114t-66.5 179.5t-23.5 236.5z" />
<glyph unicode="P" horiz-adv-x="870" d="M129 0h129v350h55q119 0 211 37t156.5 104.5t98.5 162t34 206.5v23q0 115 -35 209t-99.5 160.5t-156.5 103.5t-209 37h-184v-1393zM258 465v811h53q186 0 278.5 -108.5t92.5 -286.5v-19q0 -86 -22.5 -159.5t-68.5 -126t-115.5 -82t-164.5 -29.5h-53z" />
<glyph unicode="Q" horiz-adv-x="1060" d="M63 670q0 -145 29 -264t81 -207t128 -142.5t170 -66.5v-230h121v230q94 12 169 66.5t127 142.5t80.5 207.5t28.5 263.5v53q0 156 -32.5 281.5t-93 216t-147.5 139.5t-194 49q-106 0 -192 -49t-147.5 -139.5t-94.5 -216t-33 -281.5v-53zM197 672v49q0 131 23.5 236.5 t66.5 179t104.5 113.5t138.5 40q76 0 138.5 -40t105.5 -113.5t66.5 -179t23.5 -236.5v-49q0 -240 -72.5 -388.5t-199.5 -179.5v238h-121v-238q-129 29 -201.5 177.5t-72.5 390.5z" />
<glyph unicode="R" horiz-adv-x="894" d="M129 0h129v352h64q43 0 83.5 5t77.5 16l205 -373h141l-233 422q109 66 167 178.5t58 259.5v23q0 115 -34.5 209t-99 160.5t-157 103.5t-208.5 37h-193v-1393zM258 465v811h61q186 0 278.5 -108.5t92.5 -286.5v-19q0 -86 -23.5 -159.5t-69.5 -126t-115.5 -82t-162.5 -29.5 h-61z" />
<glyph unicode="S" horiz-adv-x="782" d="M31 127q51 -57 130 -100t204 -43q166 0 258 93t92 247v24q0 104 -50.5 191.5t-144.5 173.5l-147 131q-72 66 -114 123t-42 139v10q0 78 49 127t127 49q66 0 109 -19.5t84 -53.5l69 100q-55 45 -113.5 67.5t-150.5 22.5q-66 0 -121 -20.5t-95 -59.5t-62.5 -93t-22.5 -122 v-14q0 -109 52.5 -190t140.5 -158l149 -136q152 -133 152 -272v-20q0 -100 -58.5 -162t-165.5 -62q-90 0 -146 36t-101 81z" />
<glyph unicode="T" horiz-adv-x="806" d="M43 1276h295v-1276h129v1276h297v117h-721v-117z" />
<glyph unicode="U" horiz-adv-x="972" d="M121 375q0 -195 100 -293t264 -98q166 0 266.5 98t100.5 293v1018h-131v-1014q0 -137 -62.5 -207t-173.5 -70t-172 70t-61 207v1014h-131v-1018z" />
<glyph unicode="V" horiz-adv-x="921" d="M29 1393l424 -1405h16l424 1405h-127l-248 -846q-10 -31 -19.5 -66t-16.5 -65.5t-13 -53t-6 -26.5q-2 6 -7 28.5t-13.5 53.5t-17.5 64.5t-17 64.5l-248 846h-131z" />
<glyph unicode="W" horiz-adv-x="1275" d="M31 1393l315 -1405h16l228 823q8 31 17 66.5t16.5 67.5t12.5 55.5t7 27.5q2 -6 7 -30.5t12.5 -56.5t15.5 -66.5t16 -63.5l221 -823h17l313 1405h-123l-161 -762q-8 -35 -15.5 -76t-13.5 -77l-10 -60l-4 -25l-6 25q-5 24 -12 59t-17.5 76t-20.5 76l-213 776h-14l-211 -770 q-10 -33 -18.5 -72t-16.5 -73.5t-13 -60.5t-5 -30q-2 6 -6.5 33t-10.5 60.5t-14 72.5t-14 70l-164 758h-131z" />
<glyph unicode="X" horiz-adv-x="911" d="M39 0h133l221 496q10 25 20.5 50t18.5 47.5t13.5 38t7.5 19.5q0 -4 6 -19.5t14 -38t18.5 -48t22.5 -49.5l219 -496h139l-337 750l276 643h-133l-166 -398q-10 -23 -19.5 -48t-17.5 -47.5t-13 -39t-5 -18.5q-2 2 -7.5 18.5t-13.5 38t-18 47t-19 49.5l-163 398h-138 l279 -643z" />
<glyph unicode="Y" horiz-adv-x="907" d="M29 1393l360 -965v-428h131v428l359 965h-127l-230 -627q-10 -29 -21.5 -63.5t-20.5 -64.5t-15 -51.5t-6 -23.5q-2 4 -8.5 26.5t-15.5 52.5t-19 62.5t-21 61.5l-233 627h-133z" />
<glyph unicode="Z" horiz-adv-x="813" d="M33 0h727v117h-543l547 1263v13h-658v-117h474l-547 -1264v-12z" />
<glyph unicode="[" horiz-adv-x="471" d="M131 -262h283v108h-158v1500h158v108h-283v-1716z" />
<glyph unicode="\" horiz-adv-x="624" d="M45 1454l465 -1716h125l-465 1716h-125z" />
<glyph unicode="]" horiz-adv-x="471" d="M57 -154v-108h283v1716h-283v-108h158v-1500h-158z" />
<glyph unicode="^" horiz-adv-x="573" d="M57 983h113l117 236l114 -236h113l-221 436h-12z" />
<glyph unicode="_" horiz-adv-x="409" d="M-10 -154v-108h430v108h-430z" />
<glyph unicode="`" horiz-adv-x="667" d="M176 1100l111 -271h98l-72 271h-137z" />
<glyph unicode="a" horiz-adv-x="583" d="M37 199q0 -109 56 -162t140 -53q53 0 92.5 22.5t63.5 63.5v-70h123v496q0 123 -61.5 180t-167.5 57q-72 0 -127.5 -21.5t-94.5 -60.5l64 -86q27 25 61.5 42.5t81.5 17.5q55 0 88 -30t33 -101v-68h-110q-104 0 -173 -54.5t-69 -162.5v-10zM156 201v10q0 61 35.5 89 t95.5 28h102v-113q0 -61 -36 -97t-89 -36q-49 0 -78.5 29.5t-29.5 89.5z" />
<glyph unicode="b" horiz-adv-x="679" d="M78 0h123v98q31 -53 74.5 -83.5t109.5 -30.5q111 0 183.5 93t72.5 269v23q0 176 -71.5 270t-182.5 94q-68 0 -113 -31.5t-73 -87.5v822h-123v-1436zM199 348v21q0 115 40 185.5t117 70.5q78 0 118 -71t40 -185v-21q0 -117 -40 -187.5t-118 -70.5t-117.5 70.5t-39.5 187.5 z" />
<glyph unicode="c" horiz-adv-x="528" d="M39 346q0 -166 80 -264t223 -98q55 0 95 14t71 37l-49 94q-23 -16 -48.5 -26.5t-62.5 -10.5q-86 0 -134 69.5t-48 186.5v21q0 117 50 186.5t130 69.5q35 0 56.5 -9.5t41.5 -21.5l54 92q-31 23 -67 35t-93 12q-66 0 -121 -26.5t-95 -73.5t-61.5 -114.5t-21.5 -149.5v-23z " />
<glyph unicode="d" horiz-adv-x="677" d="M39 346q0 -176 71.5 -269t182.5 -93q66 0 111 30.5t73 83.5v-98h123v1436h-123v-820q-27 53 -73 85t-111 32q-111 0 -182.5 -94t-71.5 -270v-23zM166 348v21q0 115 40 185.5t118 70.5q76 0 116.5 -71t40.5 -185v-21q0 -117 -40.5 -187.5t-116.5 -70.5q-78 0 -118 70.5 t-40 187.5z" />
<glyph unicode="e" horiz-adv-x="614" d="M39 346q0 -164 78.5 -263t230.5 -99q68 0 116 17t83 44l-49 92q-29 -16 -65 -31.5t-85 -15.5q-88 0 -133 57.5t-51 165.5h411v56q0 162 -66.5 263t-193.5 101q-61 0 -112 -26.5t-88 -74.5t-56.5 -114.5t-19.5 -148.5v-23zM166 412q8 98 45.5 156.5t103.5 58.5t98.5 -56.5 t37.5 -158.5h-285z" />
<glyph unicode="f" horiz-adv-x="397" d="M31 614h75v-614h123v614h140v101h-140v534q0 55 19.5 80t52.5 25q23 0 37 -7.5t24 -13.5l46 92q-18 16 -46 25.5t-73 9.5q-80 0 -131.5 -51t-51.5 -158v-536h-75v-101z" />
<glyph unicode="g" horiz-adv-x="604" d="M18 -190v-9q0 -113 81 -178t206 -65t205 67.5t80 190.5v8q0 113 -69.5 180.5t-211.5 79.5q-78 6 -107.5 24.5t-29.5 55.5q0 45 47 59q33 -12 78 -12q47 0 90 17.5t77 49t53.5 78.5t19.5 109v14q0 45 -13.5 81t-34.5 65h93v90h-189q-47 18 -96 18q-47 0 -89 -17.5t-75 -49 t-52.5 -78.5t-19.5 -109v-14q0 -66 24 -115t58 -82q-31 -18 -52 -51t-21 -76q0 -41 20.5 -75.5t63.5 -53.5q-61 -27 -98.5 -77t-37.5 -125zM137 -180q0 68 41 110.5t123 42.5q78 0 124 -41t46 -112v-6q0 -74 -47 -115t-119 -41q-76 0 -122 41t-46 115v6zM178 467v10 q0 76 34 118t87 42t85 -42t32 -118v-10q0 -78 -32 -120t-85 -42t-87 42t-34 120z" />
<glyph unicode="h" horiz-adv-x="647" d="M78 0h123v473q0 70 39 109t98 39q53 0 85 -33t32 -103v-485h123v500q0 117 -57.5 175t-143.5 58q-61 0 -105.5 -28.5t-70.5 -75.5v807h-123v-1436z" />
<glyph unicode="i" horiz-adv-x="280" d="M63 1012q0 -33 22.5 -55.5t53.5 -22.5t53.5 22.5t22.5 55.5q0 31 -22.5 53t-53.5 22t-53.5 -22.5t-22.5 -52.5zM80 0h123v715h-123v-715z" />
<glyph unicode="j" horiz-adv-x="282" d="M-78 -412q35 -24 105 -24q84 0 131 48t47 142v961h-123v-957q0 -86 -70 -86q-20 0 -32.5 5.5t-22.5 9.5zM66 1012q0 -33 22 -55.5t53 -22.5t53.5 22.5t22.5 55.5q0 31 -22.5 53t-53.5 22t-53 -22.5t-22 -52.5z" />
<glyph unicode="k" horiz-adv-x="591" d="M78 0h123v211l73 104l175 -315h137l-234 424l205 291h-137l-219 -326v1047h-123v-1436z" />
<glyph unicode="l" horiz-adv-x="282" d="M80 0h123v1436h-123v-1436z" />
<glyph unicode="m" horiz-adv-x="972" d="M78 0h123v479q0 68 33.5 105t89.5 37q104 0 104 -129v-492h123v481q0 66 35 103t90 37q49 0 76.5 -32t27.5 -97v-492h123v506q0 113 -55 170t-139 57q-59 0 -106.5 -26.5t-78.5 -79.5q-25 53 -66.5 79.5t-95.5 26.5q-57 0 -98 -27.5t-63 -70.5v80h-123v-715z" />
<glyph unicode="n" horiz-adv-x="647" d="M78 0h123v473q0 70 39 109t98 39q53 0 85 -33t32 -103v-485h123v500q0 117 -57.5 175t-143.5 58q-61 0 -106.5 -28.5t-69.5 -75.5v86h-123v-715z" />
<glyph unicode="o" horiz-adv-x="649" d="M39 344q0 -82 20.5 -148.5t58.5 -113.5t90 -72.5t118 -25.5q133 0 208.5 98t75.5 262v27q0 164 -75.5 263t-208.5 99q-66 0 -118 -26.5t-90 -73.5t-58.5 -113.5t-20.5 -148.5v-27zM166 346v25q0 117 43 186.5t115 69.5q76 0 117.5 -70t41.5 -186v-25q0 -117 -41.5 -187.5 t-117.5 -70.5q-72 0 -115 70.5t-43 187.5z" />
<glyph unicode="p" horiz-adv-x="679" d="M78 -420h123v518q31 -53 74.5 -83.5t109.5 -30.5q111 0 183.5 93t72.5 269v23q0 176 -71.5 270t-182.5 94q-68 0 -113 -31.5t-73 -87.5v101h-123v-1135zM199 348v21q0 115 40 185.5t117 70.5q78 0 118 -71t40 -185v-21q0 -117 -40 -187.5t-118 -70.5t-117.5 70.5 t-39.5 187.5z" />
<glyph unicode="q" horiz-adv-x="677" d="M39 346q0 -176 71.5 -269t182.5 -93q66 0 111 30.5t73 83.5v-518h123v1135h-123v-99q-27 53 -73 85t-111 32q-111 0 -182.5 -94t-71.5 -270v-23zM166 348v21q0 115 40 185.5t118 70.5q76 0 116.5 -71t40.5 -185v-21q0 -117 -40.5 -187.5t-116.5 -70.5q-78 0 -118 70.5 t-40 187.5z" />
<glyph unicode="r" horiz-adv-x="434" d="M78 0h123v424q0 100 40 145t99 45q29 0 55 -10l31 109q-16 8 -32.5 12t-39.5 4q-53 0 -91 -28.5t-62 -77.5v92h-123v-715z" />
<glyph unicode="s" horiz-adv-x="509" d="M29 70q39 -41 92 -63.5t127 -22.5q100 0 161.5 53t61.5 141v10q0 78 -46 130.5t-126 99.5q-63 41 -93 66.5t-30 70.5v6q0 31 25.5 51.5t66.5 20.5q35 0 61.5 -12.5t49.5 -28.5l59 84q-35 27 -77 42t-97 15q-86 0 -143.5 -49t-57.5 -129v-8q0 -78 42 -126t114 -93 t103.5 -74t31.5 -72v-8q0 -41 -29.5 -65.5t-82.5 -24.5q-51 0 -84 17.5t-60 45.5z" />
<glyph unicode="t" horiz-adv-x="409" d="M33 614h78v-448q0 -92 44 -137t121 -45q39 0 68 10t49 24l-43 91q-10 -6 -24.5 -12.5t-30.5 -6.5q-63 0 -64 80v444h138v101h-138v321h-120v-321h-78v-101z" />
<glyph unicode="u" horiz-adv-x="647" d="M70 217q0 -117 56 -175t144 -58q61 0 106.5 28.5t69.5 75.5v-88h123v715h-123v-471q0 -70 -38.5 -109t-98.5 -39q-53 0 -84.5 33t-31.5 100v486h-123v-498z" />
<glyph unicode="v" horiz-adv-x="585" d="M14 715l275 -729h14l268 729h-122l-109 -312q-18 -49 -29.5 -93t-13.5 -50q-2 6 -14.5 50t-28.5 93l-111 312h-129z" />
<glyph unicode="w" horiz-adv-x="831" d="M18 715l220 -729h12l135 356q14 37 24.5 73t12.5 40q2 -8 11 -43t24 -70l131 -356h12l213 729h-115l-80 -283q-14 -47 -24 -90t-12 -49q-2 6 -14.5 50t-28.5 85l-113 299h-12l-107 -297q-16 -45 -29.5 -89t-15.5 -50q-2 6 -12 50t-23 91l-82 283h-127z" />
<glyph unicode="x" horiz-adv-x="591" d="M20 0h127l146 287l151 -287h134l-209 383l178 332h-127l-119 -240l-121 240h-133l178 -336z" />
<glyph unicode="y" horiz-adv-x="579" d="M14 715l222 -641l-154 -494h119l364 1135h-121l-106 -342q-8 -25 -15.5 -50.5t-12.5 -49t-9 -40t-4 -18.5q-4 10 -15.5 60.5t-27.5 97.5l-113 342h-127z" />
<glyph unicode="z" horiz-adv-x="520" d="M27 0h448v100h-282l296 605v10h-421v-99h256l-297 -606v-10z" />
<glyph unicode="{" horiz-adv-x="534" d="M33 477h55q47 0 76 -26.5t29 -94.5v-379q0 -72 19 -117.5t51 -72.5t74 -38t87 -11h53v108h-49q-53 0 -83 27t-30 104v388q0 80 -29.5 118.5t-76.5 48.5q47 10 76.5 46t29.5 118v518q0 78 30 105t83 27h49v108h-53q-45 0 -87 -11t-74 -38t-51 -74t-19 -117v-507 q0 -70 -29 -95.5t-76 -25.5h-55v-109z" />
<glyph unicode="|" horiz-adv-x="378" d="M125 -262h129v1716h-129v-1716z" />
<glyph unicode="}" horiz-adv-x="534" d="M57 -154v-108h52q45 0 87 11t74.5 38t52 73t19.5 117v379q0 68 28.5 94.5t73.5 26.5h58v109h-58q-45 0 -73.5 25.5t-28.5 95.5v507q0 70 -19.5 117t-52 74t-74.5 38t-87 11h-52v-108h47q53 0 83 -27t30 -105v-518q0 -80 31 -116.5t78 -47.5q-47 -12 -78 -49t-31 -118 v-388q0 -78 -29.5 -104.5t-83.5 -26.5h-47z" />
<glyph unicode="~" horiz-adv-x="577" d="M61 455l97 -9q8 31 20 43.5t33 12.5q16 0 33.5 -9.5t37 -21.5t43 -21.5t52.5 -9.5q53 0 92 44t47 118l-96 8q-14 -55 -53 -55q-16 0 -34 9t-37.5 21.5t-43 21.5t-49.5 9q-55 0 -94 -43t-48 -118z" />
<glyph unicode="&#xa1;" horiz-adv-x="389" d="M106 1317q0 -39 27 -63.5t62 -24.5t61.5 24.5t26.5 63.5q0 37 -27 61.5t-61 24.5q-35 0 -62 -24.5t-27 -61.5zM129 0h133l-10 1055h-115z" />
<glyph unicode="&#xa2;" horiz-adv-x="528" d="M39 346q0 -145 60.5 -239.5t172.5 -116.5v-207h95v203q45 4 78.5 16t62.5 33l-49 96q-20 -14 -42 -24.5t-50 -14.5v531q25 -4 43 -13.5t34 -19.5l54 92q-27 20 -57.5 32.5t-73.5 16.5v184h-95v-190q-106 -23 -169.5 -118t-63.5 -238v-23zM166 348v21q0 86 28.5 148.5 t77.5 88.5v-497q-53 27 -79.5 88t-26.5 151z" />
<glyph unicode="&#xa3;" horiz-adv-x="770" d="M23 129q0 -66 48 -105.5t122 -39.5q55 0 100 23.5t74 64.5q43 -35 96 -61.5t127 -26.5q63 0 107 20.5t73 46.5l-59 92q-23 -18 -51.5 -33.5t-73.5 -15.5q-55 0 -98.5 22.5t-79.5 51.5q2 10 3 21.5t1 21.5v14q0 68 -13.5 132.5t-29.5 123.5h196v105h-227 q-18 63 -32.5 123.5t-14.5 124.5v14q0 90 46 143t132 53q57 0 94 -22.5t70 -56.5l76 86q-45 53 -103.5 80.5t-142.5 27.5q-145 0 -225 -84t-80 -217v-18q0 -63 15 -126t38 -128h-115v-105h150q20 -57 35.5 -115.5t19.5 -117.5q-55 33 -115 33q-74 0 -118.5 -42t-44.5 -110z M127 131q0 57 63 57q27 0 51.5 -13t49.5 -36q-14 -33 -41.5 -48t-56.5 -15q-31 0 -48.5 16.5t-17.5 38.5z" />
<glyph unicode="&#xa4;" horiz-adv-x="825" d="M45 350h121q41 -176 145.5 -271t251.5 -95q80 0 133.5 22.5t94.5 56.5l-58 99q-33 -27 -70.5 -45.5t-91.5 -18.5q-104 0 -173.5 64.5t-100.5 187.5h295v101h-311q-2 23 -3.5 46t-1.5 50v4h316v100h-313q10 186 85.5 289.5t204.5 103.5q49 0 84 -16t66 -39l57 101 q-41 33 -90 52t-119 19q-90 0 -164.5 -34.5t-130 -100t-88 -161t-39.5 -214.5h-100v-100h100v-6v-49q0 -23 5 -45h-105v-101z" />
<glyph unicode="&#xa5;" horiz-adv-x="823" d="M37 1145l223 -559h-201v-101h240l43 -106h-283v-100h287v-279h131v279h283v100h-281l43 106h238v101h-197l223 559h-131l-176 -469q-12 -29 -22.5 -62.5t-19.5 -63.5t-15 -50.5t-6 -22.5q-2 4 -8.5 25.5t-15.5 50.5t-19.5 61.5t-20.5 61.5l-176 469h-139z" />
<glyph unicode="&#xa6;" d="M72 457q0 -37 26.5 -61.5t61.5 -24.5t60.5 24.5t25.5 61.5q0 39 -25.5 63.5t-60.5 24.5t-61.5 -24.5t-26.5 -63.5z" />
<glyph unicode="&#xa7;" horiz-adv-x="776" d="M41 498q0 -76 39 -134.5t125 -117.5l162 -117q66 -45 107.5 -86t41.5 -106v-9q0 -66 -45 -104.5t-123 -38.5q-63 0 -109 25.5t-83 56.5l-74 -96q43 -41 110.5 -71t161.5 -30q139 0 217 72t78 186v13q0 53 -17.5 94t-45.5 78q74 27 111.5 81t37.5 119v13q0 78 -45 138 t-129 118l-178 125q-55 41 -90 80.5t-35 105.5v6q0 63 39 104t115 41q61 0 101 -21.5t75 -49.5l69 96q-41 37 -102 63.5t-147 26.5q-129 0 -206 -72.5t-77 -189.5v-12q0 -102 61 -176q-72 -25 -108.5 -79.5t-36.5 -121.5v-10zM166 514v6q0 41 21.5 73t68.5 48 q12 -10 25.5 -20.5t29.5 -20.5l176 -123q66 -45 94.5 -83t28.5 -87v-6q0 -88 -100 -117q-12 10 -24.5 18.5t-26.5 18.5l-174 127q-61 41 -90 78t-29 88z" />
<glyph unicode="&#xa8;" horiz-adv-x="667" d="M143 920q0 -31 22.5 -53.5t51.5 -22.5q31 0 53.5 22.5t22.5 53.5q0 29 -22.5 51t-53.5 22q-29 0 -51.5 -22.5t-22.5 -50.5zM377 920q0 -31 22.5 -53.5t51.5 -22.5t52 22.5t23 53.5q0 29 -23.5 51t-51.5 22q-29 0 -51.5 -22.5t-22.5 -50.5z" />
<glyph unicode="&#xa9;" horiz-adv-x="909" d="M59 569q0 -86 31 -160.5t85 -128t126 -84t154 -30.5t153.5 30.5t125.5 84t86 128t32 160.5q0 88 -32 162t-86 127t-125.5 84t-153.5 31t-154 -31t-126 -84t-85 -127t-31 -162zM127 569q0 74 25.5 136.5t69.5 106.5t103.5 69.5t129.5 25.5t129 -25.5t104 -69.5 t70.5 -106.5t25.5 -136.5t-25.5 -136t-70.5 -107t-104 -71t-129 -26t-129.5 26t-103.5 71t-69.5 107.5t-25.5 135.5zM225 567q0 -53 18.5 -98t49.5 -77t73 -50t91 -18q66 0 113.5 25.5t74.5 66.5l-72 55q-18 -27 -45.5 -42t-68.5 -15q-59 0 -96 45t-37 108q0 66 36.5 111 t96.5 45q39 0 63.5 -14.5t42.5 -36.5l70 61q-33 39 -75 60.5t-101 21.5q-49 0 -92 -18.5t-74 -51t-49.5 -77.5t-18.5 -101z" />
<glyph unicode="&#xaa;" horiz-adv-x="536" d="M43 690q0 -98 51 -146t125 -48q47 0 81 21.5t56 55.5v-61h113v438q0 111 -55.5 161t-147.5 50q-68 0 -118 -19.5t-85 -51.5l56 -80q27 20 57.5 34.5t77.5 14.5t74.5 -22.5t27.5 -88.5v-61h-96q-94 0 -155.5 -47t-61.5 -140v-10zM154 692v8q0 53 30.5 78t81.5 25h90v-101 q0 -53 -30.5 -83.5t-77.5 -30.5q-43 0 -68.5 25.5t-25.5 78.5z" />
<glyph unicode="&#xab;" horiz-adv-x="542" d="M43 356l107 -254h116l-106 258l106 254h-116l-107 -249v-9zM272 356l109 -254h117l-107 258l107 254h-117l-109 -249v-9z" />
<glyph unicode="&#xac;" d="M72 457q0 -37 26.5 -61.5t61.5 -24.5t60.5 24.5t25.5 61.5q0 39 -25.5 63.5t-60.5 24.5t-61.5 -24.5t-26.5 -63.5z" />
<glyph unicode="&#xad;" horiz-adv-x="380" d="M55 360h271v111h-271v-111z" />
<glyph unicode="&#xae;" horiz-adv-x="622" d="M53 1151q0 -55 20.5 -103.5t55.5 -82t82 -53t100 -19.5t100.5 19.5t82 53t55 82t20.5 103.5t-20.5 103.5t-55 82t-81.5 53t-101 19.5q-53 0 -100 -19.5t-82 -53t-55.5 -82t-20.5 -103.5zM106 1151q0 96 56.5 154.5t148.5 58.5q90 0 147.5 -58.5t57.5 -154.5 q0 -94 -57.5 -153.5t-147.5 -59.5q-92 0 -148.5 59.5t-56.5 153.5zM217 1014h64v67h18h14l45 -67h70l-55 84q27 14 42 37.5t15 54.5q0 41 -32.5 73.5t-98.5 32.5h-82v-282zM281 1133v110h16q66 0 65 -55q0 -55 -65 -55h-16z" />
<glyph unicode="&#xaf;" horiz-adv-x="667" d="M190 858h287v94h-287v-94z" />
<glyph unicode="&#xb0;" horiz-adv-x="565" d="M84 963q0 -41 15.5 -77t43 -62.5t63.5 -42t77 -15.5q84 0 141 57.5t57 139.5q0 84 -57 140t-141 56q-82 0 -140.5 -56t-58.5 -140zM178 963q0 47 29 79.5t76 32.5t76.5 -32.5t29.5 -79.5t-29.5 -81t-76.5 -34t-76 33.5t-29 81.5z" />
<glyph unicode="&#xb1;" horiz-adv-x="970" d="M31 614h75v-614h123v614h209v-614h123v614h121v101h-121v497q0 141 105 142q53 0 77.5 -39t24.5 -105v-1210h123v1214q0 123 -60.5 184.5t-164.5 61.5q-100 0 -164 -60.5t-64 -182.5v-502h-209v534q0 55 19.5 80t52.5 25q20 0 32.5 -5.5t22.5 -11.5l45 90q-35 33 -112 33 q-80 0 -131.5 -51t-51.5 -158v-536h-75v-101z" />
<glyph unicode="&#xb2;" d="M72 457q0 -37 26.5 -61.5t61.5 -24.5t60.5 24.5t25.5 61.5q0 39 -25.5 63.5t-60.5 24.5t-61.5 -24.5t-26.5 -63.5z" />
<glyph unicode="&#xb3;" d="M72 457q0 -37 26.5 -61.5t61.5 -24.5t60.5 24.5t25.5 61.5q0 39 -25.5 63.5t-60.5 24.5t-61.5 -24.5t-26.5 -63.5z" />
<glyph unicode="&#xb4;" horiz-adv-x="665" d="M283 829h98l108 271h-135z" />
<glyph unicode="&#xb6;" horiz-adv-x="909" d="M49 1047q0 -72 24.5 -132.5t69.5 -105.5t109.5 -69.5t142.5 -24.5h64v-715h106v1284h119v-1284h109v1393h-398q-78 0 -142.5 -25t-109.5 -70t-69.5 -105t-24.5 -132v-14zM184 1049v10q0 109 60.5 167t154.5 58h60v-461h-60q-94 0 -154.5 58.5t-60.5 167.5z" />
<glyph unicode="&#xb7;" horiz-adv-x="305" d="M66 457q0 -37 26.5 -61.5t61.5 -24.5t60.5 24.5t25.5 61.5q0 39 -26 63.5t-60 24.5q-35 0 -61.5 -24.5t-26.5 -63.5z" />
<glyph unicode="&#xb8;" horiz-adv-x="667" d="M240 -324q16 -10 38.5 -16t57.5 -6q57 0 100 32.5t43 98.5v6q0 53 -29.5 83t-74.5 38v88h-76v-152h27q66 0 65 -55v-6q0 -29 -18.5 -42t-42.5 -13q-33 0 -58 14z" />
<glyph unicode="&#xb9;" d="M72 457q0 -37 26.5 -61.5t61.5 -24.5t60.5 24.5t25.5 61.5q0 39 -25.5 63.5t-60.5 24.5t-61.5 -24.5t-26.5 -63.5z" />
<glyph unicode="&#xba;" horiz-adv-x="595" d="M45 813q0 -145 70.5 -231t183.5 -86q117 0 185.5 86t68.5 231v29q0 145 -68.5 232t-185.5 87q-113 0 -183.5 -87t-70.5 -232v-29zM162 815v27q0 102 35.5 161.5t101.5 59.5t101.5 -59.5t35.5 -161.5v-27q0 -102 -35.5 -161.5t-101.5 -59.5t-101.5 59.5t-35.5 161.5z" />
<glyph unicode="&#xbb;" horiz-adv-x="544" d="M45 102h119l106 250v8l-106 254h-119l107 -258zM276 102h117l109 250v8l-109 254h-117l107 -258z" />
<glyph unicode="&#xbc;" d="M72 457q0 -37 26.5 -61.5t61.5 -24.5t60.5 24.5t25.5 61.5q0 39 -25.5 63.5t-60.5 24.5t-61.5 -24.5t-26.5 -63.5z" />
<glyph unicode="&#xbd;" d="M72 457q0 -37 26.5 -61.5t61.5 -24.5t60.5 24.5t25.5 61.5q0 39 -25.5 63.5t-60.5 24.5t-61.5 -24.5t-26.5 -63.5z" />
<glyph unicode="&#xbe;" d="M72 457q0 -37 26.5 -61.5t61.5 -24.5t60.5 24.5t25.5 61.5q0 39 -25.5 63.5t-60.5 24.5t-61.5 -24.5t-26.5 -63.5z" />
<glyph unicode="&#xbf;" horiz-adv-x="669" d="M61 336q0 -166 89.5 -259t232.5 -93q92 0 156.5 30.5t107.5 75.5l-74 88q-35 -37 -77.5 -58.5t-104.5 -21.5q-96 0 -147 64.5t-51 175.5v24q0 131 65.5 196t159.5 65h33v432h-117v-332q-121 -23 -197 -111t-76 -250v-26zM307 1317q0 -39 25.5 -63.5t60.5 -24.5t61.5 24.5 t26.5 63.5q0 37 -26.5 61.5t-61.5 24.5t-60.5 -24.5t-25.5 -61.5z" />
<glyph unicode="&#xc0;" horiz-adv-x="921" d="M29 0h129l63 221h471l66 -221h135l-426 1407h-14zM254 332l160 540q8 27 15 56.5t13.5 54.5t11.5 42t5 22q0 -6 5 -23.5t11 -42.5t13.5 -53.5t15.5 -55.5l158 -540h-408zM309 1778l111 -271h98l-72 271h-137z" />
<glyph unicode="&#xc1;" horiz-adv-x="921" d="M29 0h129l63 221h471l66 -221h135l-426 1407h-14zM254 332l160 540q8 27 15 56.5t13.5 54.5t11.5 42t5 22q0 -6 5 -23.5t11 -42.5t13.5 -53.5t15.5 -55.5l158 -540h-408zM406 1507h98l108 271h-135z" />
<glyph unicode="&#xc2;" horiz-adv-x="921" d="M29 0h129l63 221h471l66 -221h135l-426 1407h-14zM254 332l160 540q8 27 15 56.5t13.5 54.5t11.5 42t5 22q0 -6 5 -23.5t11 -42.5t13.5 -53.5t15.5 -55.5l158 -540h-408zM283 1503h104l80 113l76 -113h106l-178 266h-10z" />
<glyph unicode="&#xc3;" horiz-adv-x="921" d="M29 0h129l63 221h471l66 -221h135l-426 1407h-14zM254 332l160 540q8 27 15 56.5t13.5 54.5t11.5 42t5 22q0 -6 5 -23.5t11 -42.5t13.5 -53.5t15.5 -55.5l158 -540h-408zM270 1516l90 -7q4 33 14.5 45.5t26.5 12.5q12 0 27.5 -9.5t32 -19.5t36 -19.5t42.5 -9.5 q49 0 82.5 38t42.5 118l-91 6q-4 -33 -14 -45t-27 -12q-12 0 -27.5 9t-32.5 19.5t-37.5 19.5t-41.5 9q-49 0 -83 -39t-40 -116z" />
<glyph unicode="&#xc4;" horiz-adv-x="921" d="M29 0h129l63 221h471l66 -221h135l-426 1407h-14zM135 1335q0 -31 22.5 -53t51.5 -22q31 0 53.5 22.5t22.5 52.5q0 29 -22.5 51.5t-53.5 22.5q-29 0 -51.5 -22.5t-22.5 -51.5zM254 332l160 540q8 27 15 56.5t13.5 54.5t11.5 42t5 22q0 -6 5 -23.5t11 -42.5t13.5 -53.5 t15.5 -55.5l158 -540h-408zM635 1335q0 -31 22.5 -53t51.5 -22t52 22.5t23 52.5q0 29 -23.5 51.5t-51.5 22.5q-29 0 -51.5 -22.5t-22.5 -51.5z" />
<glyph unicode="&#xc5;" horiz-adv-x="921" d="M29 0h129l63 221h471l66 -221h135l-406 1339q53 10 87 49t34 93q0 59 -43 102t-104 43t-104.5 -43t-43.5 -102q0 -53 34 -92t85 -50zM254 332l160 540q14 51 27.5 104.5t17.5 67.5q2 -14 15 -67t30 -105l158 -540h-408zM393 1481q0 33 19.5 52t48.5 19q31 0 49 -19.5 t18 -51.5q0 -35 -18 -53.5t-49 -18.5q-29 0 -48.5 18.5t-19.5 53.5z" />
<glyph unicode="&#xc6;" horiz-adv-x="1355" d="M20 0h134l102 221h408v-221h624v117h-495v352h407v117h-407v690h475v117h-586zM309 332l275 586q16 35 31.5 70.5t26.5 65t18.5 48t7.5 20.5l-1 -20q-1 -21 -1 -51q0 -31 -1 -70t-1 -78v-571h-355z" />
<glyph unicode="&#xc7;" horiz-adv-x="870" d="M63 670q0 -131 25 -244t72 -199t115.5 -144t158.5 -83v-152h27q66 0 65 -55v-6q0 -29 -18.5 -42t-42.5 -13q-33 0 -57 14l-33 -70q16 -10 38.5 -16t57.5 -6q57 0 100 32.5t43 98.5v6q0 53 -29.5 83t-74.5 38v74q10 0 22.5 -1t24.5 -1q92 0 158.5 25.5t113.5 64.5l-59 100 q-43 -31 -91 -51.5t-114 -20.5q-90 0 -159.5 43t-115.5 119t-69.5 180.5t-23.5 227.5v49q0 123 23.5 226.5t70.5 179t115.5 118.5t158.5 43q57 0 100.5 -16.5t79.5 -42.5l62 104q-49 35 -108.5 55.5t-135.5 20.5q-119 0 -212 -51t-156.5 -141.5t-97.5 -217.5t-34 -276v-53z " />
<glyph unicode="&#xc8;" horiz-adv-x="825" d="M129 0h629v117h-500v352h414v117h-414v690h481v117h-610v-1393zM305 1778l111 -271h98l-72 271h-137z" />
<glyph unicode="&#xc9;" horiz-adv-x="825" d="M129 0h629v117h-500v352h414v117h-414v690h481v117h-610v-1393zM408 1507h98l108 271h-135z" />
<glyph unicode="&#xca;" horiz-adv-x="825" d="M129 0h629v117h-500v352h414v117h-414v690h481v117h-610v-1393zM279 1503h104l80 113l76 -113h106l-178 266h-10z" />
<glyph unicode="&#xcb;" horiz-adv-x="825" d="M129 0h629v117h-500v352h414v117h-414v690h481v117h-610v-1393zM266 1597q0 -31 22.5 -53t51.5 -22q31 0 53.5 22.5t22.5 52.5q0 29 -22.5 51.5t-53.5 22.5q-29 0 -51.5 -22.5t-22.5 -51.5zM500 1597q0 -31 22 -53t51 -22t52.5 22.5t23.5 52.5q0 29 -23.5 51.5 t-52.5 22.5t-51 -22.5t-22 -51.5z" />
<glyph unicode="&#xcc;" horiz-adv-x="389" d="M35 1778l110 -271h99l-72 271h-137zM123 0h129v1393h-129v-1393z" />
<glyph unicode="&#xcd;" horiz-adv-x="397" d="M137 0h129v1393h-129v-1393zM145 1507h99l108 271h-135z" />
<glyph unicode="&#xce;" horiz-adv-x="403" d="M25 1503h104l80 113l76 -113h106l-178 266h-10zM139 0h129v1393h-129v-1393z" />
<glyph unicode="&#xcf;" horiz-adv-x="405" d="M12 1597q0 -31 22.5 -53t51.5 -22q31 0 53.5 22.5t22.5 52.5q0 29 -22.5 51.5t-53.5 22.5q-29 0 -51.5 -22.5t-22.5 -51.5zM139 0h129v1393h-129v-1393zM246 1597q0 -31 22 -53t51 -22t52.5 22.5t23.5 52.5q0 29 -23.5 51.5t-52.5 22.5t-51 -22.5t-22 -51.5z" />
<glyph unicode="&#xd0;" horiz-adv-x="985" d="M23 469h108v-469h240q131 0 234.5 49t174 138t107.5 211t37 270v57q0 147 -37 270t-107.5 211t-174 137.5t-234.5 49.5h-240v-807h-108v-117zM260 117v352h262v117h-262v690h100q109 0 190 -40t134 -113.5t80 -176t27 -225.5v-49q0 -123 -28 -225.5t-82 -175t-135 -113.5 t-186 -41h-100z" />
<glyph unicode="&#xd1;" horiz-adv-x="1013" d="M129 0h123v840q0 25 -1 56.5t-1 59.5q0 29 -1 48l-1 20q2 -4 10 -20.5t20.5 -39t26.5 -49t27 -47.5l530 -884h23v1409h-125v-844q0 -29 1 -60.5t2 -59.5t2 -47.5t1 -21.5q-2 4 -10 21.5t-20.5 40t-28 49.5t-27.5 49l-533 889h-18v-1409zM315 1516l91 -7q4 33 14 45.5 t26 12.5q12 0 27.5 -9.5t32 -19.5t36 -19.5t42.5 -9.5q49 0 82.5 38t42.5 118l-91 6q-4 -33 -14 -45t-26 -12q-12 0 -27.5 9t-33 19.5t-38 19.5t-41.5 9q-49 0 -82.5 -39t-40.5 -116z" />
<glyph unicode="&#xd2;" horiz-adv-x="1060" d="M63 670q0 -156 33 -282t94.5 -216t147.5 -139t192 -49t193.5 49t148 139t93 216t32.5 282v53q0 156 -32.5 281.5t-93 216t-147.5 139.5t-194 49q-106 0 -192 -49t-147.5 -139.5t-94.5 -216t-33 -281.5v-53zM197 672v49q0 131 23.5 236.5t66.5 179t104.5 113.5t138.5 40 q76 0 138.5 -40t105.5 -113.5t66.5 -179t23.5 -236.5v-49q0 -131 -23.5 -236.5t-66.5 -179.5t-105.5 -114t-138.5 -40q-78 0 -139 40t-104 114t-66.5 179.5t-23.5 236.5zM379 1778l110 -271h99l-72 271h-137z" />
<glyph unicode="&#xd3;" horiz-adv-x="1060" d="M63 670q0 -156 33 -282t94.5 -216t147.5 -139t192 -49t193.5 49t148 139t93 216t32.5 282v53q0 156 -32.5 281.5t-93 216t-147.5 139.5t-194 49q-106 0 -192 -49t-147.5 -139.5t-94.5 -216t-33 -281.5v-53zM197 672v49q0 131 23.5 236.5t66.5 179t104.5 113.5t138.5 40 q76 0 138.5 -40t105.5 -113.5t66.5 -179t23.5 -236.5v-49q0 -131 -23.5 -236.5t-66.5 -179.5t-105.5 -114t-138.5 -40q-78 0 -139 40t-104 114t-66.5 179.5t-23.5 236.5zM475 1507h98l109 271h-135z" />
<glyph unicode="&#xd4;" horiz-adv-x="1060" d="M63 670q0 -156 33 -282t94.5 -216t147.5 -139t192 -49t193.5 49t148 139t93 216t32.5 282v53q0 156 -32.5 281.5t-93 216t-147.5 139.5t-194 49q-106 0 -192 -49t-147.5 -139.5t-94.5 -216t-33 -281.5v-53zM197 672v49q0 131 23.5 236.5t66.5 179t104.5 113.5t138.5 40 q76 0 138.5 -40t105.5 -113.5t66.5 -179t23.5 -236.5v-49q0 -131 -23.5 -236.5t-66.5 -179.5t-105.5 -114t-138.5 -40q-78 0 -139 40t-104 114t-66.5 179.5t-23.5 236.5zM352 1503h105l80 113l75 -113h107l-178 266h-11z" />
<glyph unicode="&#xd5;" horiz-adv-x="1060" d="M63 670q0 -156 33 -282t94.5 -216t147.5 -139t192 -49t193.5 49t148 139t93 216t32.5 282v53q0 156 -32.5 281.5t-93 216t-147.5 139.5t-194 49q-106 0 -192 -49t-147.5 -139.5t-94.5 -216t-33 -281.5v-53zM197 672v49q0 131 23.5 236.5t66.5 179t104.5 113.5t138.5 40 q76 0 138.5 -40t105.5 -113.5t66.5 -179t23.5 -236.5v-49q0 -131 -23.5 -236.5t-66.5 -179.5t-105.5 -114t-138.5 -40q-78 0 -139 40t-104 114t-66.5 179.5t-23.5 236.5zM340 1516l90 -7q4 33 14.5 45.5t26.5 12.5q12 0 27.5 -9.5t32 -19.5t36 -19.5t41.5 -9.5q49 0 83 38 t42 118l-90 6q-4 -33 -14.5 -45t-26.5 -12q-12 0 -27.5 9t-33 19.5t-38 19.5t-40.5 9q-49 0 -83 -39t-40 -116z" />
<glyph unicode="&#xd6;" horiz-adv-x="1060" d="M63 670q0 -156 33 -282t94.5 -216t147.5 -139t192 -49t193.5 49t148 139t93 216t32.5 282v53q0 156 -32.5 281.5t-93 216t-147.5 139.5t-194 49q-106 0 -192 -49t-147.5 -139.5t-94.5 -216t-33 -281.5v-53zM197 672v49q0 131 23.5 236.5t66.5 179t104.5 113.5t138.5 40 q76 0 138.5 -40t105.5 -113.5t66.5 -179t23.5 -236.5v-49q0 -131 -23.5 -236.5t-66.5 -179.5t-105.5 -114t-138.5 -40q-78 0 -139 40t-104 114t-66.5 179.5t-23.5 236.5zM346 1597q0 -31 22.5 -53t51.5 -22q31 0 53.5 22.5t22.5 52.5q0 29 -22.5 51.5t-53.5 22.5 q-29 0 -51.5 -22.5t-22.5 -51.5zM580 1597q0 -31 22 -53t51 -22t52.5 22.5t23.5 52.5q0 29 -23.5 51.5t-52.5 22.5t-51 -22.5t-22 -51.5z" />
<glyph unicode="&#xd7;" d="M72 457q0 -37 26.5 -61.5t61.5 -24.5t60.5 24.5t25.5 61.5q0 39 -25.5 63.5t-60.5 24.5t-61.5 -24.5t-26.5 -63.5z" />
<glyph unicode="&#xd8;" horiz-adv-x="1060" d="M59 20l93 -51l88 144q57 -61 129.5 -95t160.5 -34q106 0 193.5 50t149 140t94 217t32.5 279v53q0 283 -110 465l112 184l-90 51l-88 -145q-59 61 -132 96t-161 35q-106 0 -192 -50t-147.5 -141.5t-94.5 -217.5t-33 -277v-53q0 -141 28 -258t81 -207zM197 672v49 q0 125 23.5 229.5t66.5 180t104.5 117.5t138.5 42q70 0 127.5 -32.5t98.5 -92.5l-506 -831q-53 141 -53 338zM307 223l504 834q53 -141 53 -336v-49q0 -125 -22.5 -229.5t-65.5 -180.5t-105.5 -118t-140.5 -42q-137 0 -223 121z" />
<glyph unicode="&#xd9;" horiz-adv-x="972" d="M121 375q0 -195 100 -293t264 -98q166 0 266.5 98t100.5 293v1018h-131v-1014q0 -137 -62.5 -207t-173.5 -70t-172 70t-61 207v1014h-131v-1018zM334 1778l110 -271h99l-72 271h-137z" />
<glyph unicode="&#xda;" horiz-adv-x="972" d="M121 375q0 -195 100 -293t264 -98q166 0 266.5 98t100.5 293v1018h-131v-1014q0 -137 -62.5 -207t-173.5 -70t-172 70t-61 207v1014h-131v-1018zM430 1507h98l109 271h-135z" />
<glyph unicode="&#xdb;" horiz-adv-x="972" d="M121 375q0 -195 100 -293t264 -98q166 0 266.5 98t100.5 293v1018h-131v-1014q0 -137 -62.5 -207t-173.5 -70t-172 70t-61 207v1014h-131v-1018zM307 1503h105l80 113l75 -113h107l-178 266h-11z" />
<glyph unicode="&#xdc;" horiz-adv-x="972" d="M121 375q0 -195 100 -293t264 -98q166 0 266.5 98t100.5 293v1018h-131v-1014q0 -137 -62.5 -207t-173.5 -70t-172 70t-61 207v1014h-131v-1018zM315 1335q0 -29 20.5 -50t49.5 -21t51.5 21.5t22.5 49.5q0 29 -22.5 49.5t-51.5 20.5t-49.5 -20.5t-20.5 -49.5zM514 1335 q0 -29 21.5 -50t50.5 -21t50 21.5t21 49.5q0 29 -21.5 49.5t-49.5 20.5q-29 0 -50.5 -20.5t-21.5 -49.5z" />
<glyph unicode="&#xdd;" horiz-adv-x="907" d="M29 1393l360 -965v-428h131v428l359 965h-127l-230 -627q-10 -29 -21.5 -63.5t-20.5 -64.5t-15 -51.5t-6 -23.5q-2 4 -8.5 26.5t-15.5 52.5t-19 62.5t-21 61.5l-233 627h-133zM403 1507h99l108 271h-135z" />
<glyph unicode="&#xde;" horiz-adv-x="862" d="M129 0h129v188h66q117 0 207 37t152 104.5t94 161t32 203.5v27q0 113 -33 205t-95.5 158.5t-152.5 103.5t-204 37h-66v168h-129v-1393zM258 305v803h59q94 0 162 -27.5t112 -79t65.5 -124t21.5 -160.5v-21q0 -86 -20.5 -157.5t-64.5 -124t-112.5 -81t-163.5 -28.5h-59z " />
<glyph unicode="&#xdf;" horiz-adv-x="684" d="M78 0h123v1210q0 143 106 144q106 0 107 -144v-483q-47 -18 -80 -58.5t-33 -103.5v-10q0 -74 33 -122t88 -95q59 -51 89 -82t30 -78v-6q0 -41 -24.5 -64.5t-70.5 -23.5q-39 0 -66.5 13.5t-49.5 29.5l-54 -88q35 -27 75 -41t106 -14q92 0 146 51t54 139v12q0 80 -43 131.5 t-104 102.5q-47 39 -70.5 67.5t-23.5 71.5v8q0 37 27.5 60.5t82.5 27.5v559q0 123 -58 184.5t-163 61.5q-94 0 -160.5 -60.5t-66.5 -185.5v-1214z" />
<glyph unicode="&#xe0;" horiz-adv-x="583" d="M37 199q0 -109 56 -162t140 -53q53 0 92.5 22.5t63.5 63.5v-70h123v496q0 123 -61.5 180t-167.5 57q-72 0 -127.5 -21.5t-94.5 -60.5l64 -86q27 25 61.5 42.5t81.5 17.5q55 0 88 -30t33 -101v-68h-110q-104 0 -173 -54.5t-69 -162.5v-10zM139 1100l111 -271h98l-72 271 h-137zM156 201v10q0 61 35.5 89t95.5 28h102v-113q0 -61 -36 -97t-89 -36q-49 0 -78.5 29.5t-29.5 89.5z" />
<glyph unicode="&#xe1;" horiz-adv-x="583" d="M37 199q0 -109 56 -162t140 -53q53 0 92.5 22.5t63.5 63.5v-70h123v496q0 123 -61.5 180t-167.5 57q-72 0 -127.5 -21.5t-94.5 -60.5l64 -86q27 25 61.5 42.5t81.5 17.5q55 0 88 -30t33 -101v-68h-110q-104 0 -173 -54.5t-69 -162.5v-10zM156 201v10q0 61 35.5 89 t95.5 28h102v-113q0 -61 -36 -97t-89 -36q-49 0 -78.5 29.5t-29.5 89.5zM242 829h98l109 271h-136z" />
<glyph unicode="&#xe2;" horiz-adv-x="583" d="M37 199q0 -109 56 -162t140 -53q53 0 92.5 22.5t63.5 63.5v-70h123v496q0 123 -61.5 180t-167.5 57q-72 0 -127.5 -21.5t-94.5 -60.5l64 -86q27 25 61.5 42.5t81.5 17.5q55 0 88 -30t33 -101v-68h-110q-104 0 -173 -54.5t-69 -162.5v-10zM113 825h104l80 113l76 -113h106 l-178 267h-10zM156 201v10q0 61 35.5 89t95.5 28h102v-113q0 -61 -36 -97t-89 -36q-49 0 -78.5 29.5t-29.5 89.5z" />
<glyph unicode="&#xe3;" horiz-adv-x="583" d="M37 199q0 -109 56 -162t140 -53q53 0 92.5 22.5t63.5 63.5v-70h123v496q0 123 -61.5 180t-167.5 57q-72 0 -127.5 -21.5t-94.5 -60.5l64 -86q27 25 61.5 42.5t81.5 17.5q55 0 88 -30t33 -101v-68h-110q-104 0 -173 -54.5t-69 -162.5v-10zM100 838l90 -7q4 33 14.5 45.5 t26.5 12.5q12 0 27.5 -9.5t32 -19.5t36 -19.5t42.5 -9.5q49 0 82.5 38t42.5 118l-91 6q-4 -33 -14 -45t-27 -12q-12 0 -27.5 9t-32.5 19.5t-37.5 19.5t-41.5 9q-49 0 -83 -39t-40 -116zM156 201v10q0 61 35.5 89t95.5 28h102v-113q0 -61 -36 -97t-89 -36q-49 0 -78.5 29.5 t-29.5 89.5z" />
<glyph unicode="&#xe4;" horiz-adv-x="575" d="M37 199q0 -109 56 -162t140 -53q53 0 92.5 22.5t63.5 63.5v-70h123v496q0 123 -61.5 180t-167.5 57q-72 0 -127.5 -21.5t-94.5 -60.5l64 -86q27 25 61.5 42.5t81.5 17.5q55 0 88 -30t33 -101v-68h-110q-104 0 -173 -54.5t-69 -162.5v-10zM106 920q0 -31 22.5 -53.5 t51.5 -22.5q31 0 53.5 22.5t22.5 53.5q0 29 -22.5 51t-53.5 22q-29 0 -51.5 -22.5t-22.5 -50.5zM156 201v10q0 61 35.5 89t95.5 28h102v-113q0 -61 -36 -97t-89 -36q-49 0 -78.5 29.5t-29.5 89.5zM340 920q0 -31 22.5 -53.5t51.5 -22.5t52 22.5t23 53.5q0 29 -23.5 51 t-51.5 22q-29 0 -51.5 -22.5t-22.5 -50.5z" />
<glyph unicode="&#xe5;" horiz-adv-x="583" d="M37 199q0 -109 56 -162t140 -53q53 0 92.5 22.5t63.5 63.5v-70h123v496q0 123 -61.5 180t-167.5 57q-72 0 -127.5 -21.5t-94.5 -60.5l64 -86q27 25 61.5 42.5t81.5 17.5q55 0 88 -30t33 -101v-68h-110q-104 0 -173 -54.5t-69 -162.5v-10zM150 958q0 -59 43 -101t104 -42 t104 42t43 101t-43 102.5t-104 43.5t-104 -43t-43 -103zM156 201v10q0 61 35.5 89t95.5 28h102v-113q0 -61 -36 -97t-89 -36q-49 0 -78.5 29.5t-29.5 89.5zM229 958q0 33 19.5 52.5t48.5 19.5q31 0 49.5 -19.5t18.5 -52.5q0 -35 -18.5 -53t-49.5 -18q-29 0 -48.5 18.5 t-19.5 52.5z" />
<glyph unicode="&#xe6;" horiz-adv-x="962" d="M37 199q0 -109 57.5 -162t159.5 -53q63 0 119.5 29.5t89.5 88.5q70 -119 233 -118q68 0 116 17t83 44l-49 92q-29 -16 -65 -31.5t-85 -15.5q-90 0 -135 60.5t-49 171.5h412v49q0 160 -66.5 261t-193.5 101q-61 0 -110.5 -28.5t-82.5 -81.5q-45 111 -192 110 q-68 0 -123.5 -21.5t-94.5 -60.5l64 -86q27 25 61.5 42.5t81.5 17.5q55 0 88 -30t33 -101v-74h-110q-104 0 -173 -51.5t-69 -159.5v-10zM156 201v10q0 61 35.5 86t95.5 25h102v-105q0 -63 -36 -99t-89 -36q-49 0 -78.5 29.5t-29.5 89.5zM514 420q10 96 48.5 151.5 t101.5 55.5q66 0 98.5 -55.5t36.5 -151.5h-285z" />
<glyph unicode="&#xe7;" horiz-adv-x="522" d="M39 346q0 -129 48 -218t140 -124v-156h27q66 0 65 -55v-6q0 -29 -18 -42t-43 -13q-33 0 -57 14l-33 -70q16 -10 38.5 -16t57.5 -6q57 0 100.5 32.5t43.5 98.5v6q0 53 -30 83t-75 38v74q10 0 19.5 -1t19.5 -1q55 0 95 14t71 37l-49 94q-23 -16 -48.5 -26.5t-62.5 -10.5 q-86 0 -134 69.5t-48 186.5v21q0 117 50 186.5t130 69.5q35 0 56.5 -9.5t41.5 -21.5l54 92q-31 23 -67 35t-93 12q-66 0 -121 -26.5t-95 -73.5t-61.5 -114.5t-21.5 -149.5v-23z" />
<glyph unicode="&#xe8;" horiz-adv-x="614" d="M39 346q0 -164 78.5 -263t230.5 -99q68 0 116 17t83 44l-49 92q-29 -16 -65 -31.5t-85 -15.5q-88 0 -133 57.5t-51 165.5h411v56q0 162 -66.5 263t-193.5 101q-61 0 -112 -26.5t-88 -74.5t-56.5 -114.5t-19.5 -148.5v-23zM166 412q8 98 45.5 156.5t103.5 58.5t98.5 -56.5 t37.5 -158.5h-285zM170 1100l111 -271h98l-72 271h-137z" />
<glyph unicode="&#xe9;" horiz-adv-x="614" d="M39 346q0 -164 78.5 -263t230.5 -99q68 0 116 17t83 44l-49 92q-29 -16 -65 -31.5t-85 -15.5q-88 0 -133 57.5t-51 165.5h411v56q0 162 -66.5 263t-193.5 101q-61 0 -112 -26.5t-88 -74.5t-56.5 -114.5t-19.5 -148.5v-23zM166 412q8 98 45.5 156.5t103.5 58.5t98.5 -56.5 t37.5 -158.5h-285zM272 829h99l108 271h-135z" />
<glyph unicode="&#xea;" horiz-adv-x="614" d="M39 346q0 -164 78.5 -263t230.5 -99q68 0 116 17t83 44l-49 92q-29 -16 -65 -31.5t-85 -15.5q-88 0 -133 57.5t-51 165.5h411v56q0 162 -66.5 263t-193.5 101q-61 0 -112 -26.5t-88 -74.5t-56.5 -114.5t-19.5 -148.5v-23zM143 825h105l80 113l75 -113h107l-178 267h-10z M166 412q8 98 45.5 156.5t103.5 58.5t98.5 -56.5t37.5 -158.5h-285z" />
<glyph unicode="&#xeb;" horiz-adv-x="614" d="M39 346q0 -164 78.5 -263t230.5 -99q68 0 116 17t83 44l-49 92q-29 -16 -65 -31.5t-85 -15.5q-88 0 -133 57.5t-51 165.5h411v56q0 162 -66.5 263t-193.5 101q-61 0 -112 -26.5t-88 -74.5t-56.5 -114.5t-19.5 -148.5v-23zM137 920q0 -31 22.5 -53.5t51.5 -22.5 q31 0 53.5 22.5t22.5 53.5q0 29 -22.5 51t-53.5 22q-29 0 -51.5 -22.5t-22.5 -50.5zM166 412q8 98 45.5 156.5t103.5 58.5t98.5 -56.5t37.5 -158.5h-285zM371 920q0 -31 22 -53.5t51 -22.5t52.5 22.5t23.5 53.5q0 29 -23.5 51t-52.5 22t-51 -22.5t-22 -50.5z" />
<glyph unicode="&#xec;" horiz-adv-x="268" d="M-27 1100l111 -271h98l-71 271h-138zM72 0h121v715h-121v-715z" />
<glyph unicode="&#xed;" horiz-adv-x="276" d="M86 0h121v715h-121v-715zM90 829h98l109 271h-135z" />
<glyph unicode="&#xee;" horiz-adv-x="282" d="M-37 825h105l79 113l76 -113h107l-178 267h-11zM88 0h121v715h-121v-715z" />
<glyph unicode="&#xef;" horiz-adv-x="284" d="M-43 920q0 -31 22.5 -53.5t51.5 -22.5q31 0 53 22.5t22 53.5q0 29 -22.5 51t-52.5 22q-29 0 -51.5 -22.5t-22.5 -50.5zM88 0h121v715h-121v-715zM190 920q0 -31 22.5 -53.5t51.5 -22.5t52.5 22.5t23.5 53.5q0 29 -23.5 51t-52.5 22t-51.5 -22.5t-22.5 -50.5z" />
<glyph unicode="&#xf0;" horiz-adv-x="647" d="M39 342q0 -164 79 -261t206 -97q129 0 206.5 98t77.5 285v51q0 252 -55 439t-158 335l107 78l-51 67l-107 -77q-39 47 -83 91t-91 85l-59 -74q39 -41 74.5 -82t70.5 -86l-111 -80l52 -65l106 77q61 -100 104.5 -221t63.5 -280q-29 47 -70 77.5t-102 30.5 q-53 0 -101 -25.5t-83 -72.5t-55.5 -113.5t-20.5 -146.5v-33zM166 344v29q0 117 43 185.5t115 68.5q74 0 115.5 -69t41.5 -185v-29q0 -117 -41.5 -186.5t-115.5 -69.5q-72 0 -115 69.5t-43 186.5z" />
<glyph unicode="&#xf1;" horiz-adv-x="647" d="M78 0h123v473q0 70 39 109t98 39q53 0 85 -33t32 -103v-485h123v500q0 117 -57.5 175t-143.5 58q-61 0 -106.5 -28.5t-69.5 -75.5v86h-123v-715zM133 838l90 -7q4 33 14.5 45.5t26.5 12.5q12 0 27.5 -9.5t32 -19.5t36 -19.5t41.5 -9.5q49 0 83 38t42 118l-90 6 q-4 -33 -14 -45t-27 -12q-12 0 -27.5 9t-33 19.5t-38 19.5t-40.5 9q-49 0 -83 -39t-40 -116z" />
<glyph unicode="&#xf2;" horiz-adv-x="649" d="M39 344q0 -82 20.5 -148.5t58.5 -113.5t90 -72.5t118 -25.5q133 0 208.5 98t75.5 262v27q0 164 -75.5 263t-208.5 99q-66 0 -118 -26.5t-90 -73.5t-58.5 -113.5t-20.5 -148.5v-27zM166 346v25q0 117 43 186.5t115 69.5q76 0 117.5 -70t41.5 -186v-25q0 -117 -41.5 -187.5 t-117.5 -70.5q-72 0 -115 70.5t-43 187.5zM176 1100l111 -271h98l-72 271h-137z" />
<glyph unicode="&#xf3;" horiz-adv-x="649" d="M39 344q0 -82 20.5 -148.5t58.5 -113.5t90 -72.5t118 -25.5q133 0 208.5 98t75.5 262v27q0 164 -75.5 263t-208.5 99q-66 0 -118 -26.5t-90 -73.5t-58.5 -113.5t-20.5 -148.5v-27zM166 346v25q0 117 43 186.5t115 69.5q76 0 117.5 -70t41.5 -186v-25q0 -117 -41.5 -187.5 t-117.5 -70.5q-72 0 -115 70.5t-43 187.5zM279 829h98l108 271h-135z" />
<glyph unicode="&#xf4;" horiz-adv-x="649" d="M39 344q0 -82 20.5 -148.5t58.5 -113.5t90 -72.5t118 -25.5q133 0 208.5 98t75.5 262v27q0 164 -75.5 263t-208.5 99q-66 0 -118 -26.5t-90 -73.5t-58.5 -113.5t-20.5 -148.5v-27zM150 825h104l80 113l76 -113h106l-178 267h-10zM166 346v25q0 117 43 186.5t115 69.5 q76 0 117.5 -70t41.5 -186v-25q0 -117 -41.5 -187.5t-117.5 -70.5q-72 0 -115 70.5t-43 187.5z" />
<glyph unicode="&#xf5;" horiz-adv-x="649" d="M39 344q0 -82 20.5 -148.5t58.5 -113.5t90 -72.5t118 -25.5q133 0 208.5 98t75.5 262v27q0 164 -75.5 263t-208.5 99q-66 0 -118 -26.5t-90 -73.5t-58.5 -113.5t-20.5 -148.5v-27zM137 838l90 -7q4 33 14.5 45.5t26.5 12.5q12 0 27.5 -9.5t32 -19.5t36 -19.5t42.5 -9.5 q49 0 82.5 38t41.5 118l-90 6q-4 -33 -14 -45t-27 -12q-12 0 -27.5 9t-32.5 19.5t-37.5 19.5t-41.5 9q-49 0 -83 -39t-40 -116zM166 346v25q0 117 43 186.5t115 69.5q76 0 117.5 -70t41.5 -186v-25q0 -117 -41.5 -187.5t-117.5 -70.5q-72 0 -115 70.5t-43 187.5z" />
<glyph unicode="&#xf6;" horiz-adv-x="649" d="M39 344q0 -82 20.5 -148.5t58.5 -113.5t90 -72.5t118 -25.5q133 0 208.5 98t75.5 262v27q0 164 -75.5 263t-208.5 99q-66 0 -118 -26.5t-90 -73.5t-58.5 -113.5t-20.5 -148.5v-27zM143 920q0 -31 22.5 -53.5t51.5 -22.5q31 0 53.5 22.5t22.5 53.5q0 29 -22.5 51t-53.5 22 q-29 0 -51.5 -22.5t-22.5 -50.5zM166 346v25q0 117 43 186.5t115 69.5q76 0 117.5 -70t41.5 -186v-25q0 -117 -41.5 -187.5t-117.5 -70.5q-72 0 -115 70.5t-43 187.5zM377 920q0 -31 22.5 -53.5t51.5 -22.5t52 22.5t23 53.5q0 29 -23.5 51t-51.5 22q-29 0 -51.5 -22.5 t-22.5 -50.5z" />
<glyph unicode="&#xf7;" d="M72 457q0 -37 26.5 -61.5t61.5 -24.5t60.5 24.5t25.5 61.5q0 39 -25.5 63.5t-60.5 24.5t-61.5 -24.5t-26.5 -63.5z" />
<glyph unicode="&#xf8;" horiz-adv-x="645" d="M31 -2l69 -47l60 88q72 -55 164 -55q129 0 206.5 97t77.5 261v33q0 141 -61 237l65 99l-71 45l-54 -78q-72 55 -163 55q-63 0 -115.5 -25.5t-90.5 -72.5t-58.5 -113.5t-20.5 -146.5v-33q0 -145 63 -240zM162 342v33q0 119 44 187.5t118 68.5q61 0 102 -45l-250 -371 q-14 49 -14 127zM221 129l250 371q16 -55 16 -125v-33q0 -121 -44.5 -189.5t-118.5 -68.5q-61 0 -103 45z" />
<glyph unicode="&#xf9;" horiz-adv-x="647" d="M70 217q0 -117 56 -175t144 -58q61 0 106.5 28.5t69.5 75.5v-88h123v715h-123v-471q0 -70 -38.5 -109t-98.5 -39q-53 0 -84.5 33t-31.5 100v486h-123v-498zM172 1100l111 -271h98l-72 271h-137z" />
<glyph unicode="&#xfa;" horiz-adv-x="647" d="M70 217q0 -117 56 -175t144 -58q61 0 106.5 28.5t69.5 75.5v-88h123v715h-123v-471q0 -70 -38.5 -109t-98.5 -39q-53 0 -84.5 33t-31.5 100v486h-123v-498zM274 829h99l108 271h-135z" />
<glyph unicode="&#xfb;" horiz-adv-x="647" d="M70 217q0 -117 56 -175t144 -58q61 0 106.5 28.5t69.5 75.5v-88h123v715h-123v-471q0 -70 -38.5 -109t-98.5 -39q-53 0 -84.5 33t-31.5 100v486h-123v-498zM145 825h105l80 113l76 -113h106l-178 267h-10z" />
<glyph unicode="&#xfc;" horiz-adv-x="647" d="M70 217q0 -117 56 -175t144 -58q61 0 106.5 28.5t69.5 75.5v-88h123v715h-123v-471q0 -70 -38.5 -109t-98.5 -39q-53 0 -84.5 33t-31.5 100v486h-123v-498zM139 920q0 -31 22.5 -53.5t51.5 -22.5q31 0 53.5 22.5t22.5 53.5q0 29 -22.5 51t-53.5 22q-29 0 -51.5 -22.5 t-22.5 -50.5zM373 920q0 -31 22 -53.5t51 -22.5t52.5 22.5t23.5 53.5q0 29 -23.5 51t-52.5 22t-51 -22.5t-22 -50.5z" />
<glyph unicode="&#xfd;" horiz-adv-x="579" d="M14 715l222 -641l-154 -494h119l364 1135h-121l-106 -342q-8 -25 -15.5 -50.5t-12.5 -49t-9 -40t-4 -18.5q-4 10 -15.5 60.5t-27.5 97.5l-113 342h-127zM244 829h98l109 271h-136z" />
<glyph unicode="&#xfe;" horiz-adv-x="679" d="M78 -426h123v526q31 -57 74.5 -86.5t109.5 -29.5q109 0 182.5 93t73.5 269v23q0 176 -73.5 270t-180.5 94q-66 0 -112 -31.5t-74 -85.5v820h-123v-1862zM199 348v21q0 115 41 185.5t116 70.5q76 0 117 -71t41 -185v-21q0 -117 -41 -187.5t-117 -70.5t-116.5 70.5 t-40.5 187.5z" />
<glyph unicode="&#xff;" horiz-adv-x="579" d="M14 715l222 -641l-154 -494h119l364 1135h-121l-106 -342q-8 -25 -15.5 -50.5t-12.5 -49t-9 -40t-4 -18.5q-4 10 -15.5 60.5t-27.5 97.5l-113 342h-127zM109 920q0 -31 22 -53.5t51 -22.5q31 0 53.5 22.5t22.5 53.5q0 29 -22.5 51t-53.5 22q-29 0 -51 -22.5t-22 -50.5z M342 920q0 -31 22.5 -53.5t51.5 -22.5t52.5 22.5t23.5 53.5q0 29 -24 51t-52 22q-29 0 -51.5 -22.5t-22.5 -50.5z" />
<glyph unicode="&#x152;" horiz-adv-x="1386" d="M63 668q0 -147 37 -270.5t108 -211.5t174 -137t236 -49h701v117h-490v352h402v117h-402v690h469v117h-680q-135 0 -238.5 -49.5t-174 -138.5t-106.5 -211t-36 -269v-57zM197 672v49q0 123 27.5 225.5t80.5 175t134 113.5t188 41h73v-1159h-73q-111 0 -192 40t-134 113.5 t-78.5 176t-25.5 225.5z" />
<glyph unicode="&#x153;" horiz-adv-x="1054" d="M39 342q0 -164 79 -261t206 -97q76 0 132 36.5t91 102.5q35 -66 93 -102.5t151 -36.5q68 0 115.5 17t82.5 44l-49 92q-29 -16 -64.5 -31.5t-84.5 -15.5q-88 0 -133.5 57.5t-51.5 165.5h412v56q0 162 -66.5 263t-193.5 101q-74 0 -127 -37t-84 -102q-35 66 -91.5 102.5 t-131.5 36.5q-63 0 -115.5 -25.5t-90.5 -72.5t-58.5 -113.5t-20.5 -146.5v-33zM166 344v29q0 117 43 185.5t115 68.5q74 0 115.5 -69t41.5 -185v-29q0 -117 -41.5 -186.5t-115.5 -69.5q-72 0 -115 69.5t-43 186.5zM608 412q8 98 46 156.5t104 58.5t98.5 -56.5t36.5 -158.5 h-285z" />
<glyph unicode="&#x178;" horiz-adv-x="907" d="M29 1393l360 -965v-428h131v428l359 965h-127l-230 -627q-10 -29 -21.5 -63.5t-20.5 -64.5t-15 -51.5t-6 -23.5q-2 4 -8.5 26.5t-15.5 52.5t-19 62.5t-21 61.5l-233 627h-133zM274 1331q0 -31 22.5 -53.5t51.5 -22.5q31 0 53.5 22.5t22.5 53.5q0 29 -22.5 51.5 t-53.5 22.5q-29 0 -51.5 -22.5t-22.5 -51.5zM496 1331q0 -31 22 -53.5t51 -22.5t52.5 22.5t23.5 53.5q0 29 -23.5 51.5t-52.5 22.5t-51 -22.5t-22 -51.5z" />
<glyph unicode="&#x2c6;" horiz-adv-x="667" d="M150 825h104l80 113l76 -113h106l-178 267h-10z" />
<glyph unicode="&#x2dc;" horiz-adv-x="667" d="M137 838l90 -7q4 33 14.5 45.5t26.5 12.5q12 0 27.5 -9.5t32 -19.5t36 -19.5t42.5 -9.5q49 0 82.5 38t41.5 118l-90 6q-4 -33 -14 -45t-27 -12q-12 0 -27.5 9t-32.5 19.5t-37.5 19.5t-41.5 9q-49 0 -83 -39t-40 -116z" />
<glyph unicode="&#x2000;" horiz-adv-x="889" />
<glyph unicode="&#x2001;" horiz-adv-x="1778" />
<glyph unicode="&#x2002;" horiz-adv-x="889" />
<glyph unicode="&#x2003;" horiz-adv-x="1778" />
<glyph unicode="&#x2004;" horiz-adv-x="592" />
<glyph unicode="&#x2005;" horiz-adv-x="444" />
<glyph unicode="&#x2006;" horiz-adv-x="296" />
<glyph unicode="&#x2007;" horiz-adv-x="296" />
<glyph unicode="&#x2008;" horiz-adv-x="222" />
<glyph unicode="&#x2009;" horiz-adv-x="355" />
<glyph unicode="&#x200a;" horiz-adv-x="98" />
<glyph unicode="&#x2010;" horiz-adv-x="380" d="M55 360h271v111h-271v-111z" />
<glyph unicode="&#x2011;" horiz-adv-x="380" d="M55 360h271v111h-271v-111z" />
<glyph unicode="&#x2012;" horiz-adv-x="380" d="M55 360h271v111h-271v-111z" />
<glyph unicode="&#x2013;" horiz-adv-x="571" d="M55 348h461v109h-461v-109z" />
<glyph unicode="&#x2014;" horiz-adv-x="950" d="M55 348h840v109h-840v-109z" />
<glyph unicode="&#x2018;" horiz-adv-x="290" d="M63 1159q0 -35 25.5 -59.5t58.5 -24.5q35 0 59.5 24.5t24.5 59.5q0 29 -15 49.5t-38 28.5l45 156h-65l-74 -160q-10 -23 -15.5 -39t-5.5 -35z" />
<glyph unicode="&#x2019;" horiz-adv-x="290" d="M59 1323q0 -29 16.5 -49.5t39.5 -26.5l-47 -157h65l76 161q18 39 18 72q0 37 -24.5 60.5t-59.5 23.5q-33 0 -58.5 -23.5t-25.5 -60.5z" />
<glyph unicode="&#x201a;" horiz-adv-x="290" d="M59 78q0 -29 16.5 -49.5t39.5 -26.5l-47 -156h65l76 160q10 23 14 38t4 34q0 37 -24.5 60.5t-59.5 23.5q-33 0 -58.5 -23.5t-25.5 -60.5z" />
<glyph unicode="&#x201c;" horiz-adv-x="538" d="M63 1159q0 -35 25.5 -59.5t58.5 -24.5q35 0 59.5 24.5t24.5 59.5q0 29 -15 49.5t-38 28.5l45 156h-65l-74 -160q-10 -23 -15.5 -39t-5.5 -35zM311 1159q0 -35 24.5 -59.5t59.5 -24.5q33 0 58.5 24.5t25.5 59.5q0 29 -15 49.5t-38 28.5l45 156h-65l-76 -160 q-10 -23 -14.5 -39t-4.5 -35z" />
<glyph unicode="&#x201d;" horiz-adv-x="538" d="M59 1323q0 -29 16.5 -49.5t39.5 -26.5l-47 -157h65l76 161q18 39 18 72q0 37 -24.5 60.5t-59.5 23.5q-33 0 -58.5 -23.5t-25.5 -60.5zM307 1323q0 -29 15.5 -49.5t37.5 -26.5l-45 -157h66l74 161q10 20 15 37t5 35q0 37 -25.5 60.5t-58.5 23.5q-35 0 -59.5 -23.5 t-24.5 -60.5z" />
<glyph unicode="&#x201e;" horiz-adv-x="538" d="M59 78q0 -29 16.5 -49.5t39.5 -26.5l-47 -156h65l76 160q10 23 14 38t4 34q0 37 -24.5 60.5t-59.5 23.5q-33 0 -58.5 -23.5t-25.5 -60.5zM307 78q0 -29 15.5 -49.5t37.5 -26.5l-45 -156h66l74 160q10 23 15 38t5 34q0 37 -25.5 60.5t-58.5 23.5q-35 0 -59.5 -23.5 t-24.5 -60.5z" />
<glyph unicode="&#x2022;" horiz-adv-x="425" d="M66 453q0 -61 44 -104.5t103 -43.5t103 43t44 105q0 63 -44 105t-103 42t-103 -42t-44 -105z" />
<glyph unicode="&#x2026;" horiz-adv-x="942" d="M66 76q0 -37 26.5 -61.5t61.5 -24.5t60.5 24.5t25.5 61.5q0 39 -26 63.5t-60 24.5q-35 0 -61.5 -24.5t-26.5 -63.5zM385 76q0 -37 25.5 -61.5t60.5 -24.5t61.5 24.5t26.5 61.5q0 39 -26.5 63.5t-61.5 24.5t-60.5 -24.5t-25.5 -63.5zM702 76q0 -37 27 -61.5t62 -24.5 t60.5 24.5t25.5 61.5q0 39 -26 63.5t-60 24.5q-35 0 -62 -24.5t-27 -63.5z" />
<glyph unicode="&#x202f;" horiz-adv-x="355" />
<glyph unicode="&#x2039;" horiz-adv-x="311" d="M43 356l107 -254h116l-106 258l106 254h-116l-107 -249v-9z" />
<glyph unicode="&#x203a;" horiz-adv-x="313" d="M45 102h119l106 250v8l-106 254h-119l107 -258z" />
<glyph unicode="&#x205f;" horiz-adv-x="444" />
<glyph unicode="&#x20ac;" horiz-adv-x="825" d="M45 350h121q41 -176 145.5 -271t251.5 -95q80 0 133.5 22.5t94.5 56.5l-58 99q-33 -27 -70.5 -45.5t-91.5 -18.5q-104 0 -173.5 64.5t-100.5 187.5h295v101h-311q-2 23 -3.5 46t-1.5 50v4h316v100h-313q10 186 85.5 289.5t204.5 103.5q49 0 84 -16t66 -39l57 101 q-41 33 -90 52t-119 19q-90 0 -164.5 -34.5t-130 -100t-88 -161t-39.5 -214.5h-100v-100h100v-6v-49q0 -23 5 -45h-105v-101z" />
<glyph unicode="&#x2122;" horiz-adv-x="755" d="M43 1327h88v-303h80v303h86v66h-254v-66zM362 1024h76v197l86 -111l88 111v-197h74v375h-8l-154 -189l-153 189h-9v-375z" />
<glyph unicode="&#x25fc;" horiz-adv-x="716" d="M0 0v717h717v-717h-717z" />
<glyph unicode="&#xfb01;" horiz-adv-x="638" d="M31 614h75v-614h123v614h207v-614h123v715h-330v534q0 55 19.5 80t52.5 25q23 0 37 -6.5t24 -14.5l48 92q-18 16 -47 25.5t-74 9.5q-80 0 -131.5 -51t-51.5 -158v-536h-75v-101zM420 1012q0 -33 23.5 -55.5t54.5 -22.5t53 22.5t22 55.5q0 31 -22.5 53t-52.5 22 q-31 0 -54.5 -22.5t-23.5 -52.5z" />
<glyph unicode="&#xfb02;" horiz-adv-x="638" d="M31 614h75v-614h123v614h121v101h-121v497q0 141 105 142q53 0 77.5 -39t24.5 -105v-1210h123v1214q0 123 -60.5 184.5t-164.5 61.5q-100 0 -164 -60.5t-64 -182.5v-502h-75v-101z" />
</font>
</defs>
</svg>
