<?xml version="1.0" standalone="no"?>
<!DOCTYPE svg PUBLIC "-//W3C//DTD SVG 1.1//EN" "http://www.w3.org/Graphics/SVG/1.1/DTD/svg11.dtd" >
<svg xmlns="http://www.w3.org/2000/svg">
<metadata></metadata>
<defs>
<font id="neutrafacecondensedpsbold" horiz-adv-x="675" >
<font-face units-per-em="2048" ascent="1638" descent="-410" />
<missing-glyph horiz-adv-x="372" />
<glyph horiz-adv-x="0" />
<glyph unicode="&#xd;" horiz-adv-x="1024" />
<glyph unicode=" "  horiz-adv-x="372" />
<glyph unicode="&#x09;" horiz-adv-x="372" />
<glyph unicode="&#xa0;" horiz-adv-x="372" />
<glyph unicode="!" horiz-adv-x="444" d="M88 123q0 -59 41 -96t94 -37t93 36.5t40 96.5q0 59 -40 96t-93 37t-94 -37t-41 -96zM111 1393l20 -983h180l21 983h-221z" />
<glyph unicode="&#x22;" horiz-adv-x="628" d="M63 1393l19 -414h172l18 414h-209zM356 1393l19 -414h172l18 414h-209z" />
<glyph unicode="#" horiz-adv-x="845" d="M49 483h107l-35 -196h160l34 196h125l-34 -196h159l35 196h139v160h-108l24 137h142v160h-113l39 209h-160l-39 -209h-125l39 209h-159l-39 -209h-134v-160h105l-25 -137h-137v-160zM346 643l25 137h125l-25 -137h-125z" />
<glyph unicode="$" horiz-adv-x="720" d="M14 111q45 -47 103.5 -78t136.5 -41v-209h190v219q109 31 167.5 109.5t58.5 185.5v18q0 100 -49.5 173t-143.5 147l-86 67q-66 51 -97.5 87t-31.5 88v8q0 45 34 73.5t81 28.5q53 0 88 -15.5t63 -37.5l99 149q-41 29 -84 48.5t-99 27.5v176h-190v-190q-88 -29 -138 -98.5 t-50 -165.5v-13q0 -104 48 -172.5t134 -136.5l84 -67q76 -61 105.5 -99.5t29.5 -85.5v-12q0 -55 -39 -92t-111 -37q-61 0 -105 25.5t-79 60.5z" />
<glyph unicode="%" horiz-adv-x="1314" d="M41 866q0 -61 21.5 -112.5t58.5 -88t87 -57t107 -20.5t107.5 20.5t87.5 57t58.5 88t21.5 112.5v21q0 61 -21.5 112.5t-58.5 88t-87 57t-108 20.5q-57 0 -107 -20.5t-87 -57t-58.5 -88t-21.5 -112.5v-21zM217 868v17q0 61 27.5 93t70.5 32t71 -32t28 -93v-17 q0 -61 -28 -93t-71 -32t-70.5 32t-27.5 93zM270 0h183l591 1149h-182zM725 262q0 -61 21.5 -112.5t58.5 -88t87 -57t107 -20.5t107.5 20.5t87.5 57t58.5 88t21.5 112.5v21q0 61 -21.5 112t-58.5 88t-87 57.5t-108 20.5q-57 0 -107 -20.5t-87 -57.5t-58.5 -88t-21.5 -112v-21 zM901 264v17q0 61 27.5 93t70.5 32t71 -32t28 -93v-17q0 -61 -28 -93t-71 -32t-70.5 32t-27.5 93z" />
<glyph unicode="&#x26;" horiz-adv-x="1062" d="M49 369q0 -90 31 -162t85 -121t130 -75.5t166 -26.5q174 0 297 92l47 -76h233l-145 231q45 82 68.5 187.5t23.5 234.5v74h-194v-70q0 -131 -25 -225l-203 326q111 68 169.5 148.5t58.5 195.5v16q0 129 -79 210t-212 81q-129 0 -214 -82t-85 -229v-19q0 -61 25.5 -130.5 t80.5 -155.5q-125 -74 -191.5 -168.5t-66.5 -235.5v-20zM268 377v18q0 86 33 146.5t94 109.5l262 -418q-71 -63 -184 -63q-88 0 -146.5 52t-58.5 155zM401 1090v12q0 59 27 95t74 36q43 0 67.5 -36t24.5 -93v-12q0 -121 -115 -203q-41 59 -59.5 105.5t-18.5 95.5z" />
<glyph unicode="'" horiz-adv-x="335" d="M63 1393l19 -414h172l18 414h-209z" />
<glyph unicode="(" horiz-adv-x="538" d="M68 582q0 -154 25.5 -280t68.5 -230.5t98.5 -189t116.5 -156.5l129 92q-53 76 -94 157.5t-71 175t-45 201t-15 234.5v20q0 127 15 234.5t45 201t71 174t94 158.5l-129 92q-61 -72 -116.5 -156.5t-98.5 -189t-68.5 -230.5t-25.5 -280v-28z" />
<glyph unicode=")" horiz-adv-x="538" d="M33 -182l129 -92q61 72 116.5 156.5t98.5 189t68.5 230.5t25.5 280v28q0 154 -25.5 280t-68.5 230.5t-98.5 189.5t-116.5 156l-129 -92q51 -78 93 -158.5t71.5 -174t45 -201t15.5 -234.5v-20q0 -127 -15.5 -234.5t-45 -201t-71.5 -175t-93 -157.5z" />
<glyph unicode="*" horiz-adv-x="595" d="M49 1071l74 -129l121 100l-23 -174h152l-23 174l121 -100l76 129l-148 59l148 62l-76 127l-121 -100l23 174h-152l23 -174l-121 100l-74 -127l148 -62z" />
<glyph unicode="+" horiz-adv-x="665" d="M68 487h172v-198h186v198h172v179h-172v198h-186v-198h-172v-179z" />
<glyph unicode="," horiz-adv-x="382" d="M57 123q0 -43 22.5 -74t55.5 -47l-59 -199h104l101 189q20 37 32.5 66.5t12.5 64.5q0 59 -40 96t-93 37t-94.5 -37t-41.5 -96z" />
<glyph unicode="-" horiz-adv-x="448" d="M59 348h330v180h-330v-180z" />
<glyph unicode="." horiz-adv-x="382" d="M57 123q0 -59 41.5 -96t94.5 -37t93 36.5t40 96.5q0 59 -40 96t-93 37t-94.5 -37t-41.5 -96z" />
<glyph unicode="/" horiz-adv-x="692" d="M-4 -262h199l444 1716h-199z" />
<glyph unicode="0" horiz-adv-x="923" d="M43 555q0 -137 30.5 -243.5t87 -179.5t133.5 -110.5t169 -37.5q90 0 167 37.5t132 110.5t87 179.5t32 243.5v41q0 137 -32 243.5t-87 178.5t-132 109.5t-167 37.5q-92 0 -169 -37.5t-133.5 -109.5t-87 -178.5t-30.5 -243.5v-41zM258 561v29q0 203 54.5 296t150.5 93 t149.5 -93t53.5 -296v-29q0 -203 -53.5 -297t-149.5 -94t-150.5 94t-54.5 297z" />
<glyph unicode="1" horiz-adv-x="487" d="M37 971h131v-971h209v1149h-340v-178z" />
<glyph unicode="2" horiz-adv-x="751" d="M12 0h676v176h-338l148 221q94 139 137 237.5t43 194.5v23q0 143 -89 228t-237 85q-119 0 -192.5 -48t-120.5 -134l154 -111q29 47 60.5 78t86.5 31q53 0 89 -35t36 -108v-19q0 -74 -33 -145.5t-98 -171.5l-322 -488v-14z" />
<glyph unicode="3" horiz-adv-x="745" d="M27 102q47 -51 122 -84.5t181 -33.5q180 0 277.5 106.5t97.5 286.5v12q0 154 -71 242t-175 104l239 400v14h-614v-178h313l-215 -383l13 -19q23 12 53.5 20.5t62.5 8.5q76 0 128.5 -52t52.5 -157v-8q0 -104 -46.5 -160.5t-123.5 -56.5q-57 0 -100.5 21.5t-78.5 56.5z" />
<glyph unicode="4" horiz-adv-x="825" d="M37 176h436v-176h201v176h112v168h-112v825h-21l-616 -843v-150zM256 344l143 201q16 23 35 50.5t30 44.5t13 19q0 -2 -1 -21.5t-2 -50t-1 -55.5v-188h-217z" />
<glyph unicode="5" horiz-adv-x="733" d="M12 111q47 -49 117.5 -88t183.5 -39q174 0 277.5 103t103.5 278v12q0 92 -26.5 162.5t-71.5 116.5t-104.5 70t-124.5 24q-35 0 -61.5 -5.5t-41.5 -11.5v238h363v178h-539v-639l14 -8q33 35 81 57.5t114 22.5q78 0 130 -52.5t52 -150.5v-10q0 -104 -50 -154.5t-124 -50.5 q-55 0 -93 20.5t-75 57.5z" />
<glyph unicode="6" horiz-adv-x="790" d="M43 354q0 -82 26.5 -150.5t73.5 -117.5t111.5 -75.5t140.5 -26.5t141.5 26.5t111.5 74.5t73 116.5t27 152.5v27q0 82 -24 148.5t-66 113.5t-100 73.5t-128 26.5q-31 0 -49 -6l21 25q20 24 55 82l186 305h-227l-258 -426q-47 -78 -81 -170t-34 -178v-21zM250 356v25 q0 90 37 144.5t108 54.5q70 0 107 -56.5t37 -142.5v-25q0 -86 -37 -142t-107 -56t-107.5 56t-37.5 142z" />
<glyph unicode="7" horiz-adv-x="733" d="M43 971h406l-345 -971h213l396 1137v12h-670v-178z" />
<glyph unicode="8" horiz-adv-x="808" d="M33 332q0 -72 25.5 -135.5t73.5 -110.5t116.5 -74.5t154.5 -27.5t156 26.5t118 73.5t73.5 110.5t25.5 137.5v28q0 113 -49 184.5t-127 108.5q45 35 76 87.5t31 125.5v19q0 57 -22.5 108t-62.5 90t-96.5 60.5t-122.5 21.5t-121 -21.5t-96 -60.5t-63.5 -90t-22.5 -108v-19 q0 -74 31 -126t76 -87q-78 -37 -126 -108.5t-48 -184.5v-28zM244 350v23q0 90 45 142t114 52q72 0 116 -52t44 -142v-23q0 -92 -44 -143t-116 -51t-115.5 50t-43.5 144zM293 852v16q0 59 31.5 95t78.5 36q49 0 81 -35.5t32 -95.5v-16q0 -59 -32 -99t-81 -40q-47 0 -78.5 40 t-31.5 99z" />
<glyph unicode="9" horiz-adv-x="790" d="M43 764q0 -82 23.5 -147.5t66.5 -111.5t101.5 -71.5t130.5 -25.5q16 0 34.5 2t28.5 6q-4 -4 -23.5 -37t-42.5 -76l-153 -303h227l215 426q49 98 73 180t24 168v21q0 82 -27 150.5t-74 117.5t-111.5 75.5t-140.5 26.5q-78 0 -142.5 -26.5t-110.5 -75.5t-72.5 -119 t-26.5 -153v-27zM252 768v25q0 86 37 142t106 56q70 0 108 -56t38 -142v-25q0 -90 -37 -144.5t-109 -54.5q-70 0 -106.5 56.5t-36.5 142.5z" />
<glyph unicode=":" horiz-adv-x="401" d="M68 123q0 -59 40 -96t93 -37t93 36.5t40 96.5q0 59 -40 96t-93 37t-93 -37t-40 -96zM68 537q0 -59 40 -96.5t93 -37.5t93 37t40 97q0 59 -40 96t-93 37t-93 -37t-40 -96z" />
<glyph unicode=";" horiz-adv-x="401" d="M68 123q0 -43 21.5 -74t53.5 -47l-59 -199h104l101 189q20 37 32.5 66.5t12.5 64.5q0 59 -40 96t-93 37t-93 -37t-40 -96zM68 537q0 -59 40 -96.5t93 -37.5t93 37t40 97q0 59 -40 96t-93 37t-93 -37t-40 -96z" />
<glyph unicode="&#x3c;" horiz-adv-x="571" d="M51 522l451 -307v195l-187 120l187 121v195l-451 -303v-21z" />
<glyph unicode="=" horiz-adv-x="612" d="M68 313h477v179h-477v-179zM68 600h477v178h-477v-178z" />
<glyph unicode="&#x3e;" horiz-adv-x="571" d="M70 215l450 303v21l-450 307v-195l186 -121l-186 -120v-195z" />
<glyph unicode="?" horiz-adv-x="716" d="M12 1307l113 -152q31 29 68.5 48.5t91.5 19.5q86 0 126 -53.5t40 -139.5v-20q0 -98 -55.5 -147.5t-135.5 -49.5h-45v-403h188v245q129 29 196 121t67 234v24q0 178 -100.5 276.5t-262.5 98.5q-106 0 -175 -30.5t-116 -71.5zM172 123q0 -59 41 -96t94 -37t93 36.5t40 96.5 q0 59 -40 96t-93 37t-94 -37t-41 -96z" />
<glyph unicode="@" horiz-adv-x="1224" d="M47 332q0 -158 44 -278t121 -201.5t180 -123.5t224 -42q84 0 145.5 16t129.5 49l-64 127q-53 -27 -105 -40t-114 -13q-92 0 -166.5 32.5t-128 97t-83 160t-29.5 222.5v20q0 125 33.5 220.5t92 159t135.5 95t165 31.5q86 0 158.5 -26.5t127 -82t84 -142.5t29.5 -205v-21 q0 -129 -25.5 -192.5t-66.5 -63.5q-27 0 -40 17.5t-13 62.5v442h-197v-61q-23 37 -55.5 58.5t-81.5 21.5q-41 0 -80 -19.5t-69.5 -59.5t-49 -103.5t-18.5 -149.5v-27q0 -86 19.5 -148.5t52 -102t73.5 -59t84 -19.5q47 0 96.5 23.5t85.5 101.5q23 -59 67 -90t122 -31 q121 0 184.5 99t63.5 298v25q0 147 -44 258.5t-119 186.5t-176.5 112t-213.5 37q-117 0 -221.5 -42t-183.5 -125t-126 -204t-47 -277v-24zM530 315v25q0 84 18.5 124t63.5 40q41 0 58.5 -40t17.5 -124v-25q0 -86 -17.5 -125.5t-58.5 -39.5q-45 0 -63.5 39.5t-18.5 125.5z " />
<glyph unicode="A" horiz-adv-x="1001" d="M23 0h213l53 174h411l54 -174h225l-465 1405h-27zM344 352l100 318q8 29 17.5 62.5t16.5 63t12.5 51t7.5 25.5q0 -6 5 -28.5t12 -51t16.5 -62.5t17.5 -60l96 -318h-301z" />
<glyph unicode="B" horiz-adv-x="962" d="M111 0h350q221 0 336.5 110.5t115.5 292.5v27q0 135 -69.5 222t-175.5 118q78 35 120.5 99.5t42.5 162.5v19q0 154 -104 248t-285 94h-331v-1393zM319 184v488h134q123 0 184 -64.5t61 -173.5v-18q0 -109 -60 -170.5t-183 -61.5h-136zM319 844v364h117q90 0 138.5 -44 t48.5 -132v-12q0 -176 -181 -176h-123z" />
<glyph unicode="C" horiz-adv-x="919" d="M59 678q0 -164 37 -293t105.5 -218t168 -137t224.5 -48q102 0 168.5 23.5t118.5 57.5l-88 168q-41 -25 -82 -41t-97 -16q-166 0 -250.5 134t-84.5 376v25q0 240 87 372.5t246 132.5q53 0 90 -14t72 -35l88 172q-45 29 -108.5 50.5t-143.5 21.5q-129 0 -231.5 -48 t-173 -137t-108.5 -218t-38 -291v-37z" />
<glyph unicode="D" horiz-adv-x="1044" d="M111 0h292q135 0 244 48t184.5 137t115.5 214t40 281v33q0 158 -41 283.5t-116.5 213.5t-183 135.5t-243.5 47.5h-292v-1393zM326 188v1016h65q193 0 284 -129t91 -368v-21q0 -236 -98.5 -367t-276.5 -131h-65z" />
<glyph unicode="E" horiz-adv-x="860" d="M111 0h682v188h-469v261h381v188h-381v567h452v189h-665v-1393z" />
<glyph unicode="F" horiz-adv-x="813" d="M111 0h215v449h374v188h-374v567h432v189h-647v-1393z" />
<glyph unicode="G" horiz-adv-x="1032" d="M59 672q0 -160 36 -288t106.5 -217t176.5 -137t247 -48q53 0 103 10t93 26.5t78 34t57 33.5v551h-413v-188h221v-242q-31 -16 -71 -26.5t-83 -10.5q-172 0 -251.5 137t-79.5 371v37q0 231 83.5 365t249.5 134q68 0 118 -20t81 -39l94 174q-47 33 -117.5 56.5t-181.5 23.5 q-133 0 -235.5 -50t-172 -141.5t-104.5 -217.5t-35 -279v-49z" />
<glyph unicode="H" horiz-adv-x="1062" d="M111 0h215v449h411v-449h215v1393h-215v-756h-411v756h-215v-1393z" />
<glyph unicode="I" horiz-adv-x="448" d="M117 0h215v1393h-215v-1393z" />
<glyph unicode="J" horiz-adv-x="765" d="M12 115q55 -68 129 -99.5t174 -31.5q160 0 251 91t91 271v1047h-215v-1039q0 -100 -40 -139t-103 -39q-51 0 -86 22.5t-63 55.5z" />
<glyph unicode="K" horiz-adv-x="972" d="M111 0h213v342l104 166l287 -508h241l-389 696l357 697h-224l-376 -731v731h-213v-1393z" />
<glyph unicode="L" horiz-adv-x="813" d="M111 0h649v188h-434v1205h-215v-1393z" />
<glyph unicode="M" horiz-adv-x="1181" d="M111 0h206v672q0 25 -1 53.5t-1 52.5q0 25 -1 42l-1 16q2 -2 10.5 -16.5t21.5 -34t27.5 -42t28.5 -41.5l179 -249h18l180 249q14 20 29.5 44t29 44.5t22.5 34t9 15.5l-1 -18q-1 -17 -1 -42t-1 -54.5t-1 -53.5v-672h207v1405h-27l-450 -653l-457 653h-26v-1405z" />
<glyph unicode="N" horiz-adv-x="1030" d="M111 0h202v635q0 27 -1 61.5t-2 64.5t-2 50l-1 20q2 -4 12.5 -19t24.5 -38.5t30.5 -49.5t33.5 -46l485 -690h27v1405h-203v-645q0 -29 1 -64t2 -64.5t2 -50t1 -22.5q-2 4 -12.5 21.5t-24.5 40t-31.5 49t-31.5 49.5l-486 698h-26v-1405z" />
<glyph unicode="O" horiz-adv-x="1126" d="M59 678q0 -166 37 -296t103.5 -219t158.5 -135t205 -46t205 46t158.5 135t103.5 219t37 296v37q0 166 -37 295t-103.5 218t-158.5 135t-205 46t-205 -46t-158.5 -135t-103.5 -218t-37 -295v-37zM279 684v25q0 252 77.5 380t206.5 128t206 -128t77 -380v-25 q0 -252 -77 -380t-206 -128t-206.5 128t-77.5 380z" />
<glyph unicode="P" horiz-adv-x="933" d="M111 0h215v334h51q115 0 208 36t159.5 103.5t102.5 164.5t36 218v21q0 123 -37 218t-103.5 161.5t-160 101.5t-205.5 35h-266v-1393zM326 522v682h49q152 0 222.5 -88t70.5 -244v-16q0 -150 -71 -242t-222 -92h-49z" />
<glyph unicode="Q" horiz-adv-x="1126" d="M59 678q0 -297 110 -471t296 -211v-234h197v234q92 18 166.5 71.5t128 140.5t82 204.5t28.5 265.5v37q0 166 -37 295t-103.5 218t-158.5 135t-205 46t-205 -46t-158.5 -135t-103.5 -218t-37 -295v-37zM279 684v25q0 252 77.5 380t206.5 128t206 -128t77 -380v-25 q0 -209 -49 -333t-135 -165v211h-197v-211q-86 41 -136 165t-50 333z" />
<glyph unicode="R" horiz-adv-x="950" d="M111 0h215v340h65q25 0 49.5 2t48.5 6l187 -348h231l-229 420q98 63 156.5 174t58.5 262v21q0 123 -37 218t-102.5 161.5t-157.5 101.5t-205 35h-280v-1393zM326 518v686h63q150 0 219.5 -88t69.5 -244v-16q0 -150 -69.5 -244t-219.5 -94h-63z" />
<glyph unicode="S" horiz-adv-x="819" d="M10 121q61 -63 146.5 -101t208.5 -38q96 0 170.5 27.5t125 76.5t77 116.5t26.5 145.5v21q0 115 -52.5 200.5t-154.5 171.5l-139 117q-72 59 -105.5 106.5t-33.5 112.5v10q0 59 44 96.5t105 37.5t103 -18.5t79 -45.5l103 164q-61 43 -127 65.5t-164 22.5 q-78 0 -142.5 -23.5t-110.5 -66.5t-71.5 -103.5t-25.5 -132.5v-14q0 -59 13 -109.5t40 -93.5t64.5 -83t84.5 -81l136 -114q78 -66 109.5 -116t31.5 -112v-16q0 -78 -52.5 -125t-140.5 -47q-76 0 -128 30.5t-93 69.5z" />
<glyph unicode="T" horiz-adv-x="866" d="M41 1204h285v-1204h215v1204h284v189h-784v-189z" />
<glyph unicode="U" horiz-adv-x="1032" d="M104 410q0 -109 31 -189t85 -133t130 -79.5t166 -26.5t166 26.5t130 79.5t85 133t31 189v983h-215v-979q0 -115 -50.5 -175.5t-146.5 -60.5t-146.5 60.5t-50.5 175.5v979h-215v-983z" />
<glyph unicode="V" horiz-adv-x="995" d="M16 1393l471 -1403h29l463 1403h-209l-197 -605q-12 -37 -24 -80.5t-22.5 -82.5t-16.5 -65l-6 -25l-6 25q-6 26 -16.5 64t-23 83t-24.5 81l-198 605h-220z" />
<glyph unicode="W" horiz-adv-x="1374" d="M23 1393l358 -1403h27l219 651q10 33 22.5 73t21.5 73.5t16 57t7 25.5q0 -4 7.5 -28.5t16.5 -58t20.5 -71.5t21.5 -71l207 -651h26l359 1403h-205l-137 -557q-10 -39 -19.5 -83t-16.5 -82t-12 -63l-6 -24l-6 26q-6 25 -16 64t-22.5 84t-24.5 84l-180 565h-23l-180 -565 q-12 -39 -24.5 -83t-23 -82t-16.5 -64.5t-6 -28.5q0 4 -6 30.5t-14 63.5t-17.5 79t-17.5 79l-141 557h-215z" />
<glyph unicode="X" horiz-adv-x="1003" d="M33 0h219l168 385q14 33 27.5 67.5t24.5 64.5t18.5 49.5t7.5 21.5q2 -4 9 -24.5t17.5 -49.5t23.5 -63.5t27 -67.5l166 -383h230l-338 748l278 645h-219l-117 -303q-12 -31 -24 -65t-22.5 -63.5t-17.5 -49t-7 -21.5q-2 4 -9.5 23.5t-17.5 48t-21.5 62.5t-23.5 65l-117 303 h-227l283 -648z" />
<glyph unicode="Y" horiz-adv-x="968" d="M16 1393l363 -965v-428h215v430l358 963h-211l-182 -512q-12 -33 -23.5 -72t-20.5 -74t-16 -59.5t-7 -26.5q-2 6 -8.5 31t-16.5 58.5t-21.5 72.5t-23.5 70l-186 512h-220z" />
<glyph unicode="Z" horiz-adv-x="874" d="M20 0h795v188h-489l510 1188v17h-734v-189h428l-510 -1188v-16z" />
<glyph unicode="[" horiz-adv-x="532" d="M117 -262h360v174h-158v1368h158v174h-360v-1716z" />
<glyph unicode="\" horiz-adv-x="692" d="M53 1454l445 -1716h198l-444 1716h-199z" />
<glyph unicode="]" horiz-adv-x="532" d="M55 -88v-174h361v1716h-361v-174h158v-1368h-158z" />
<glyph unicode="^" horiz-adv-x="661" d="M57 938h179l94 176l94 -176h180l-264 481h-18z" />
<glyph unicode="_" horiz-adv-x="466" d="M-6 -84v-178h479v178h-479z" />
<glyph unicode="`" d="M133 1124l131 -290h156l-64 290h-223z" />
<glyph unicode="a" horiz-adv-x="622" d="M29 211q0 -115 55 -172t141 -57q90 0 142 77v-59h198v479q0 139 -69.5 202.5t-192.5 63.5q-84 0 -147.5 -20t-110.5 -61l94 -138q27 23 58.5 36t74.5 13q41 0 68 -22.5t27 -75.5v-37h-80q-121 0 -189.5 -56t-68.5 -163v-10zM223 215v8q0 37 16.5 57.5t57.5 20.5h70v-68 q0 -49 -21.5 -72.5t-56.5 -23.5q-29 0 -47.5 18.5t-18.5 59.5z" />
<glyph unicode="b" horiz-adv-x="724" d="M61 0h199v74q57 -92 170 -92q49 0 96 21.5t83 66.5t57.5 115.5t21.5 166.5v23q0 96 -21.5 166.5t-56.5 115.5t-82 66.5t-96 21.5q-121 0 -172 -90v781h-199v-1436zM256 354v19q0 96 29.5 148t83.5 52q55 0 84.5 -52t29.5 -148v-19q0 -96 -29.5 -148t-84.5 -52 q-53 0 -83 52t-30 148z" />
<glyph unicode="c" horiz-adv-x="559" d="M37 352q0 -174 85 -272t245 -98q59 0 103 13t69 32l-68 159q-16 -10 -37.5 -18t-50.5 -8q-66 0 -103.5 49t-37.5 145v21q0 96 40 144t95 48q29 0 47 -7t37 -17l78 153q-35 23 -75 36t-106 13q-72 0 -130 -25.5t-101 -72.5t-66.5 -116.5t-23.5 -155.5v-23z" />
<glyph unicode="d" horiz-adv-x="724" d="M37 352q0 -96 21.5 -166.5t57.5 -115.5t83 -66.5t96 -21.5q59 0 100 22.5t70 69.5v-74h199v1436h-199v-779q-51 88 -172 88q-49 0 -96 -21.5t-82 -66.5t-56.5 -115.5t-21.5 -166.5v-23zM242 354v19q0 96 29.5 148t84.5 52q53 0 83 -52t30 -148v-19q0 -96 -30 -148 t-83 -52q-55 0 -84.5 52t-29.5 148z" />
<glyph unicode="e" d="M37 354q0 -174 86 -273t260 -99q80 0 135 19t90 42l-78 156q-23 -14 -59.5 -28.5t-85.5 -14.5q-127 0 -141 137h397v78q0 168 -72.5 271t-220.5 103q-141 0 -226 -100t-85 -272v-19zM242 436q16 146 106 146q84 0 92 -146h-198z" />
<glyph unicode="f" horiz-adv-x="464" d="M27 565h69v-565h199v565h141v162h-141v481q0 51 17.5 71.5t39.5 20.5q23 0 34 -6t20 -12l67 148q-20 16 -53 28t-92 12q-104 0 -168 -63.5t-64 -200.5v-479h-69v-162z" />
<glyph unicode="g" horiz-adv-x="653" d="M20 -197v-8q0 -106 85 -171.5t221 -65.5q141 0 223 72.5t82 193.5v8q0 121 -71 184.5t-218 83.5q-70 10 -93.5 23.5t-23.5 38.5t25 39q30 -8 69 -8q47 0 95.5 16t86.5 49t62.5 84t24.5 121v12q0 35 -9.5 62.5t-23.5 50.5h66v139h-195q-49 18 -107 18q-47 0 -94 -16 t-86 -49t-62.5 -84t-23.5 -121v-12q0 -76 29 -127t68 -84q-39 -18 -64 -52t-25 -81q0 -41 19.5 -79t60.5 -58q-53 -23 -87 -65t-34 -114zM201 -176q0 47 31.5 73.5t80.5 26.5q59 0 92 -26.5t33 -73.5v-6q0 -47 -31.5 -75t-82.5 -28q-53 0 -88 28t-35 75v6zM238 465v8 q0 66 25.5 93.5t58.5 27.5q31 0 56 -27.5t25 -93.5v-8q0 -66 -25 -93.5t-56 -27.5q-33 0 -58.5 27.5t-25.5 93.5z" />
<glyph unicode="h" horiz-adv-x="690" d="M59 0h199v457q0 53 26.5 78.5t71.5 25.5q35 0 58.5 -22.5t23.5 -67.5v-471h199v494q0 127 -57.5 189t-143.5 62q-119 0 -178 -100v791h-199v-1436z" />
<glyph unicode="i" horiz-adv-x="321" d="M45 999q0 -49 35 -81.5t80 -32.5q47 0 80.5 32.5t33.5 81.5q0 51 -33.5 83t-80.5 32q-45 0 -80 -31.5t-35 -83.5zM61 0h199v727h-199v-727z" />
<glyph unicode="j" horiz-adv-x="321" d="M-92 -412q16 -10 48 -18t79 -8q111 0 168 62.5t57 178.5v924h-199v-920q0 -35 -16 -52t-41 -17q-16 0 -27.5 4t-19.5 8zM45 999q0 -49 35 -81.5t80 -32.5q47 0 80.5 32.5t33.5 81.5q0 51 -33.5 83t-80.5 32q-45 0 -80 -31.5t-35 -83.5z" />
<glyph unicode="k" horiz-adv-x="657" d="M59 0h199v193l45 65l131 -258h223l-225 438l205 289h-217l-162 -254v963h-199v-1436z" />
<glyph unicode="l" horiz-adv-x="321" d="M61 0h199v1436h-199v-1436z" />
<glyph unicode="m" horiz-adv-x="1028" d="M59 0h199v461q0 53 22.5 76.5t63.5 23.5q74 0 74 -86v-475h198v461q0 100 89 100q72 0 71 -86v-475h199v498q0 125 -57.5 186t-143.5 61q-57 0 -108.5 -25.5t-85.5 -78.5q-45 104 -154 104t-168 -98v80h-199v-727z" />
<glyph unicode="n" horiz-adv-x="688" d="M59 0h199v457q0 53 26.5 78.5t71.5 25.5q35 0 58.5 -22.5t23.5 -67.5v-471h199v494q0 127 -57.5 189t-143.5 62q-119 0 -178 -100v82h-199v-727z" />
<glyph unicode="o" horiz-adv-x="710" d="M37 350q0 -174 88 -271t231 -97q145 0 231.5 97t86.5 271v27q0 174 -86 271t-232 97q-143 0 -231 -97t-88 -271v-27zM242 352v25q0 100 29.5 149t82.5 49t83 -49t30 -149v-25q0 -100 -30 -150t-83 -50t-82.5 50t-29.5 150z" />
<glyph unicode="p" horiz-adv-x="724" d="M61 -420h199v494q57 -92 170 -92q49 0 96 21.5t83 66.5t57.5 115.5t21.5 166.5v23q0 96 -21.5 166.5t-56.5 115.5t-82 66.5t-96 21.5q-121 0 -172 -90v72h-199v-1147zM256 354v19q0 96 29.5 148t83.5 52q55 0 84.5 -52t29.5 -148v-19q0 -96 -29.5 -148t-84.5 -52 q-53 0 -83 52t-30 148z" />
<glyph unicode="q" horiz-adv-x="724" d="M37 352q0 -96 21.5 -166.5t57.5 -115.5t83 -66.5t96 -21.5q59 0 100 22.5t70 69.5v-494h199v1147h-199v-70q-51 88 -172 88q-49 0 -96 -21.5t-82 -66.5t-56.5 -115.5t-21.5 -166.5v-23zM242 354v19q0 96 29.5 148t84.5 52q53 0 83 -52t30 -148v-19q0 -96 -30 -148 t-83 -52q-55 0 -84.5 52t-29.5 148z" />
<glyph unicode="r" horiz-adv-x="489" d="M59 0h199v393q0 96 34 129t83 33q16 0 29.5 -4t29.5 -8l47 178q-16 10 -34.5 15t-40.5 5q-45 0 -84 -25.5t-64 -78.5v90h-199v-727z" />
<glyph unicode="s" horiz-adv-x="534" d="M14 78q84 -96 242 -96q119 0 185.5 59t66.5 154v10q0 80 -46 135t-122 100q-59 35 -87 53.5t-28 47.5v4q0 20 16.5 32.5t45.5 12.5q35 0 59.5 -11.5t40.5 -25.5l92 129q-41 31 -87 47t-111 16q-106 0 -170 -56t-64 -150v-9q0 -78 41 -129t107 -92q68 -43 96 -63.5 t28 -44.5v-6q0 -23 -17 -38.5t-58 -15.5t-72 18.5t-53 43.5z" />
<glyph unicode="t" horiz-adv-x="456" d="M27 565h69v-346q0 -125 54.5 -180t154.5 -55q51 0 87 12t59 29l-62 143q-8 -4 -19.5 -10t-27.5 -6q-23 0 -35 14t-12 53v346h129v162h-129v326h-199v-326h-69v-162z" />
<glyph unicode="u" horiz-adv-x="690" d="M53 236q0 -129 57.5 -191.5t143.5 -62.5q119 0 178 102v-84h199v727h-199v-455q0 -53 -26.5 -79.5t-71.5 -26.5q-35 0 -58.5 23.5t-23.5 66.5v471h-199v-491z" />
<glyph unicode="v" horiz-adv-x="643" d="M4 727l309 -739h23l303 739h-188l-78 -213q-8 -25 -18.5 -57.5t-16.5 -53t-6 -24.5q0 4 -6.5 24.5t-16.5 53t-18 57.5l-80 213h-207z" />
<glyph unicode="w" horiz-adv-x="876" d="M12 727l248 -739h21l125 291q6 14 13 33.5t13 36l10 27.5l4 11q2 -6 13.5 -43t25.5 -65l123 -291h21l235 739h-178l-65 -205q-14 -41 -23 -82l-8 -41l-14 40q-15 40 -29 81l-84 217h-21l-86 -217q-10 -27 -20 -55.5t-16.5 -46t-6.5 -19.5q0 2 -5 19.5t-13 47.5t-16 56 l-64 205h-203z" />
<glyph unicode="x" horiz-adv-x="663" d="M14 0h207l111 240l119 -240h213l-211 391l184 336h-207l-88 -201l-92 201h-213l184 -350z" />
<glyph unicode="y" horiz-adv-x="649" d="M4 727l242 -653l-162 -494h186l375 1147h-184l-86 -274q-6 -20 -13.5 -44t-11.5 -45.5t-8 -37t-4 -17.5q0 2 -4 17.5t-10.5 37t-12.5 45t-12 44.5l-90 274h-205z" />
<glyph unicode="z" horiz-adv-x="567" d="M18 0h506v160h-239l260 555v12h-484v-158h220l-263 -557v-12z" />
<glyph unicode="{" horiz-adv-x="591" d="M35 463h57q47 0 72.5 -24.5t25.5 -84.5v-356q0 -74 24 -124t61.5 -81t87 -43t98.5 -12h76v174h-68q-35 0 -55.5 19.5t-20.5 66.5v379q0 86 -37 125t-88 49q51 10 88 48t37 126v469q0 47 20.5 66.5t55.5 19.5h68v174h-76q-49 0 -98.5 -12t-87 -43t-61.5 -81t-24 -124v-449 q0 -59 -25.5 -83.5t-72.5 -24.5h-57v-174z" />
<glyph unicode="|" horiz-adv-x="438" d="M123 -262h192v1716h-192v-1716z" />
<glyph unicode="}" horiz-adv-x="591" d="M55 -88v-174h76q49 0 98.5 12t87 43t61 81t23.5 124v356q0 59 26 84t73 25h57v174h-57q-47 0 -73 24.5t-26 83.5v449q0 74 -23.5 124t-61 81t-87 43t-98.5 12h-76v-174h68q35 0 55.5 -19.5t20.5 -66.5v-469q0 -88 36.5 -126t88.5 -48q-51 -10 -88 -49t-37 -125v-379 q0 -47 -20.5 -66.5t-55.5 -19.5h-68z" />
<glyph unicode="~" horiz-adv-x="679" d="M59 422l154 -8q4 35 18.5 42t30.5 7t33.5 -9.5t38 -19.5t46.5 -19t58 -9q70 0 122 60t58 163l-149 8q-6 -35 -19.5 -42t-31.5 -7q-16 0 -33.5 9t-38 19.5t-46.5 19.5t-56 9q-72 0 -125 -60.5t-60 -162.5z" />
<glyph unicode="&#xa1;" horiz-adv-x="444" d="M88 1270q0 -59 40 -96t93 -37t94 36.5t41 96.5q0 59 -41 96t-94 37t-93 -37t-40 -96zM113 0h221l-21 983h-180z" />
<glyph unicode="&#xa2;" horiz-adv-x="559" d="M37 352q0 -135 52 -225t151 -125v-199h188v183q72 12 111 41l-68 155q-16 -10 -37.5 -18t-50.5 -8q-66 0 -103.5 51t-37.5 147v21q0 96 40 146t95 50q29 0 47 -7t37 -17l78 149q-25 16 -50.5 27.5t-60.5 15.5v166h-188v-180q-92 -35 -147.5 -125t-55.5 -225v-23z" />
<glyph unicode="&#xa3;" horiz-adv-x="864" d="M18 160q0 -84 58.5 -130t150.5 -46q59 0 109.5 22.5t85.5 63.5q43 -35 97 -60.5t128 -25.5q72 0 121 20.5t88 52.5l-86 156q-23 -16 -51.5 -32.5t-81.5 -16.5q-43 0 -78 13t-67 34q8 31 8 72v6q0 47 -8.5 93t-20.5 91h180v164h-231q-12 43 -20.5 86t-8.5 88v12 q0 72 39 113t105 41q51 0 85.5 -18.5t69.5 -51.5l117 146q-59 57 -125 82.5t-162 25.5q-164 0 -254 -89t-90 -230v-17q0 -47 9.5 -94t25.5 -94h-94v-164h153q14 -39 25.5 -76t17.5 -73q-23 8 -45 13t-51 5q-92 0 -145.5 -49t-53.5 -133zM168 160q0 47 55 47q23 0 43.5 -10.5 t42.5 -26.5q-14 -33 -36.5 -45t-49.5 -12t-41 14t-14 33z" />
<glyph unicode="&#xa4;" horiz-adv-x="862" d="M49 352h117q41 -176 152.5 -272t275.5 -96q84 0 140.5 19.5t96.5 47.5l-79 166q-31 -18 -66 -32.5t-78 -14.5q-176 0 -227 182h221v144h-244q-2 16 -2 32v35v23h246v143h-235q20 129 79.5 188.5t157.5 59.5q41 0 73 -11.5t60 -27.5l84 164q-41 29 -96 46t-127 17 q-184 0 -301 -113.5t-145 -322.5h-103v-143h94v-27v-33q0 -14 2 -30h-96v-144z" />
<glyph unicode="&#xa5;" horiz-adv-x="876" d="M29 1149l207 -512h-179v-143h236l35 -91h-271v-143h275v-260h213v260h274v143h-272l37 91h235v143h-178l207 512h-217l-123 -356q-10 -31 -21.5 -68t-20.5 -69.5t-14 -53.5l-6 -22l-5 22q-5 21 -14 53.5t-20.5 69.5t-21.5 68l-121 356h-235z" />
<glyph unicode="&#xa6;" horiz-adv-x="430" d="M72 449q0 -63 43 -103.5t100 -40.5t100 40t43 104q0 63 -43 103t-100 40t-100 -40t-43 -103z" />
<glyph unicode="&#xa7;" horiz-adv-x="849" d="M43 426q0 -82 41 -145.5t139 -126.5l137 -91q63 -41 105.5 -71.5t42.5 -81.5v-8q0 -49 -38 -76t-97 -27q-61 0 -107.5 28t-85.5 60l-119 -153q49 -47 129 -85t197 -38q164 0 253 83t89 210v12q0 61 -21.5 107.5t-60.5 87.5q82 33 121 92t39 131v14q0 90 -50 153.5 t-143 123.5l-172 110q-47 31 -75.5 58.5t-28.5 74.5v6q0 45 30.5 74t96.5 29q55 0 96 -21.5t76 -50.5l108 158q-47 41 -120.5 70.5t-171.5 29.5q-152 0 -243 -79.5t-91 -215.5v-12q0 -66 20.5 -114t63.5 -91q-80 -27 -120 -84t-40 -131v-10zM246 455v6q0 33 19.5 58.5 t64.5 35.5l164 -104q59 -39 84.5 -69t25.5 -69v-6q0 -72 -88 -92l-164 107q-57 37 -81.5 65.5t-24.5 67.5z" />
<glyph unicode="&#xa8;" d="M82 958q0 -47 34 -78.5t77 -31.5t76.5 31.5t33.5 78.5t-33.5 79t-76.5 32t-77 -31.5t-34 -79.5zM373 958q0 -47 33.5 -78.5t76.5 -31.5t77 31.5t34 78.5t-34 79t-77 32t-76.5 -31.5t-33.5 -79.5z" />
<glyph unicode="&#xa9;" horiz-adv-x="942" d="M47 567q0 -92 34 -171t91 -135t134 -89t165 -33q86 0 164 33t135 89t91 135t34 171q0 94 -34 172t-91 135.5t-135 89t-164 31.5q-88 0 -165 -31.5t-134 -89t-91 -135t-34 -172.5zM135 567q0 76 25.5 138.5t72 108.5t106.5 71.5t132 25.5q70 0 131.5 -25.5t106.5 -71.5 t71.5 -108.5t26.5 -138.5q0 -74 -26.5 -137t-71.5 -109.5t-106.5 -72t-131.5 -25.5q-72 0 -132 25.5t-106.5 72t-72 110t-25.5 136.5zM223 565q0 -57 19.5 -103t53.5 -80t80 -52.5t97 -18.5q70 0 122 27t81 74l-111 84q-14 -23 -34.5 -35t-55.5 -12q-45 0 -74.5 33.5 t-29.5 82.5q0 53 29.5 87t74.5 34q31 0 50.5 -11t35.5 -32l103 88q-63 92 -189 92q-53 0 -98 -18.5t-80 -52t-54.5 -81.5t-19.5 -106z" />
<glyph unicode="&#xaa;" horiz-adv-x="559" d="M25 684q0 -102 50 -154.5t128 -52.5q82 0 127 72v-55h178v432q0 125 -62.5 182t-173.5 57q-76 0 -132 -19.5t-99 -53.5l84 -131q23 18 51.5 30.5t69.5 12.5q37 0 60.5 -16.5t23.5 -63.5v-33h-72q-109 0 -171 -50t-62 -147v-10zM201 688v8q0 70 65 70h64v-61 q0 -45 -19.5 -66t-50.5 -21q-27 0 -43 17.5t-16 52.5z" />
<glyph unicode="&#xab;" horiz-adv-x="659" d="M39 379l102 -273h187l-103 277l103 272h-187l-102 -268v-8zM332 379l102 -273h187l-103 277l103 272h-187l-102 -268v-8z" />
<glyph unicode="&#xac;" horiz-adv-x="430" d="M72 449q0 -63 43 -103.5t100 -40.5t100 40t43 104q0 63 -43 103t-100 40t-100 -40t-43 -103z" />
<glyph unicode="&#xad;" horiz-adv-x="448" d="M59 348h330v180h-330v-180z" />
<glyph unicode="&#xae;" horiz-adv-x="595" d="M39 1155q0 -55 20.5 -102t55.5 -81t82 -53.5t100 -19.5t100 19.5t83 53.5t56.5 81t20.5 102t-20.5 102.5t-56.5 81t-83 53t-100 19.5t-100 -19.5t-82 -53t-55.5 -81t-20.5 -102.5zM98 1155q0 92 55.5 148.5t143.5 56.5t144.5 -56.5t56.5 -148.5t-56.5 -148.5 t-144.5 -56.5t-143.5 56.5t-55.5 148.5zM197 1020h75v67h19h6l37 -67h82l-47 86q47 31 47 88q0 41 -33 72.5t-92 31.5h-94v-278zM272 1149v82h19q20 0 33.5 -9.5t13.5 -31.5q0 -23 -13.5 -32t-33.5 -9h-19z" />
<glyph unicode="&#xaf;" d="M166 877h344v147h-344v-147z" />
<glyph unicode="&#xb0;" horiz-adv-x="577" d="M63 948q0 -45 17.5 -84t48.5 -68.5t72 -47t88 -17.5t88 17.5t71.5 47t48 68.5t17.5 84t-17.5 85t-48 70t-71.5 46t-88 16t-88 -16t-72 -46t-48.5 -70t-17.5 -85zM201 948q0 41 24.5 67.5t63.5 26.5t63.5 -26.5t24.5 -67.5t-24.5 -67.5t-63.5 -26.5t-63.5 26.5t-24.5 67.5 z" />
<glyph unicode="&#xb1;" horiz-adv-x="1069" d="M27 565h69v-565h199v565h158v-565h198v565h103v162h-103v455q0 55 17.5 88t62.5 33t61.5 -33t16.5 -88v-1182h199v1186q0 145 -74 214.5t-201 69.5q-121 0 -200.5 -69.5t-79.5 -212.5v-461h-158v481q0 51 17.5 71.5t39.5 20.5q16 0 24.5 -3t16.5 -7l62 146q-20 16 -50 25 t-77 9q-104 0 -168 -63.5t-64 -200.5v-479h-69v-162z" />
<glyph unicode="&#xb2;" horiz-adv-x="430" d="M72 449q0 -63 43 -103.5t100 -40.5t100 40t43 104q0 63 -43 103t-100 40t-100 -40t-43 -103z" />
<glyph unicode="&#xb3;" horiz-adv-x="430" d="M72 449q0 -63 43 -103.5t100 -40.5t100 40t43 104q0 63 -43 103t-100 40t-100 -40t-43 -103z" />
<glyph unicode="&#xb4;" d="M256 834h156l131 290h-224z" />
<glyph unicode="&#xb6;" horiz-adv-x="1003" d="M45 1028q0 -78 27.5 -143.5t79 -111.5t123 -71.5t161.5 -25.5h25v-676h168v1223h96v-1223h168v1393h-457q-90 0 -161.5 -26t-123 -72t-79 -110.5t-27.5 -144.5v-12zM262 1030v8q0 53 15.5 89t41 57.5t57.5 30t66 8.5h19v-377h-19q-35 0 -66.5 8t-57 29.5t-41 57.5 t-15.5 89z" />
<glyph unicode="&#xb7;" horiz-adv-x="382" d="M57 459q0 -59 41.5 -96t94.5 -37t93 36.5t40 96.5q0 59 -40 96t-93 37t-94.5 -37t-41.5 -96z" />
<glyph unicode="&#xb8;" d="M238 -330q16 -10 41.5 -18t64.5 -8q70 0 118 36.5t48 108.5v8q0 59 -30.5 90t-80.5 41v72h-102v-158h37q51 0 51 -41v-6q0 -23 -15.5 -33t-37.5 -10q-31 0 -49 15z" />
<glyph unicode="&#xb9;" horiz-adv-x="430" d="M72 449q0 -63 43 -103.5t100 -40.5t100 40t43 104q0 63 -43 103t-100 40t-100 -40t-43 -103z" />
<glyph unicode="&#xba;" horiz-adv-x="636" d="M33 809q0 -158 78.5 -245t207.5 -87q131 0 209 87t78 245v25q0 156 -77.5 243.5t-209.5 87.5q-129 0 -207.5 -88t-78.5 -243v-25zM217 811v23q0 90 27.5 134t74.5 44t74 -44t27 -134v-23q0 -92 -27 -136t-74 -44t-74.5 44t-27.5 136z" />
<glyph unicode="&#xbb;" horiz-adv-x="659" d="M39 106h186l103 269v8l-103 272h-186l102 -276zM332 106h186l103 269v8l-103 272h-186l102 -276z" />
<glyph unicode="&#xbc;" horiz-adv-x="430" d="M72 449q0 -63 43 -103.5t100 -40.5t100 40t43 104q0 63 -43 103t-100 40t-100 -40t-43 -103z" />
<glyph unicode="&#xbd;" horiz-adv-x="430" d="M72 449q0 -63 43 -103.5t100 -40.5t100 40t43 104q0 63 -43 103t-100 40t-100 -40t-43 -103z" />
<glyph unicode="&#xbe;" horiz-adv-x="430" d="M72 449q0 -63 43 -103.5t100 -40.5t100 40t43 104q0 63 -43 103t-100 40t-100 -40t-43 -103z" />
<glyph unicode="&#xbf;" horiz-adv-x="716" d="M51 358q0 -178 100.5 -276t262.5 -98q106 0 174.5 30.5t116.5 71.5l-113 152q-31 -29 -69 -48.5t-91 -19.5q-86 0 -126 53t-40 139v21q0 98 55.5 147.5t135.5 49.5h45v403h-189v-246q-129 -29 -195.5 -121t-66.5 -233v-25zM276 1270q0 -59 40.5 -96t93.5 -37t94 36.5 t41 96.5q0 59 -41 96t-94 37t-93.5 -37t-40.5 -96z" />
<glyph unicode="&#xc0;" horiz-adv-x="1001" d="M23 0h213l53 174h411l54 -174h225l-465 1405h-27zM272 1790l131 -291h156l-63 291h-224zM344 352l100 318q8 29 17.5 62.5t16.5 63t12.5 51t7.5 25.5q0 -6 5 -28.5t12 -51t16.5 -62.5t17.5 -60l96 -318h-301z" />
<glyph unicode="&#xc1;" horiz-adv-x="1001" d="M23 0h213l53 174h411l54 -174h225l-465 1405h-27zM344 352l100 318q8 29 17.5 62.5t16.5 63t12.5 51t7.5 25.5q0 -6 5 -28.5t12 -51t16.5 -62.5t17.5 -60l96 -318h-301zM420 1499h155l132 291h-224z" />
<glyph unicode="&#xc2;" horiz-adv-x="1001" d="M23 0h213l53 174h411l54 -174h225l-465 1405h-27zM276 1489h162l64 82l61 -82h166l-219 309h-14zM344 352l100 318q8 29 17.5 62.5t16.5 63t12.5 51t7.5 25.5q0 -6 5 -28.5t12 -51t16.5 -62.5t17.5 -60l96 -318h-301z" />
<glyph unicode="&#xc3;" horiz-adv-x="1001" d="M23 0h213l53 174h411l54 -174h225l-465 1405h-27zM260 1505l133 -10q4 33 15.5 43t27.5 10q12 0 28.5 -8t35 -17.5t41 -16.5t47.5 -7q61 0 103 52.5t52 156.5l-133 10q-4 -33 -15 -43t-28 -10q-12 0 -28.5 7t-35 16.5t-41 17.5t-46.5 8q-133 0 -156 -209zM344 352 l100 318q8 29 17.5 62.5t16.5 63t12.5 51t7.5 25.5q0 -6 5 -28.5t12 -51t16.5 -62.5t17.5 -60l96 -318h-301z" />
<glyph unicode="&#xc4;" horiz-adv-x="1001" d="M23 0h213l53 174h411l54 -174h225l-465 1405h-27zM100 1296q0 -47 34 -78.5t77 -31.5t77 31.5t34 78.5t-34 79t-77 32t-77 -32t-34 -79zM344 352l100 318q8 29 17.5 62.5t16.5 63t12.5 51t7.5 25.5q0 -6 5 -28.5t12 -51t16.5 -62.5t17.5 -60l96 -318h-301zM678 1296 q0 -47 33.5 -78.5t76.5 -31.5t77 31.5t34 78.5t-34 79t-77 32t-76.5 -32t-33.5 -79z" />
<glyph unicode="&#xc5;" horiz-adv-x="1001" d="M23 0h213l53 174h411l54 -174h225l-434 1311q55 14 93 58t38 101q0 33 -14.5 64t-38 53.5t-55 35.5t-66.5 13t-67 -13t-55.5 -35.5t-37.5 -53.5t-14 -64q0 -55 36.5 -99t92.5 -60zM344 352l100 318q8 29 17.5 62.5t16.5 63t12.5 51t7.5 25.5q0 -6 5 -28.5t12 -51 t16.5 -62.5t17.5 -60l96 -318h-301zM440 1470q0 31 17.5 48.5t44.5 17.5t44 -17.5t17 -48.5t-17 -47t-44 -16t-44.5 16.5t-17.5 46.5z" />
<glyph unicode="&#xc6;" horiz-adv-x="1402" d="M10 0h213l82 174h348v-174h682v188h-469v261h381v188h-381v567h453v189h-639zM389 352l168 357q20 45 39.5 91t34 83t24 60.5t9.5 25.5q0 -2 -1 -28t-3.5 -65.5t-3.5 -89t-1 -98.5l-2 -336h-264z" />
<glyph unicode="&#xc7;" horiz-adv-x="919" d="M59 678q0 -276 101.5 -451.5t288.5 -226.5v-158h36q51 0 52 -41v-6q0 -23 -15.5 -33t-38.5 -10q-31 0 -49 15l-45 -97q16 -10 42 -18t65 -8q70 0 118 36.5t48 108.5v8q0 59 -31 90t-80 41v56q10 -2 20 -2h23q102 0 168.5 23.5t118.5 57.5l-88 168q-41 -25 -82 -41 t-97 -16q-166 0 -250.5 134t-84.5 376v25q0 240 87 372.5t246 132.5q53 0 90 -14t72 -35l88 172q-45 29 -108.5 50.5t-143.5 21.5q-129 0 -231.5 -48t-173 -137t-108.5 -218t-38 -291v-37z" />
<glyph unicode="&#xc8;" horiz-adv-x="860" d="M111 0h682v188h-469v261h381v188h-381v567h452v189h-665v-1393zM227 1790l131 -291h156l-63 291h-224z" />
<glyph unicode="&#xc9;" horiz-adv-x="860" d="M111 0h682v188h-469v261h381v188h-381v567h452v189h-665v-1393zM377 1499h155l132 291h-224z" />
<glyph unicode="&#xca;" horiz-adv-x="860" d="M111 0h682v188h-469v261h381v188h-381v567h452v189h-665v-1393zM231 1489h162l64 82l61 -82h166l-219 309h-14z" />
<glyph unicode="&#xcb;" horiz-adv-x="860" d="M111 0h682v188h-469v261h381v188h-381v567h452v189h-665v-1393zM201 1624q0 -47 33.5 -79t76.5 -32t77 32t34 79t-34 79t-77 32t-76.5 -32t-33.5 -79zM492 1624q0 -47 33.5 -79t76.5 -32t77 32t34 79t-34 79t-77 32t-76.5 -32t-33.5 -79z" />
<glyph unicode="&#xcc;" horiz-adv-x="448" d="M-4 1790l131 -291h156l-64 291h-223zM117 0h215v1393h-215v-1393z" />
<glyph unicode="&#xcd;" horiz-adv-x="448" d="M117 0h215v1393h-215v-1393zM143 1499h156l131 291h-223z" />
<glyph unicode="&#xce;" horiz-adv-x="448" d="M0 1489h162l63 82l62 -82h166l-220 309h-14zM117 0h215v1393h-215v-1393z" />
<glyph unicode="&#xcf;" horiz-adv-x="448" d="M-31 1624q0 -47 34 -79t77 -32t76.5 32t33.5 79t-33.5 79t-76.5 32t-77 -32t-34 -79zM117 0h215v1393h-215v-1393zM260 1624q0 -47 34 -79t77 -32t76.5 32t33.5 79t-33.5 79t-76.5 32t-77 -32t-34 -79z" />
<glyph unicode="&#xd0;" horiz-adv-x="1044" d="M20 449h91v-449h292q135 0 244 48t184.5 137t115.5 214t40 281v33q0 158 -41 283.5t-116.5 213.5t-183 135.5t-243.5 47.5h-292v-756h-91v-188zM326 188v261h243v188h-243v567h65q193 0 284 -129t91 -368v-21q0 -236 -98.5 -367t-276.5 -131h-65z" />
<glyph unicode="&#xd1;" horiz-adv-x="1030" d="M111 0h202v635q0 27 -1 61.5t-2 64.5t-2 50l-1 20q2 -4 12.5 -19t24.5 -38.5t30.5 -49.5t33.5 -46l485 -690h27v1405h-203v-645q0 -29 1 -64t2 -64.5t2 -50t1 -22.5q-2 4 -12.5 21.5t-24.5 40t-31.5 49t-31.5 49.5l-486 698h-26v-1405zM256 1505l133 -10q4 33 15.5 43 t27.5 10q12 0 28.5 -8t35 -17.5t41 -16.5t47.5 -7q61 0 103 52.5t52 156.5l-133 10q-4 -33 -15 -43t-28 -10q-12 0 -28.5 7t-35 16.5t-41 17.5t-46.5 8q-133 0 -156 -209z" />
<glyph unicode="&#xd2;" horiz-adv-x="1126" d="M59 678q0 -166 37 -296t103.5 -219t158.5 -135t205 -46t205 46t158.5 135t103.5 219t37 296v37q0 166 -37 295t-103.5 218t-158.5 135t-205 46t-205 -46t-158.5 -135t-103.5 -218t-37 -295v-37zM279 684v25q0 252 77.5 380t206.5 128t206 -128t77 -380v-25 q0 -252 -77 -380t-206 -128t-206.5 128t-77.5 380zM332 1790l131 -291h155l-63 291h-223z" />
<glyph unicode="&#xd3;" horiz-adv-x="1126" d="M59 678q0 -166 37 -296t103.5 -219t158.5 -135t205 -46t205 46t158.5 135t103.5 219t37 296v37q0 166 -37 295t-103.5 218t-158.5 135t-205 46t-205 -46t-158.5 -135t-103.5 -218t-37 -295v-37zM279 684v25q0 252 77.5 380t206.5 128t206 -128t77 -380v-25 q0 -252 -77 -380t-206 -128t-206.5 128t-77.5 380zM479 1499h156l131 291h-223z" />
<glyph unicode="&#xd4;" horiz-adv-x="1126" d="M59 678q0 -166 37 -296t103.5 -219t158.5 -135t205 -46t205 46t158.5 135t103.5 219t37 296v37q0 166 -37 295t-103.5 218t-158.5 135t-205 46t-205 -46t-158.5 -135t-103.5 -218t-37 -295v-37zM279 684v25q0 252 77.5 380t206.5 128t206 -128t77 -380v-25 q0 -252 -77 -380t-206 -128t-206.5 128t-77.5 380zM336 1489h162l63 82l62 -82h165l-219 309h-14z" />
<glyph unicode="&#xd5;" horiz-adv-x="1126" d="M59 678q0 -166 37 -296t103.5 -219t158.5 -135t205 -46t205 46t158.5 135t103.5 219t37 296v37q0 166 -37 295t-103.5 218t-158.5 135t-205 46t-205 -46t-158.5 -135t-103.5 -218t-37 -295v-37zM279 684v25q0 252 77.5 380t206.5 128t206 -128t77 -380v-25 q0 -252 -77 -380t-206 -128t-206.5 128t-77.5 380zM319 1505l134 -10q4 33 15 43t28 10q12 0 28.5 -8t35 -17.5t41 -16.5t46.5 -7q61 0 103.5 52.5t52.5 156.5l-133 10q-4 -33 -15.5 -43t-27.5 -10q-12 0 -28.5 7t-35 16.5t-41 17.5t-47.5 8q-133 0 -156 -209z" />
<glyph unicode="&#xd6;" horiz-adv-x="1126" d="M59 678q0 -166 37 -296t103.5 -219t158.5 -135t205 -46t205 46t158.5 135t103.5 219t37 296v37q0 166 -37 295t-103.5 218t-158.5 135t-205 46t-205 -46t-158.5 -135t-103.5 -218t-37 -295v-37zM279 684v25q0 252 77.5 380t206.5 128t206 -128t77 -380v-25 q0 -252 -77 -380t-206 -128t-206.5 128t-77.5 380zM307 1624q0 -47 34 -79t77 -32t76.5 32t33.5 79t-33.5 79t-76.5 32t-77 -32t-34 -79zM598 1624q0 -47 34 -79t77 -32t76.5 32t33.5 79t-33.5 79t-76.5 32t-77 -32t-34 -79z" />
<glyph unicode="&#xd7;" horiz-adv-x="430" d="M72 449q0 -63 43 -103.5t100 -40.5t100 40t43 104q0 63 -43 103t-100 40t-100 -40t-43 -103z" />
<glyph unicode="&#xd8;" horiz-adv-x="1126" d="M51 45l142 -82l77 123q119 -104 293 -104q113 0 205 46t158.5 135t103.5 219t37 296v37q0 141 -27.5 255.5t-76.5 200.5l112 175l-141 81l-80 -122q-123 104 -291 104q-113 0 -205 -46t-158.5 -135t-103.5 -218t-37 -295v-37q0 -141 27 -257t76 -202zM279 684v25 q0 252 77.5 380t206.5 128q113 0 180 -87l-442 -692q-12 53 -17 113.5t-5 132.5zM383 260l438 688q25 -102 25 -239v-25q0 -252 -77 -380t-206 -128q-113 0 -180 84z" />
<glyph unicode="&#xd9;" horiz-adv-x="1032" d="M104 410q0 -109 31 -189t85 -133t130 -79.5t166 -26.5t166 26.5t130 79.5t85 133t31 189v983h-215v-979q0 -115 -50.5 -175.5t-146.5 -60.5t-146.5 60.5t-50.5 175.5v979h-215v-983zM287 1790l131 -291h155l-63 291h-223z" />
<glyph unicode="&#xda;" horiz-adv-x="1032" d="M104 410q0 -109 31 -189t85 -133t130 -79.5t166 -26.5t166 26.5t130 79.5t85 133t31 189v983h-215v-979q0 -115 -50.5 -175.5t-146.5 -60.5t-146.5 60.5t-50.5 175.5v979h-215v-983zM434 1499h156l131 291h-223z" />
<glyph unicode="&#xdb;" horiz-adv-x="1032" d="M104 410q0 -109 31 -189t85 -133t130 -79.5t166 -26.5t166 26.5t130 79.5t85 133t31 189v983h-215v-979q0 -115 -50.5 -175.5t-146.5 -60.5t-146.5 60.5t-50.5 175.5v979h-215v-983zM291 1489h162l63 82l62 -82h165l-219 309h-14z" />
<glyph unicode="&#xdc;" horiz-adv-x="1032" d="M104 410q0 -109 31 -189t85 -133t130 -79.5t166 -26.5t166 26.5t130 79.5t85 133t31 189v983h-215v-979q0 -115 -50.5 -175.5t-146.5 -60.5t-146.5 60.5t-50.5 175.5v979h-215v-983zM262 1624q0 -47 34 -79t77 -32t76.5 32t33.5 79t-33.5 79t-76.5 32t-77 -32t-34 -79z M553 1624q0 -47 34 -79t77 -32t76.5 32t33.5 79t-33.5 79t-76.5 32t-77 -32t-34 -79z" />
<glyph unicode="&#xdd;" horiz-adv-x="968" d="M16 1393l363 -965v-428h215v430l358 963h-211l-182 -512q-12 -33 -23.5 -72t-20.5 -74t-16 -59.5t-7 -26.5q-2 6 -8.5 31t-16.5 58.5t-21.5 72.5t-23.5 70l-186 512h-220zM408 1499h155l131 291h-223z" />
<glyph unicode="&#xde;" horiz-adv-x="933" d="M111 0h215v176h51q115 0 208 36t159.5 103.5t102.5 165t36 217.5v21q0 123 -37 218t-103.5 161.5t-160 101.5t-205.5 35h-51v158h-215v-1393zM326 365v682h49q152 0 222.5 -88.5t70.5 -243.5v-17q0 -150 -71 -241.5t-222 -91.5h-49z" />
<glyph unicode="&#xdf;" horiz-adv-x="751" d="M59 0h199v1182q0 55 18.5 88t63.5 33t63.5 -33t18.5 -88v-457q-39 -23 -63.5 -63t-24.5 -99v-8q0 -72 26.5 -120t77.5 -95q33 -31 54.5 -51.5t34 -34.5t17.5 -26.5t5 -24.5v-10q0 -49 -66 -50q-31 0 -54 12.5t-40 22.5l-80 -139q35 -25 79 -40t118 -15q111 0 169 58 t58 157v16q0 80 -40 131t-105 111q-43 41 -60.5 59.5t-17.5 46.5v6q0 25 22.5 40.5t71.5 17.5v559q0 141 -69.5 212.5t-198.5 71.5q-117 0 -197 -69.5t-80 -212.5v-1188z" />
<glyph unicode="&#xe0;" horiz-adv-x="622" d="M29 211q0 -115 55 -172t141 -57q90 0 142 77v-59h198v479q0 139 -69.5 202.5t-192.5 63.5q-84 0 -147.5 -20t-110.5 -61l94 -138q27 23 58.5 36t74.5 13q41 0 68 -22.5t27 -75.5v-37h-80q-121 0 -189.5 -56t-68.5 -163v-10zM92 1124l131 -290h156l-64 290h-223zM223 215 v8q0 37 16.5 57.5t57.5 20.5h70v-68q0 -49 -21.5 -72.5t-56.5 -23.5q-29 0 -47.5 18.5t-18.5 59.5z" />
<glyph unicode="&#xe1;" horiz-adv-x="622" d="M29 211q0 -115 55 -172t141 -57q90 0 142 77v-59h198v479q0 139 -69.5 202.5t-192.5 63.5q-84 0 -147.5 -20t-110.5 -61l94 -138q27 23 58.5 36t74.5 13q41 0 68 -22.5t27 -75.5v-37h-80q-121 0 -189.5 -56t-68.5 -163v-10zM223 215v8q0 37 16.5 57.5t57.5 20.5h70v-68 q0 -49 -21.5 -72.5t-56.5 -23.5q-29 0 -47.5 18.5t-18.5 59.5zM242 834h155l131 290h-223z" />
<glyph unicode="&#xe2;" horiz-adv-x="622" d="M29 211q0 -115 55 -172t141 -57q90 0 142 77v-59h198v479q0 139 -69.5 202.5t-192.5 63.5q-84 0 -147.5 -20t-110.5 -61l94 -138q27 23 58.5 36t74.5 13q41 0 68 -22.5t27 -75.5v-37h-80q-121 0 -189.5 -56t-68.5 -163v-10zM96 823h162l64 82l61 -82h166l-219 310h-15z M223 215v8q0 37 16.5 57.5t57.5 20.5h70v-68q0 -49 -21.5 -72.5t-56.5 -23.5q-29 0 -47.5 18.5t-18.5 59.5z" />
<glyph unicode="&#xe3;" horiz-adv-x="622" d="M29 211q0 -115 55 -172t141 -57q90 0 142 77v-59h198v479q0 139 -69.5 202.5t-192.5 63.5q-84 0 -147.5 -20t-110.5 -61l94 -138q27 23 58.5 36t74.5 13q41 0 68 -22.5t27 -75.5v-37h-80q-121 0 -189.5 -56t-68.5 -163v-10zM80 840l133 -11q4 33 15.5 43.5t27.5 10.5 q12 0 28.5 -8.5t35 -17.5t41 -16t47.5 -7q61 0 103 52t52 156l-133 11q-4 -33 -15.5 -43.5t-27.5 -10.5q-12 0 -28.5 7.5t-35 16.5t-41 17.5t-46.5 8.5q-133 0 -156 -209zM223 215v8q0 37 16.5 57.5t57.5 20.5h70v-68q0 -49 -21.5 -72.5t-56.5 -23.5q-29 0 -47.5 18.5 t-18.5 59.5z" />
<glyph unicode="&#xe4;" horiz-adv-x="622" d="M29 211q0 -115 55 -172t141 -57q90 0 142 77v-59h198v479q0 139 -69.5 202.5t-192.5 63.5q-84 0 -147.5 -20t-110.5 -61l94 -138q27 23 58.5 36t74.5 13q41 0 68 -22.5t27 -75.5v-37h-80q-121 0 -189.5 -56t-68.5 -163v-10zM68 958q0 -47 33.5 -78.5t76.5 -31.5t77 31.5 t34 78.5t-34 79t-77 32t-76.5 -31.5t-33.5 -79.5zM223 215v8q0 37 16.5 57.5t57.5 20.5h70v-68q0 -49 -21.5 -72.5t-56.5 -23.5q-29 0 -47.5 18.5t-18.5 59.5zM358 958q0 -47 34 -78.5t77 -31.5t77 31.5t34 78.5t-34 79t-77 32t-77 -31.5t-34 -79.5z" />
<glyph unicode="&#xe5;" horiz-adv-x="622" d="M29 211q0 -115 55 -172t141 -57q90 0 142 77v-59h198v479q0 139 -69.5 202.5t-192.5 63.5q-84 0 -147.5 -20t-110.5 -61l94 -138q27 23 58.5 36t74.5 13q41 0 68 -22.5t27 -75.5v-37h-80q-121 0 -189.5 -56t-68.5 -163v-10zM141 977q0 -33 14.5 -62.5t38 -52t55 -36 t66.5 -13.5t67 13.5t55.5 36t37.5 52t14 62.5t-14 63.5t-37.5 53t-55.5 36t-67 13.5t-66.5 -13.5t-55 -36t-38 -53t-14.5 -63.5zM223 215v8q0 37 16.5 57.5t57.5 20.5h70v-68q0 -49 -21.5 -72.5t-56.5 -23.5q-29 0 -47.5 18.5t-18.5 59.5zM254 977q0 31 17.5 48t43.5 17 q27 0 44.5 -17t17.5 -48t-17.5 -47.5t-44.5 -16.5t-44 16.5t-17 47.5z" />
<glyph unicode="&#xe6;" horiz-adv-x="1001" d="M29 211q0 -115 62 -172t181 -57q59 0 112.5 24.5t88.5 75.5q72 -100 236 -100q80 0 135 19t90 42l-78 156q-23 -14 -59.5 -28.5t-85.5 -14.5q-68 0 -102 34.5t-42 108.5h400v72q0 168 -73 271t-220 103q-127 0 -193 -88q-49 88 -178 88q-84 0 -147.5 -20t-110.5 -61 l94 -138q27 23 58.5 36t74.5 13q41 0 68 -22.5t27 -75.5v-39h-80q-121 0 -189.5 -55t-68.5 -162v-10zM223 215v8q0 37 16.5 56.5t57.5 19.5h70v-66q0 -49 -21.5 -72.5t-56.5 -23.5q-29 0 -47.5 18.5t-18.5 59.5zM567 436q17 146 107 146q43 0 65.5 -34t26.5 -112h-199z" />
<glyph unicode="&#xe7;" horiz-adv-x="559" d="M37 352q0 -131 48 -219t140 -127v-164h37q51 0 51 -41v-6q0 -23 -15 -33t-38 -10q-31 0 -49 15l-45 -97q16 -10 41.5 -18t64.5 -8q70 0 118 36.5t48 108.5v8q0 59 -30.5 90t-79.5 41v56q10 0 19 -1t20 -1q59 0 103 13t69 32l-68 159q-16 -10 -37.5 -18t-50.5 -8 q-66 0 -103.5 49t-37.5 145v21q0 96 40 144t95 48q29 0 47 -7t37 -17l78 153q-35 23 -75 36t-106 13q-72 0 -130 -25.5t-101 -72.5t-66.5 -116.5t-23.5 -155.5v-23z" />
<glyph unicode="&#xe8;" d="M37 354q0 -174 86 -273t260 -99q80 0 135 19t90 42l-78 156q-23 -14 -59.5 -28.5t-85.5 -14.5q-127 0 -141 137h397v78q0 168 -72.5 271t-220.5 103q-141 0 -226 -100t-85 -272v-19zM117 1124l131 -290h155l-63 290h-223zM242 436q16 146 106 146q84 0 92 -146h-198z" />
<glyph unicode="&#xe9;" d="M37 354q0 -174 86 -273t260 -99q80 0 135 19t90 42l-78 156q-23 -14 -59.5 -28.5t-85.5 -14.5q-127 0 -141 137h397v78q0 168 -72.5 271t-220.5 103q-141 0 -226 -100t-85 -272v-19zM242 436q16 146 106 146q84 0 92 -146h-198zM266 834h156l131 290h-223z" />
<glyph unicode="&#xea;" d="M37 354q0 -174 86 -273t260 -99q80 0 135 19t90 42l-78 156q-23 -14 -59.5 -28.5t-85.5 -14.5q-127 0 -141 137h397v78q0 168 -72.5 271t-220.5 103q-141 0 -226 -100t-85 -272v-19zM121 823h162l63 82l62 -82h165l-219 310h-14zM242 436q16 146 106 146q84 0 92 -146 h-198z" />
<glyph unicode="&#xeb;" d="M37 354q0 -174 86 -273t260 -99q80 0 135 19t90 42l-78 156q-23 -14 -59.5 -28.5t-85.5 -14.5q-127 0 -141 137h397v78q0 168 -72.5 271t-220.5 103q-141 0 -226 -100t-85 -272v-19zM92 958q0 -47 34 -78.5t77 -31.5t76.5 31.5t33.5 78.5t-33.5 79t-76.5 32t-77 -31.5 t-34 -79.5zM242 436q16 146 106 146q84 0 92 -146h-198zM383 958q0 -47 34 -78.5t77 -31.5t76.5 31.5t33.5 78.5t-33.5 79t-76.5 32t-77 -31.5t-34 -79.5z" />
<glyph unicode="&#xec;" horiz-adv-x="321" d="M-70 1124l131 -290h156l-63 290h-224zM61 0h199v727h-199v-727z" />
<glyph unicode="&#xed;" horiz-adv-x="321" d="M61 0h199v727h-199v-727zM80 834h156l131 290h-224z" />
<glyph unicode="&#xee;" horiz-adv-x="321" d="M-66 823h162l64 82l61 -82h166l-219 310h-14zM61 0h199v727h-199v-727z" />
<glyph unicode="&#xef;" horiz-adv-x="321" d="M-94 958q0 -47 33.5 -78.5t76.5 -31.5t77 31.5t34 78.5t-34 79t-77 32t-76.5 -31.5t-33.5 -79.5zM61 0h199v727h-199v-727zM197 958q0 -47 33.5 -78.5t76.5 -31.5t77 31.5t34 78.5t-34 79t-77 32t-76.5 -31.5t-33.5 -79.5z" />
<glyph unicode="&#xf0;" horiz-adv-x="708" d="M37 350q0 -174 88 -271t231 -97q145 0 231.5 102t86.5 307v58q0 229 -56.5 406t-154.5 312l104 76l-73 98l-109 -79q-51 53 -106.5 98t-114.5 84l-88 -119q43 -41 84 -82t76 -88l-117 -84l74 -98l114 82q47 -78 82 -170t57 -213q-25 33 -59.5 53t-87.5 20 q-49 0 -96 -24.5t-84 -72.5t-59.5 -116.5t-22.5 -154.5v-27zM242 352v25q0 100 29.5 149t82.5 49t83 -49t30 -149v-25q0 -100 -30 -150t-83 -50t-82.5 50t-29.5 150z" />
<glyph unicode="&#xf1;" horiz-adv-x="688" d="M59 0h199v457q0 53 26.5 78.5t71.5 25.5q35 0 58.5 -22.5t23.5 -67.5v-471h199v494q0 127 -57.5 189t-143.5 62q-119 0 -178 -100v82h-199v-727zM121 840l133 -11q4 33 15.5 43.5t27.5 10.5q12 0 28.5 -8.5t35 -17.5t41 -16t47.5 -7q61 0 103 52t52 156l-133 11 q-4 -33 -15.5 -43.5t-27.5 -10.5q-12 0 -28.5 7.5t-35 16.5t-41 17.5t-47.5 8.5q-133 0 -155 -209z" />
<glyph unicode="&#xf2;" horiz-adv-x="710" d="M37 350q0 -174 88 -271t231 -97q145 0 231.5 97t86.5 271v27q0 174 -86 271t-232 97q-143 0 -231 -97t-88 -271v-27zM127 1124l131 -290h156l-64 290h-223zM242 352v25q0 100 29.5 149t82.5 49t83 -49t30 -149v-25q0 -100 -30 -150t-83 -50t-82.5 50t-29.5 150z" />
<glyph unicode="&#xf3;" horiz-adv-x="710" d="M37 350q0 -174 88 -271t231 -97q145 0 231.5 97t86.5 271v27q0 174 -86 271t-232 97q-143 0 -231 -97t-88 -271v-27zM242 352v25q0 100 29.5 149t82.5 49t83 -49t30 -149v-25q0 -100 -30 -150t-83 -50t-82.5 50t-29.5 150zM276 834h156l131 290h-223z" />
<glyph unicode="&#xf4;" horiz-adv-x="710" d="M37 350q0 -174 88 -271t231 -97q145 0 231.5 97t86.5 271v27q0 174 -86 271t-232 97q-143 0 -231 -97t-88 -271v-27zM131 823h162l63 82l62 -82h166l-219 310h-15zM242 352v25q0 100 29.5 149t82.5 49t83 -49t30 -149v-25q0 -100 -30 -150t-83 -50t-82.5 50t-29.5 150z " />
<glyph unicode="&#xf5;" horiz-adv-x="710" d="M37 350q0 -174 88 -271t231 -97q145 0 231.5 97t86.5 271v27q0 174 -86 271t-232 97q-143 0 -231 -97t-88 -271v-27zM115 840l133 -11q4 33 15 43.5t28 10.5q12 0 28.5 -8.5t35 -17.5t41 -16t46.5 -7q61 0 103.5 52t52.5 156l-133 11q-4 -33 -15.5 -43.5t-27.5 -10.5 q-12 0 -28.5 7.5t-35 16.5t-41 17.5t-47.5 8.5q-133 0 -155 -209zM242 352v25q0 100 29.5 149t82.5 49t83 -49t30 -149v-25q0 -100 -30 -150t-83 -50t-82.5 50t-29.5 150z" />
<glyph unicode="&#xf6;" horiz-adv-x="710" d="M37 350q0 -174 88 -271t231 -97q145 0 231.5 97t86.5 271v27q0 174 -86 271t-232 97q-143 0 -231 -97t-88 -271v-27zM102 958q0 -47 34 -78.5t77 -31.5t77 31.5t34 78.5t-34 79t-77 32t-77 -31.5t-34 -79.5zM242 352v25q0 100 29.5 149t82.5 49t83 -49t30 -149v-25 q0 -100 -30 -150t-83 -50t-82.5 50t-29.5 150zM393 958q0 -47 34 -78.5t77 -31.5t76.5 31.5t33.5 78.5t-33.5 79t-76.5 32t-77 -31.5t-34 -79.5z" />
<glyph unicode="&#xf7;" horiz-adv-x="430" d="M72 449q0 -63 43 -103.5t100 -40.5t100 40t43 104q0 63 -43 103t-100 40t-100 -40t-43 -103z" />
<glyph unicode="&#xf8;" horiz-adv-x="708" d="M27 -4l102 -68l64 95q72 -41 163 -41q145 0 231.5 97t86.5 271v27q0 150 -68 246l64 92l-103 67l-53 -75q-72 39 -158 38q-143 0 -231 -97t-88 -271v-27q0 -76 17.5 -136t47.5 -108zM231 319v29v33q0 111 34 157t89 46q37 0 64 -21l-185 -266q-2 10 -2 22zM289 162 l186 270q2 -12 2 -24v-27v-33q0 -111 -34 -158t-89 -47q-39 0 -65 19z" />
<glyph unicode="&#xf9;" horiz-adv-x="690" d="M53 236q0 -129 57.5 -191.5t143.5 -62.5q119 0 178 102v-84h199v727h-199v-455q0 -53 -26.5 -79.5t-71.5 -26.5q-35 0 -58.5 23.5t-23.5 66.5v471h-199v-491zM115 1124l131 -290h155l-63 290h-223z" />
<glyph unicode="&#xfa;" horiz-adv-x="690" d="M53 236q0 -129 57.5 -191.5t143.5 -62.5q119 0 178 102v-84h199v727h-199v-455q0 -53 -26.5 -79.5t-71.5 -26.5q-35 0 -58.5 23.5t-23.5 66.5v471h-199v-491zM264 834h156l131 290h-223z" />
<glyph unicode="&#xfb;" horiz-adv-x="690" d="M53 236q0 -129 57.5 -191.5t143.5 -62.5q119 0 178 102v-84h199v727h-199v-455q0 -53 -26.5 -79.5t-71.5 -26.5q-35 0 -58.5 23.5t-23.5 66.5v471h-199v-491zM119 823h162l63 82l62 -82h165l-219 310h-14z" />
<glyph unicode="&#xfc;" horiz-adv-x="690" d="M53 236q0 -129 57.5 -191.5t143.5 -62.5q119 0 178 102v-84h199v727h-199v-455q0 -53 -26.5 -79.5t-71.5 -26.5q-35 0 -58.5 23.5t-23.5 66.5v471h-199v-491zM90 958q0 -47 34 -78.5t77 -31.5t76.5 31.5t33.5 78.5t-33.5 79t-76.5 32t-77 -31.5t-34 -79.5zM381 958 q0 -47 34 -78.5t77 -31.5t76.5 31.5t33.5 78.5t-33.5 79t-76.5 32t-77 -31.5t-34 -79.5z" />
<glyph unicode="&#xfd;" horiz-adv-x="649" d="M4 727l242 -653l-162 -494h186l375 1147h-184l-86 -274q-6 -20 -13.5 -44t-11.5 -45.5t-8 -37t-4 -17.5q0 2 -4 17.5t-10.5 37t-12.5 45t-12 44.5l-90 274h-205zM256 834h156l131 290h-224z" />
<glyph unicode="&#xfe;" horiz-adv-x="724" d="M61 -434h199v508q57 -92 170 -92q49 0 96 21.5t83 66.5t57.5 115.5t21.5 166.5v23q0 96 -21.5 166.5t-56.5 115.5t-82 66.5t-96 21.5q-121 0 -172 -90v781h-199v-1870zM256 354v19q0 96 29.5 148t83.5 52q55 0 84.5 -52t29.5 -148v-19q0 -96 -29.5 -148t-84.5 -52 q-53 0 -83 52t-30 148z" />
<glyph unicode="&#xff;" horiz-adv-x="649" d="M2 727l242 -653l-162 -494h186l375 1147h-184l-86 -274q-6 -20 -13.5 -44t-11.5 -45.5t-8 -37t-4 -17.5q0 2 -4 17.5t-10.5 37t-12.5 45t-12 44.5l-90 274h-205zM80 958q0 -47 33.5 -78.5t76.5 -31.5t77 31.5t34 78.5t-34 79t-77 32t-76.5 -31.5t-33.5 -79.5zM371 958 q0 -47 33.5 -78.5t76.5 -31.5t77 31.5t34 78.5t-34 79t-77 32t-76.5 -31.5t-33.5 -79.5z" />
<glyph unicode="&#x152;" horiz-adv-x="1437" d="M59 680q0 -158 41 -284t117 -214t183.5 -135t242.5 -47h727v188h-457v261h369v188h-369v567h441v189h-711q-135 0 -243.5 -48.5t-184.5 -137.5t-116 -214t-40 -280v-33zM281 686v21q0 236 98 366.5t276 130.5h45v-1016h-45q-193 0 -283.5 129t-90.5 369z" />
<glyph unicode="&#x153;" horiz-adv-x="1105" d="M37 350q0 -174 88 -271t231 -97q72 0 126.5 26.5t90.5 75.5q37 -49 95.5 -75.5t144.5 -26.5q80 0 135.5 19t89.5 42l-77 156q-23 -14 -60 -28.5t-86 -14.5q-127 0 -141 137h397v78q0 168 -72.5 271t-220.5 103q-70 0 -120 -27.5t-85 -76.5q-76 104 -217 104 q-143 0 -231 -97t-88 -271v-27zM242 352v25q0 100 29.5 149t82.5 49t83 -49t30 -149v-25q0 -100 -30 -150t-83 -50t-82.5 50t-29.5 150zM672 436q16 146 106 146q84 0 92 -146h-198z" />
<glyph unicode="&#x178;" horiz-adv-x="968" d="M16 1393l363 -965v-428h215v430l358 963h-211l-182 -512q-12 -33 -23.5 -72t-20.5 -74t-16 -59.5t-7 -26.5q-2 6 -8.5 31t-16.5 58.5t-21.5 72.5t-23.5 70l-186 512h-220zM233 1624q0 -47 34 -79t77 -32t77 32t34 79t-34 79t-77 32t-77 -32t-34 -79zM524 1624 q0 -47 34 -79t77 -32t76.5 32t33.5 79t-33.5 79t-76.5 32t-77 -32t-34 -79z" />
<glyph unicode="&#x2c6;" d="M111 823h161l64 82l61 -82h166l-219 310h-14z" />
<glyph unicode="&#x2dc;" d="M94 840l133 -11q4 33 15.5 43.5t27.5 10.5q12 0 28.5 -8.5t35 -17.5t41 -16t47.5 -7q61 0 103 52t53 156l-134 11q-4 -33 -15 -43.5t-28 -10.5q-12 0 -28.5 7.5t-35 16.5t-41 17.5t-46.5 8.5q-133 0 -156 -209z" />
<glyph unicode="&#x2000;" horiz-adv-x="899" />
<glyph unicode="&#x2001;" horiz-adv-x="1798" />
<glyph unicode="&#x2002;" horiz-adv-x="899" />
<glyph unicode="&#x2003;" horiz-adv-x="1798" />
<glyph unicode="&#x2004;" horiz-adv-x="599" />
<glyph unicode="&#x2005;" horiz-adv-x="449" />
<glyph unicode="&#x2006;" horiz-adv-x="299" />
<glyph unicode="&#x2007;" horiz-adv-x="299" />
<glyph unicode="&#x2008;" horiz-adv-x="224" />
<glyph unicode="&#x2009;" horiz-adv-x="359" />
<glyph unicode="&#x200a;" horiz-adv-x="99" />
<glyph unicode="&#x2010;" horiz-adv-x="448" d="M59 348h330v180h-330v-180z" />
<glyph unicode="&#x2011;" horiz-adv-x="448" d="M59 348h330v180h-330v-180z" />
<glyph unicode="&#x2012;" horiz-adv-x="448" d="M59 348h330v180h-330v-180z" />
<glyph unicode="&#x2013;" horiz-adv-x="618" d="M59 354h500v178h-500v-178z" />
<glyph unicode="&#x2014;" horiz-adv-x="1028" d="M59 354h910v178h-910v-178z" />
<glyph unicode="&#x2018;" horiz-adv-x="344" d="M45 1083q0 -55 38 -91t89 -36t89 36t38 91q0 41 -20.5 71t-59.5 44l53 195h-100l-90 -185q-16 -35 -26.5 -63.5t-10.5 -61.5z" />
<glyph unicode="&#x2019;" horiz-adv-x="344" d="M45 1282q0 -41 20.5 -70.5t59.5 -44.5l-53 -194h100l90 184q16 35 26.5 63.5t10.5 61.5q0 55 -38 91t-89 36t-89 -36t-38 -91z" />
<glyph unicode="&#x201a;" horiz-adv-x="344" d="M45 121q0 -41 20.5 -71t59.5 -44l-53 -194h100l90 184q16 35 26.5 63.5t10.5 61.5q0 55 -38 91t-89 36t-89 -36t-38 -91z" />
<glyph unicode="&#x201c;" horiz-adv-x="681" d="M45 1083q0 -55 38 -91t89 -36t89 36t38 91q0 41 -20.5 71t-59.5 44l53 195h-100l-90 -185q-16 -35 -26.5 -63.5t-10.5 -61.5zM383 1083q0 -55 38 -91t89 -36t89 36t38 91q0 41 -20.5 71t-59.5 44l53 195h-100l-90 -185q-16 -35 -26.5 -63.5t-10.5 -61.5z" />
<glyph unicode="&#x201d;" horiz-adv-x="681" d="M45 1282q0 -41 20.5 -70.5t59.5 -44.5l-53 -194h100l90 184q16 35 26.5 63.5t10.5 61.5q0 55 -38 91t-89 36t-89 -36t-38 -91zM383 1282q0 -41 20.5 -70.5t59.5 -44.5l-53 -194h100l90 184q16 35 26.5 63.5t10.5 61.5q0 55 -38 91t-89 36t-89 -36t-38 -91z" />
<glyph unicode="&#x201e;" horiz-adv-x="681" d="M45 121q0 -41 20.5 -71t59.5 -44l-53 -194h100l90 184q16 35 26.5 63.5t10.5 61.5q0 55 -38 91t-89 36t-89 -36t-38 -91zM383 121q0 -41 20.5 -71t59.5 -44l-53 -194h100l90 184q16 35 26.5 63.5t10.5 61.5q0 55 -38 91t-89 36t-89 -36t-38 -91z" />
<glyph unicode="&#x2022;" horiz-adv-x="471" d="M59 479q0 -76 52.5 -126t124.5 -50t124 50t52 126t-52.5 126t-123.5 50q-72 0 -124.5 -50t-52.5 -126z" />
<glyph unicode="&#x2026;" horiz-adv-x="1198" d="M57 123q0 -59 41.5 -96t94.5 -37t93 36.5t40 96.5q0 59 -40 96t-93 37t-94.5 -37t-41.5 -96zM465 123q0 -59 41 -96t94 -37t93 36.5t40 96.5q0 59 -40 96t-93 37t-94 -37t-41 -96zM872 123q0 -59 41.5 -96t94.5 -37t93 36.5t40 96.5q0 59 -40 96t-93 37t-94.5 -37 t-41.5 -96z" />
<glyph unicode="&#x202f;" horiz-adv-x="359" />
<glyph unicode="&#x2039;" horiz-adv-x="366" d="M39 379l102 -273h187l-103 277l103 272h-187l-102 -268v-8z" />
<glyph unicode="&#x203a;" horiz-adv-x="366" d="M39 106h186l103 269v8l-103 272h-186l102 -276z" />
<glyph unicode="&#x205f;" horiz-adv-x="449" />
<glyph unicode="&#x20ac;" horiz-adv-x="862" d="M49 352h117q41 -176 152.5 -272t275.5 -96q84 0 140.5 19.5t96.5 47.5l-79 166q-31 -18 -66 -32.5t-78 -14.5q-176 0 -227 182h221v144h-244q-2 16 -2 32v35v23h246v143h-235q20 129 79.5 188.5t157.5 59.5q41 0 73 -11.5t60 -27.5l84 164q-41 29 -96 46t-127 17 q-184 0 -301 -113.5t-145 -322.5h-103v-143h94v-27v-33q0 -14 2 -30h-96v-144z" />
<glyph unicode="&#x2122;" horiz-adv-x="815" d="M51 1300h88v-280h113v280h86v93h-287v-93zM399 1020h109v141l67 -78l66 78v-141h107v377h-13l-160 -180l-163 180h-13v-377z" />
<glyph unicode="&#x25fc;" horiz-adv-x="727" d="M0 0v727h727v-727h-727z" />
<glyph unicode="&#xfb01;" horiz-adv-x="712" d="M27 565h69v-565h199v565h158v-565h198v727h-356v481q0 51 17.5 71.5t39.5 20.5q23 0 34 -6t20 -12l67 148q-20 16 -53 28t-92 12q-104 0 -168 -63.5t-64 -200.5v-479h-69v-162zM436 999q0 -49 35 -81.5t80 -32.5q47 0 81 32.5t34 81.5q0 51 -34 83t-81 32 q-45 0 -80 -31.5t-35 -83.5z" />
<glyph unicode="&#xfb02;" horiz-adv-x="712" d="M27 565h69v-565h199v565h102v162h-102v455q0 55 17.5 88t62.5 33t61.5 -33t16.5 -88v-1182h198v1186q0 145 -73.5 214.5t-200.5 69.5q-121 0 -201 -69.5t-80 -212.5v-461h-69v-162z" />
</font>
</defs>
</svg>
